<?xml version="1.0" encoding="utf-8"?>
<svg version="1.1" width="100" height="100" xmlns="http://www.w3.org/2000/svg">
<style type="text/css">
	.st0{fill:url(#SVGID_1_);}
	.st1{fill:url(#SVGID_2_);}
	.st2{fill:#FFFFFF;}
</style>
<g id="baidufanyi">
	<linearGradient id="SVGID_1_" gradientUnits="userSpaceOnUse" x1="68.1403" y1="88.403" x2="89.7221" y2="51.0223">
		<stop  offset="0" style="stop-color:#FF9CAB"/>
		<stop  offset="0.3971" style="stop-color:#FF6A8A"/>
		<stop  offset="0.5746" style="stop-color:#FF527A"/>
	</linearGradient>
	<path class="st0" d="M95,64.2c0-4.7-1.3-9-4.1-12.5C88.7,67,77.6,79.1,56,81.4c3.7,2,8.6,3.1,14.6,3.1c0.5,0,1,0,1.4,0l6,5.1
		c1,0.8,2.5,0.4,2.8-0.9l1.8-6.3C91.1,79.2,95,72.3,95,64.2z"/>
	<linearGradient id="SVGID_2_" gradientUnits="userSpaceOnUse" x1="64.8493" y1="76.5778" x2="27.478" y2="11.8488">
		<stop  offset="0" style="stop-color:#35DBFF"/>
		<stop  offset="0.2741" style="stop-color:#2ACAFF"/>
		<stop  offset="0.8174" style="stop-color:#0C9DFF"/>
		<stop  offset="1" style="stop-color:#018CFF"/>
	</linearGradient>
	<path class="st1" d="M46.2,9.9C17.7,9.9,5,25.3,5,44.2C5,57.7,11.5,69.4,25.5,75L29,87.2c0.4,1.5,2.3,2.1,3.5,1.1L44,78.4
		c0.7,0,1.4,0,2.1,0c28.4,0,41.2-15.3,41.2-34.3S74.6,9.9,46.2,9.9z"/>
	<polygon class="st2" points="22.4,37.7 22.4,41.3 28.5,41.3 28.5,58.5 33.2,58.5 33.2,41.3 33.2,40.7 33.2,37.7 	"/>
	<polygon class="st2" points="65.4,54.9 54.8,54.9 54.8,50.1 64.1,50.1 64.1,46.6 54.8,46.6 54.8,43.5 50.2,43.5 50.2,46.6 
		40.9,46.6 40.9,50.1 50.2,50.1 50.2,54.9 39.6,54.9 39.6,58.5 50.2,58.5 50.2,65.2 54.8,65.2 54.8,58.5 65.4,58.5 	"/>
	<circle class="st2" cx="31" cy="27.8" r="3.4"/>
	<path class="st2" d="M66.8,37.7h-7.7L55.4,34l6.1-6.1v-3.5H42.4v3.6h13.1l-9.7,9.7h-7.7v3.6h7.9c0,0,1.5,0,3-1.1
		c1.6-1.2,3.5-3.3,3.5-3.3s1.9,2.1,3.5,3.4c1.1,1,3.6,1,3.6,1h7.3V37.7z"/>
</g>
</svg>
