<?xml version="1.0" encoding="utf-8"?>
<svg version="1.1" width="100" height="100" xmlns="http://www.w3.org/2000/svg">
<style type="text/css">
	.st0{fill-rule:evenodd;clip-rule:evenodd;fill:#C71D23;}
	.st1{fill-rule:evenodd;clip-rule:evenodd;fill:#FFFFFF;}
</style>
<g id="gitee">
	<circle id="Combined-Shape" class="st0" cx="50" cy="50" r="45"/>
	<path id="G" class="st1" d="M72.8,45H47.2C46,45,45,46,45,47.2l0,5.6c0,1.2,1,2.2,2.2,2.2c0,0,0,0,0,0l15.6,0c1.2,0,2.2,1,2.2,2.2
		c0,0,0,0,0,0v0.6l0,0v0.6c0,3.7-3,6.7-6.7,6.7H37.2C36,65,35,64,35,62.8l0-21.1c0-3.7,3-6.7,6.7-6.7c0,0,0,0,0,0h31.1
		c1.2,0,2.2-1,2.2-2.2l0-5.6c0-1.2-1-2.2-2.2-2.2c0,0,0,0,0,0H41.7C32.5,25,25,32.5,25,41.7v31.1c0,1.2,1,2.2,2.2,2.2H60
		c8.3,0,15-6.7,15-15V47.2C75,46,74,45,72.8,45z"/>
</g>
</svg>
