<?xml version="1.0" encoding="utf-8"?>
<svg version="1.1" width="100" height="100" xmlns="http://www.w3.org/2000/svg">
<style type="text/css">
	.st0{fill:#4AAECF;}
	.st1{fill:#636062;}
</style>
<g id="zlibrary">
	<path class="st0" d="M20.9,43.2H6.3l2.4-4.5h20.4l-16,25.7h16.3L27.6,69c0,0-15,0-22.6,0C5.1,68.8,20.9,43.2,20.9,43.2z"/>
	<polygon class="st1" points="41.8,30.7 41.8,69 36.9,69 36.9,30.7 	"/>
	<path class="st1" d="M72.8,46.1c0-2,0-3.7,0-5.4c5.2-3.6,13.5-2.1,18.5,3.3c4.9,5.4,5,13.9,0.3,19.6c-4.7,5.6-13.1,7.2-18.7,3.6
		c0-1.7,0-3.4,0-5.3c2.5,2,5.2,2.9,8.3,2.6c3.2-0.3,5.6-1.9,7.5-4.5c2.8-3.8,2.5-9.2-0.6-12.8c-1.9-2.3-4.3-3.6-7.4-3.8
		C77.7,43.3,75.1,44.1,72.8,46.1z"/>
	<path class="st1" d="M70,37.5c0,10.6,0,31.9,0,31.9h-4.7V37.5C65.4,37.5,68.4,37.5,70,37.5z"/>
	<rect x="65.4" y="30.7" class="st1" width="4.7" height="4.1"/>
	<rect x="65.4" y="35.6" class="st1" width="4.7" height="1"/>
	<polygon class="st1" points="58.5,44.2 52.8,69.2 48.3,68.2 54.1,43.1 	"/>
	<polygon class="st1" points="58.7,43.3 54.3,42.3 55.3,38 59.7,39 	"/>
</g>
</svg>
