<?xml version="1.0" encoding="utf-8"?>
<svg version="1.1" width="100" height="100" xmlns="http://www.w3.org/2000/svg">
<style type="text/css">
	.st0{fill:#3DDB85;}
</style>
<g id="android">
	<path class="st0" d="M70.7,62.5c-2.1,0-3.7-1.7-3.7-3.7s1.7-3.7,3.7-3.7c2.1,0,3.7,1.7,3.7,3.7C74.5,60.8,72.8,62.5,70.7,62.5
		 M29.3,62.5c-2.1,0-3.7-1.7-3.7-3.7s1.7-3.7,3.7-3.7c2.1,0,3.7,1.7,3.7,3.7C33,60.8,31.4,62.5,29.3,62.5 M72.1,40l7.5-13
		c0.4-0.7,0.2-1.7-0.6-2.1c-0.7-0.4-1.7-0.2-2.1,0.6l-7.6,13.1C63.5,35.9,57,34.4,50,34.4s-13.5,1.5-19.3,4.1l-7.6-13.1
		c-0.4-0.7-1.4-1-2.1-0.6c-0.7,0.4-1,1.4-0.6,2.1l7.5,13C15.1,47,6.3,60,5,75.4h90C93.7,60,84.9,47,72.1,40"/>
</g>
</svg>
