<?xml version="1.0" encoding="utf-8"?>
<svg version="1.1" width="100" height="100" xmlns="http://www.w3.org/2000/svg">
<style type="text/css">
	.st0{fill:#E67999;}
</style>
<g id="bilibili">
	<path class="st0" d="M56.3,72.5c-0.6,1.7-1.7,3-3.1,4.1c-3.4,2.6-6.9,5-10.9,6.3c-2.8,0.9-5.8,1.6-8.7,2.1
		c-3.9,0.6-7.8,0.9-11.7,1.2c-0.8,0.1-1.6,0-2.4,0c-0.4,0-0.5-0.2-0.5-0.6c-0.1-1.8-0.2-3.6-0.3-5.4c-0.2-2.3-0.4-4.6-0.7-6.9
		c-0.4-3.2-0.8-6.4-1.2-9.6c-0.4-3.4-0.8-6.7-1.3-10.1c-0.4-3.3-0.8-6.6-1.2-9.9c-0.5-3.8-1-7.5-1.5-11.3C12,28,11.2,23.6,10,19.3
		c-0.1-0.2,0.1-0.6,0.3-0.7c3.8-1.5,7.6-3,11.4-4.5c1.3-0.5,1.4-0.7,1.4,0.9c0,6.8,0,13.6,0.1,20.4c0.1,3.5,0.2,7.1,0.4,10.6
		c0.3,4.3,0.8,8.6,1.1,12.9c0,0.2,0.1,0.4,0.1,0.5c1.5-0.1,2.9-0.2,4.3-0.2c6.1-0.1,12,0.6,17.7,2.9c2.8,1.1,5.4,2.4,7.9,4.2
		C56.8,67.9,57.2,69.8,56.3,72.5L56.3,72.5z M30.8,66.5c0.6,4.2,1.1,8.4,1.7,12.7c3.5-2.7,7-5.3,10.4-7.9C42.5,70.7,33,67,30.8,66.5
		L30.8,66.5z M77.9,78.4c-2-0.2-3.9-0.3-6.1-0.5C70.1,59.6,68.5,41,65,22.6c1.1-0.1,2.3-0.3,3.4-0.4c1.3-0.1,2.7-0.2,4-0.3
		c1.1-0.1,1.5,0.2,1.6,1.3c0.2,2.9,0.4,5.8,0.6,8.7c0.3,3.9,0.5,7.9,0.8,11.8c0.2,2.8,0.4,5.7,0.6,8.5c0.2,3.1,0.5,6.2,0.8,9.3
		c0.2,2.3,0.4,4.6,0.6,6.9c0.2,2.5,0.5,4.9,0.8,7.4c0.1,0.7,0.2,1.4,0.2,2.1C78.5,78.4,78.3,78.4,77.9,78.4L77.9,78.4z M61.3,81.3
		c-1.9-10-3.9-19.9-5.8-29.9c1.6-0.2,3.1-0.5,4.7-0.7c1.1-0.1,2.2-0.1,3.4-0.3c0.6-0.1,1,0.2,1.1,0.8c0.3,1.6,0.5,3.2,0.7,4.7
		c0.3,2.6,0.6,5.3,0.8,7.9c0.2,2.3,0.5,4.6,0.8,6.9c0.3,2.5,0.6,4.9,0.9,7.4c0.1,0.7,0.2,1.5,0.3,2.3C65.8,80.7,63.6,81,61.3,81.3
		L61.3,81.3z M90,82.1c-2.2,0-4.3,0-6.4,0c-0.2,0-0.5-0.3-0.5-0.5c-0.3-3.4-0.6-6.7-0.9-10.1c-0.3-3.1-0.6-6.2-0.8-9.4
		c-0.3-3.2-0.6-6.4-0.9-9.6c0-0.2-0.1-0.4-0.1-0.7c0.8-0.1,1.5-0.2,2.3-0.2c2,0,4.1,0.1,6.1,0.1c0.5,0,0.7,0.4,0.8,0.9
		c0.1,1,0.2,2,0.2,3c0,4.7,0,9.5,0,14.2c0,3.8,0.2,7.6,0.2,11.3C90,81.3,90,81.6,90,82.1L90,82.1z M59.9,47.1
		c-0.5-3.9-1-7.7-1.5-11.6c1.3,0,2.5-0.1,3.8,0c0.4,0,0.6,0.2,0.6,0.7c0.3,3.5,0.7,7,1.1,10.7C62.6,46.9,61.3,47,59.9,47.1
		L59.9,47.1z M89.4,47.4c0,0.2,0,0.4,0,0.7C88,48,86.7,48,85.2,47.9c0-3.7,0-7.5,0-11.3c1.1,0,2.2,0,3.4,0c0.6,0,0.9,0.2,0.9,0.9
		C89.4,40.8,89.4,44.1,89.4,47.4L89.4,47.4z M58.2,47.2c-1,0.2-2.1,0.4-3.1,0.6c-0.7-3.7-1.4-7.5-2-11.3c1.2-0.2,2.4-0.4,3.7-0.5
		c0.5-0.1,0.4,0.4,0.5,0.7c0.1,1.3,0.3,2.5,0.4,3.8c0.2,2,0.4,3.9,0.6,5.9C58.3,46.7,58.2,46.9,58.2,47.2L58.2,47.2z M83.8,47.9
		c-1.2,0.1-2.2,0.2-3.2,0.3c-0.3-3.8-0.6-7.6-0.9-11.6c1.1,0,2.3,0,3.4,0c0.5,0,0.7,0.1,0.7,0.7c0,1.6,0,3.2,0,4.7
		C83.8,44,83.8,45.9,83.8,47.9L83.8,47.9z"/>
</g>
</svg>
