<?xml version="1.0" encoding="utf-8"?>
<svg version="1.1" width="100" height="100" xmlns="http://www.w3.org/2000/svg">
  <defs>
    <style>
      .cls-1 {
        fill: #1041f3;
      }

      .cls-1, .cls-2 {
        fill-rule: evenodd;
        stroke-width: 0px;
      }

      .cls-2 {
        fill: #3762ff;
      }
    </style>
  </defs>
  <path class="cls-2" d="M16.3,59.02c0-5.42,3.2-10.87,9.46-15.16,6.24-4.28,15.11-7.08,25.15-7.08s18.91,2.8,25.15,7.08c3.15,2.17,5.53,4.63,7.12,7.22,1.92-3.56,2.75-7.34,2.3-11.11-.03-.25,0-.5.07-.73-1.28-1.17-2.66-2.26-4.12-3.26-8.01-5.5-18.81-8.74-30.51-8.74s-22.5,3.25-30.51,8.74c-8,5.49-13.6,13.55-13.6,23.04s5.61,17.55,13.59,23.03c8.01,5.5,18.81,8.74,30.51,8.74s22.5-3.25,30.51-8.74c7.99-5.48,13.59-13.54,13.59-23.03,0-6.04-2.27-11.49-5.97-16.07-.19,4.23-1.68,8.28-4.14,11.98.41,1.35.61,2.73.61,4.09,0,5.42-3.2,10.87-9.46,15.16-6.24,4.28-15.11,7.08-25.15,7.08s-18.91-2.8-25.15-7.08c-6.25-4.29-9.46-9.74-9.46-15.16h.01Z"/>
  <path class="cls-1" d="M16.23,47.94c-2.53,7.22-1.93,13.73,1.36,18.39,3.3,4.67,9.22,7.4,16.84,7.4s16.48-2.77,24.63-8.56c8.15-5.79,13.7-13.26,16.23-20.47,2.53-7.22,1.93-13.73-1.36-18.39-3.3-4.67-9.22-7.4-16.84-7.4s-16.48,2.77-24.63,8.56c-8.15,5.79-13.7,13.26-16.23,20.47ZM7.12,44.72c3.27-9.31,10.17-18.35,19.76-25.16,9.58-6.82,20.38-10.35,30.21-10.35s19.14,3.56,24.73,11.49c5.59,7.93,5.85,17.93,2.59,27.23-3.27,9.31-10.17,18.35-19.76,25.16-9.59,6.81-20.38,10.34-30.22,10.35-9.82,0-19.14-3.56-24.73-11.49-5.59-7.93-5.85-17.93-2.59-27.23h0Z"/>
</svg>