<?xml version="1.0" encoding="UTF-8"?>
<svg version="1.1" width="100" height="100" xmlns="http://www.w3.org/2000/svg" xmlns:xlink="http://www.w3.org/1999/xlink">
  <defs>
    <style>
      .cls-1 {
        fill: #00d600;
      }

      .cls-2 {
        fill: #93eaff;
      }

      .cls-3 {
        fill: #0086ff;
      }

      .cls-4 {
        fill: #cbf4f7;
      }

      .cls-5 {
        fill: #ffce00;
      }

      .cls-6 {
        fill: #ccc;
      }
    </style>
  </defs>
  <path class="cls-4" d="M78.56,36.7v-15.25h-31.9l-10.01.09-.09-.09h-15.12v15.12l.09.13-.09,10.01v15.64c5.89-4.77,11.74-9.49,17.59-14.3,1.17-.95,1.95-.95,3.03.17,4.29,4.42,12.28,12.24,16.62,16.62.91.95,16.41,16.99,19.79,19.42l.09-30.92s0-16.64,0-16.64Z"/>
  <path class="cls-6" d="M84.91,90l-1.4-21.77-12.62-12.62-19.22,19.22v15.17h33.24Z"/>
  <path class="cls-1" d="M78.56,78.85l-29.56-29.56c-6.21-6.21-16.29-6.21-22.5,0l-11.56,11.56v18h63.63Z"/>
  <path class="cls-3" d="M36.65,83.24v-4.64h-15.21v-15.25h-11.44v26.65h26.65v-6.76ZM90,63.35h-11.53l.09.09v15.17h-15.12l-.09-.09v11.48h26.65v-26.65ZM14.68,36.7h6.85l-.09-.13v-15.12h15.12l.09.09v-11.53H10v26.7h4.68ZM63.35,13.64v7.8h15.21v15.25h11.44V10h-26.65v3.64Z"/>
  <path class="cls-2" d="M36.65,13.64v7.89l10.01-.09h16.68v-11.44h-26.7v3.64ZM63.35,78.52l-10.05.09h-16.64v11.4h26.7v-11.48ZM84.28,36.7h-5.72v16.64l-.09,9.79v.22h11.53v-26.65h-5.72ZM14.68,63.35h6.76v-16.64l.09-10.01h-11.53v26.65h4.68Z"/>
  <path class="cls-5" d="M60.5,27.89c-4.48,0-8.05,3.58-7.97,7.93.08,4.44,3.61,7.93,8.01,7.93s7.9-3.61,7.9-7.9-3.5-8.01-7.93-7.97Z"/>
</svg>