<?xml version="1.0" encoding="UTF-8"?>
<svg version="1.1" width="100" height="100" xmlns="http://www.w3.org/2000/svg">
  <defs>
    <style>
      .d {
        fill: #4d6bfe;
        stroke-width: 0px;
      }
    </style>
  </defs>
  <path id="b" data-name="path" class="d" d="M94.06,22.41c-.95-.47-1.37.42-1.92.87-.19.15-.35.34-.51.51-1.4,1.5-3.02,2.47-5.15,2.35-3.11-.17-5.77.81-8.11,3.19-.5-2.94-2.16-4.69-4.68-5.82-1.32-.58-2.66-1.17-3.58-2.44-.65-.9-.82-1.91-1.15-2.9-.2-.6-.41-1.21-1.1-1.32-.75-.12-1.04.51-1.33,1.04-1.18,2.15-1.63,4.51-1.59,6.91.1,5.39,2.38,9.68,6.89,12.74.51.35.65.7.48,1.21-.31,1.05-.67,2.07-1,3.12-.2.67-.51.82-1.23.53-2.48-1.04-4.62-2.57-6.51-4.43-3.21-3.11-6.12-6.54-9.74-9.23-.85-.63-1.7-1.21-2.58-1.77-3.7-3.6.49-6.55,1.45-6.9,1.01-.36.35-1.62-2.92-1.61-3.27.01-6.26,1.11-10.07,2.57-.56.22-1.14.38-1.75.51-3.46-.65-7.05-.8-10.81-.38-7.07.79-12.72,4.14-16.87,9.85-4.98,6.86-6.16,14.66-4.72,22.8,1.51,8.57,5.88,15.68,12.6,21.23,6.96,5.75,14.99,8.57,24.14,8.03,5.56-.32,11.75-1.07,18.73-6.98,1.76.87,3.61,1.22,6.68,1.49,2.36.22,4.63-.12,6.39-.48,2.76-.58,2.56-3.14,1.57-3.61-8.08-3.77-6.31-2.24-7.92-3.47,4.11-4.87,10.3-9.93,12.72-26.3.19-1.3.03-2.12,0-3.18-.01-.64.13-.89.86-.96,2.02-.23,3.99-.78,5.8-1.78,5.24-2.86,7.35-7.56,7.85-13.2.07-.86-.01-1.75-.92-2.21ZM48.43,73.16c-7.83-6.17-11.63-8.19-13.2-8.1-1.47.08-1.2,1.76-.88,2.86.34,1.08.78,1.83,1.4,2.78.43.63.72,1.57-.43,2.26-2.52,1.57-6.91-.53-7.12-.63-5.1-3-9.37-6.98-12.38-12.41-2.9-5.23-4.59-10.84-4.87-16.83-.07-1.45.35-1.96,1.79-2.22,1.89-.35,3.85-.42,5.74-.15,7.99,1.17,14.8,4.75,20.5,10.41,3.26,3.23,5.72,7.09,8.26,10.86,2.7,4,5.6,7.82,9.3,10.94,1.3,1.1,2.35,1.93,3.34,2.55-3,.33-8.02.41-11.45-2.31ZM52.18,48.98c0-.64.51-1.15,1.16-1.15.14,0,.28.03.4.07.16.06.31.15.42.28.21.2.33.5.33.8,0,.64-.51,1.15-1.16,1.15s-1.15-.51-1.15-1.15ZM63.84,54.97c-.75.3-1.49.57-2.21.6-1.11.05-2.33-.4-2.99-.95-1.03-.86-1.76-1.34-2.07-2.85-.13-.64-.06-1.64.06-2.21.27-1.23-.03-2.01-.89-2.73-.71-.58-1.6-.74-2.58-.74-.37,0-.7-.16-.95-.3-.41-.21-.75-.72-.43-1.35.1-.2.6-.7.72-.78,1.33-.76,2.87-.51,4.3.06,1.32.54,2.32,1.53,3.75,2.93,1.47,1.7,1.73,2.17,2.57,3.43.66,1,1.26,2.02,1.67,3.19.25.73-.07,1.32-.94,1.7Z"/>
</svg>