<?xml version="1.0" encoding="UTF-8"?>
<svg version="1.1" width="100" height="100" xmlns="http://www.w3.org/2000/svg">
  <defs>
    <style>
      .cls-1 {
        fill: #207bd7;
      }
    </style>
  </defs>
  <path class="cls-1" d="M67.67,10h-35.33c-12.33,0-22.33,10-22.33,22.33v35.33c0,12.33,10,22.33,22.33,22.33h35.33c12.33,0,22.33-10,22.33-22.33v-35.33c0-12.33-10-22.33-22.33-22.33ZM74.97,56.19l-18.72,3.13-3.65-31.22,22.37,28.09ZM49.99,21.86l-2.13,36.89-22.33-6.46,24.46-30.43ZM78.49,71.35c-.39,1.12-.85,2.21-1.37,3.27-2.05-1.33-5.26-2.57-7.49-2.34-3.33.34-4.99,5.08-8.86,5.27h0c-4.19-.24-8.11-5.73-12.6-5.27-3.33.34-4.99,5.08-8.86,5.27h0c-4.19-.24-8.11-5.73-12.6-5.27-1.51.15-2.67,1.21-3.86,2.34-.52-1.06-.97-2.15-1.36-3.27-1.09-3.12-1.69-6.47-1.69-9.96h60.36c0,3.49-.6,6.84-1.69,9.96Z"/>
</svg>