<?xml version="1.0" encoding="utf-8"?>
<svg version="1.1" width="100" height="100" xmlns="http://www.w3.org/2000/svg" xmlns:xlink="http://www.w3.org/1999/xlink">
  <defs>
    <style>
      .l {
        fill: #fff;
      }

      .l, .m, .n, .o {
        fill-rule: evenodd;
        stroke-width: 0px;
      }

      .m {
        fill: #fec514;
      }

      .n {
        fill: #00bfb3;
      }

      .o {
        fill: #343741;
      }

      .p {
        mask: url(#g);
      }

      .q {
        mask: url(#c);
      }
    </style>
    <mask id="c" data-name="mask" x="14.57" y="5" width="75.48" height="25.31" maskUnits="userSpaceOnUse">
      <g id="d" data-name="mask-2">
        <polygon id="e" data-name="path-1" class="l" points="14.57 5 90.05 5 90.05 30.31 14.57 30.31 14.57 5"/>
      </g>
    </mask>
    <mask id="g" data-name="mask-1" x="14.57" y="69.69" width="75.48" height="25.31" maskUnits="userSpaceOnUse">
      <g id="h" data-name="mask-4">
        <polygon id="i" data-name="path-3" class="l" points="14.57 69.69 90.05 69.69 90.05 95 14.57 95 14.57 69.69"/>
      </g>
    </mask>
  </defs>
  <path id="b" data-name="Fill-1" class="o" d="M9.95,50c0,3.89.55,7.65,1.47,11.25h54.78c6.21,0,11.25-5.04,11.25-11.25s-5.04-11.25-11.25-11.25H11.42c-.93,3.6-1.47,7.36-1.47,11.25"/>
  <g class="q">
    <path id="f" data-name="Fill-3" class="m" d="M85.67,26.55c1.57-1.45,3.03-3,4.38-4.67-8.25-10.28-20.9-16.88-35.1-16.88-17.78,0-33.08,10.34-40.38,25.31h61.5c3.56,0,6.98-1.35,9.6-3.77"/>
  </g>
  <g class="p">
    <path id="j" data-name="Fill-6" class="n" d="M76.07,69.69H14.57c7.3,14.97,22.6,25.31,40.38,25.31,14.2,0,26.85-6.6,35.1-16.88-1.34-1.67-2.8-3.23-4.38-4.67-2.62-2.42-6.04-3.76-9.6-3.76"/>
  </g>
</svg>