<?xml version="1.0" encoding="utf-8"?>
<svg version="1.1" width="100" height="100" xmlns="http://www.w3.org/2000/svg">
  <defs>
    <style>
      .cls-1 {
        fill: #188ff3;
      }

      .cls-2 {
        fill: #136cb7;
      }
    </style>
  </defs>
  <polygon class="cls-1" points="13.94 61.11 13.94 51.89 27.63 51.89 27.63 45.12 13.94 45.12 13.94 38.86 29.28 38.86 29.28 32.1 5 32.1 5 67.9 29.8 67.9 29.8 61.11 13.94 61.11"/>
  <path class="cls-2" d="M48.51,56.01c.82,1.26,1.69,2.58,2.62,3.95l5.4,8.01h9.42l-12.59-18.25,12.09-17.69h-9.51l-4.97,7.44c-.92,1.38-1.74,2.64-2.46,3.76l-1.68,5.22,1.67,7.58Z"/>
  <path class="cls-1" d="M48.51,56.01c-.84,1.3-1.72,2.61-2.62,3.95l-5.4,8.01h-9.42l12.59-18.25-12.09-17.69h9.51l4.97,7.41c1.02,1.54,1.85,2.8,2.48,3.78v12.8Z"/>
  <polygon class="cls-1" points="65.63 32.03 65.63 38.77 75.85 38.77 75.85 67.9 84.78 67.9 84.78 38.77 95 38.77 95 32.03 65.63 32.03"/>
</svg>