<?xml version="1.0" encoding="utf-8"?>
<svg version="1.1" width="100" height="100" xmlns="http://www.w3.org/2000/svg" xmlns:xlink="http://www.w3.org/1999/xlink">
    <defs>
        <style>.cls-1{fill:none;}.cls-2{fill:#e65270;}.cls-3{fill:#430a1d;}.cls-13,.cls-14,.cls-25,.cls-26,.cls-27,.cls-29,.cls-3,.cls-34,.cls-35,.cls-6,.cls-8,.cls-9{isolation:isolate;}.cls-13,.cls-3,.cls-6,.cls-8{opacity:0.2;}.cls-35,.cls-4,.cls-6{fill:#2b2b2b;}.cls-5{fill:url(#unname_9);}.cls-7{fill:url(#unname_9-2);}.cls-11,.cls-14,.cls-8{fill:#fff;}.cls-13,.cls-34,.cls-39,.cls-9{fill:#8b4fba;}.cls-9{opacity:0.6;}.cls-10{fill:#f9e0e7;}.cls-12{fill:url(#unname_4);}.cls-14,.cls-29{opacity:0.3;}.cls-15{fill:url(#unname_7);}.cls-16{fill:url(#unname_7-2);}.cls-17{fill:#e65271;}.cls-18{fill:url(#unname_7-3);}.cls-19{fill:url(#unname_3);}.cls-20,.cls-29{fill:#f6e8a0;}.cls-21{fill:#f8d285;}.cls-22{fill:url(#unname_7-4);}.cls-23{fill:url(#unname_4-2);}.cls-24{fill:url(#unname_4-3);}.cls-25,.cls-26,.cls-27{opacity:0.7;}.cls-25{fill:url(#unname_6);}.cls-26{fill:url(#unname_6-2);}.cls-27{fill:url(#unname_6-3);}.cls-28{fill:url(#unname_5);}.cls-30{fill:url(#unname_4-4);}.cls-31{fill:url(#unname_4-5);}.cls-32{fill:url(#unname_4-6);}.cls-33{fill:url(#unname_4-7);}.cls-34,.cls-35{opacity:0.4;}.cls-36{fill:#0d0d0d;}.cls-37{fill:url(#unname_4-8);}.cls-38{clip-path:url(#clip-path);}</style>
        <linearGradient id="unname_9" x1="43544.67022" y1="43.01877" x2="43568.39609" y2="153.73461" gradientTransform="matrix(-1, 0, 0, 1, 43574.80747, -50.955)" gradientUnits="userSpaceOnUse">
            <stop offset="0.3836" stop-color="#faa100" />
            <stop offset="0.6584" stop-color="#bf73f2" />
            <stop offset="0.6649" stop-color="#c370e6" />
            <stop offset="0.6852" stop-color="#cc68c7" />
            <stop offset="0.7081" stop-color="#d461ab" />
            <stop offset="0.7341" stop-color="#db5b95" />
            <stop offset="0.7643" stop-color="#e05784" />
            <stop offset="0.8017" stop-color="#e35479" />
            <stop offset="0.8543" stop-color="#e55272" />
            <stop offset="1" stop-color="#e65270" />
        </linearGradient>
        <linearGradient id="unname_9-2" x1="43530.07039" y1="40.3497" x2="43555.70565" y2="159.97746" xlink:href="#unname_9" />
        <linearGradient id="unname_4" x1="43524.81187" y1="48.53751" x2="43526.32715" y2="119.02308" gradientTransform="matrix(-1, 0, 0, 1, 43574.80747, -50.955)" gradientUnits="userSpaceOnUse">
            <stop offset="0" stop-color="#faa7b5" />
            <stop offset="0.3836" stop-color="#faa100" />
            <stop offset="0.7317" stop-color="#bf73f2" />
        </linearGradient>
        <linearGradient id="unname_7" x1="43543.79755" y1="55.24425" x2="43526.57312" y2="84.91678" gradientTransform="matrix(-1, 0, 0, 1, 43574.80747, -50.955)" gradientUnits="userSpaceOnUse">
            <stop offset="0" stop-color="#f6e8a0" />
            <stop offset="1" stop-color="#e65271" />
        </linearGradient>
        <linearGradient id="unname_7-2" x1="43540.94818" y1="73.1654" x2="43526.10778" y2="98.73013" xlink:href="#unname_7" />
        <linearGradient id="unname_7-3" x1="43506.77795" y1="54.736" x2="43508.46838" y2="84.23282" xlink:href="#unname_7" />
        <linearGradient id="unname_3" x1="43508.63978" y1="84.29243" x2="43518.45656" y2="40.79851" gradientTransform="matrix(-1, 0, 0, 1, 43574.80747, -50.955)" gradientUnits="userSpaceOnUse">
            <stop offset="0" stop-color="#e65271" />
            <stop offset="0.3836" stop-color="#faa100" />
        </linearGradient>
        <linearGradient id="unname_7-4" x1="43543.71328" y1="61.69225" x2="43506.33246" y2="93.53432" xlink:href="#unname_7" />
        <linearGradient id="unname_4-2" x1="43510.33939" y1="83.65557" x2="43546.98515" y2="93.6215" xlink:href="#unname_4" />
        <linearGradient id="unname_4-3" x1="43412.23845" y1="40.14719" x2="43584.79191" y2="132.66459" xlink:href="#unname_4" />
        <radialGradient id="unname_6" cx="107201.96728" cy="-17348.21551" r="14.87702" gradientTransform="matrix(-0.40842, -0.11636, -0.23859, 0.74079, 39711.03792, 25371.74965)" gradientUnits="userSpaceOnUse">
            <stop offset="0.0091" stop-color="#fff" />
            <stop offset="1" stop-color="#fff" stop-opacity="0" />
        </radialGradient>
        <radialGradient id="unname_6-2" cx="93256.48183" cy="-51894.93476" r="23.25573" gradientTransform="matrix(-0.42679, 0, 0, 0.40144, 39834.40213, 20871.68718)" xlink:href="#unname_6" />
        <radialGradient id="unname_6-3" cx="93256.49745" cy="-51894.93085" r="23.24603" gradientTransform="matrix(-0.42679, 0, 0, 0.40144, 39834.40213, 20871.68718)" xlink:href="#unname_6" />
        <linearGradient id="unname_5" x1="43482.75457" y1="118.95771" x2="43492.15249" y2="140.14336" gradientTransform="matrix(-1, 0, 0, 1, 43574.80747, -50.955)" gradientUnits="userSpaceOnUse">
            <stop offset="0.0041" stop-color="#faa7b5" />
            <stop offset="0.3836" stop-color="#faa100" />
        </linearGradient>
        <linearGradient id="unname_4-4" x1="43548.15978" y1="58.89093" x2="43555.75693" y2="116.62655" xlink:href="#unname_4" />
        <linearGradient id="unname_4-5" x1="43555.01477" y1="58.16282" x2="43562.59059" y2="115.73626" xlink:href="#unname_4" />
        <linearGradient id="unname_4-6" x1="43566.30291" y1="82.67596" x2="43562.89457" y2="122.8044" xlink:href="#unname_4" />
        <linearGradient id="unname_4-7" x1="43502.08564" y1="48.99973" x2="43503.60015" y2="119.45507" xlink:href="#unname_4" />
        <linearGradient id="unname_4-8" x1="43486.98267" y1="102.83035" x2="43490.79664" y2="109.12371" xlink:href="#unname_4" />
        <clipPath id="clip-path">
            <rect class="cls-1" x="84.29231" y="53.71294" width="1.07675" height="1.18158" />
        </clipPath>
    </defs>
    <path class="cls-2"
    d="M62.58771,91.95668c-1.20679-.01426-2.4118-.01761-3.6177-.01761l-3.112.00251s-8.90154-.00336-13.15609-.00336c-.66806,0-1.33791.00252-2.00686.0042q-1.00478.00252-2.00864.00419c-.41922,0-.83664-.00083-1.255-.00335a30.85541,30.85541,0,0,1-7.1917-.85237,30.73844,30.73844,0,0,1-20.07931-14.794A27.15092,27.15092,0,0,1,6.59719,64.15475a27.56264,27.56264,0,0,1,.31664-5.96325c.03835-.23826.08473-.47653.13111-.71647l.10258-.54531.17392.16108a.50911.50911,0,0,1,.14182.24161c.08652.26679.16769.53609.24974.80372.16947.5579.34608,1.1351.553,1.6888A38.698,38.698,0,0,0,15.30875,71.488a1.50215,1.50215,0,0,1,.27917.47485,18.366,18.366,0,0,0,5.6424,8.12941,25.26942,25.26942,0,0,0,9.20124,4.84158,28.05546,28.05546,0,0,1-6.24625-3.47577,19.22467,19.22467,0,0,1-6.58517-8.29721,1.4753,1.4753,0,0,1-.06333-1.14768,4.41566,4.41566,0,0,0,.14093-.45387c.02854-.10571.05619-.21142.091-.31628a11.28572,11.28572,0,0,1,3.23416-5.13186,13.177,13.177,0,0,1,5.36679-2.73245,42.96912,42.96912,0,0,1,6.36577-1.089l.90174-.10906c1.17825-.14514,2.37256-.31629,3.52673-.48408l.69482-.10067c.25866-.03691.51554-.08977.78134-.1443l.64844-.12752-.17036.27266a.30729.30729,0,0,1-.04282.06292,16.75766,16.75766,0,0,0-2.72487,3.80715.57034.57034,0,0,1-.31575.26175c-.15519.04782-.3095.09481-.4638.14346a13.019,13.019,0,0,1-1.51362.40773c-.55479.104-1.123.17954-1.67328.25169-.44061.05872-.88123.11661-1.31917.19212a7.48753,7.48753,0,0,0-3.47767,1.37252c.18909-.04279.38442-.06964.57619-.09564a4.57062,4.57062,0,0,0,.79293-.156,14.799,14.799,0,0,1,4.69427-.651l.24885.00084c.33091.00335.66093.01761.9963.03271l.64755.02517-.04817.15018a17.81893,17.81893,0,0,0,.10614,11.877,19.45216,19.45216,0,0,1-.32823-7.3299,15.20534,15.20534,0,0,1,4.95561-9.11351,24.181,24.181,0,0,1,7.0802-4.30632A45.91106,45.91106,0,0,1,54.96967,56.272l.47005-.10654c1.77317-.401,3.607-.81546,5.38374-1.30625a17.4289,17.4289,0,0,0,6.88219-3.59406,7.37045,7.37045,0,0,0,.8634-.83895,15.83657,15.83657,0,0,1,6.47368-4.80466.499.499,0,0,0,.20961-.1854,8.29665,8.29665,0,0,1,3.046-2.87257,1.57689,1.57689,0,0,1,1.799.13256,3.16217,3.16217,0,0,1,.33447.27685A4.992,4.992,0,0,1,81.512,44.53257a.17288.17288,0,0,0,.16679.11493c.30951.03859.62882.078.94546.13675a11.18273,11.18273,0,0,1,9.42065,9.79305c.01695.13507.02854.27182.04013.40773a4.02873,4.02873,0,0,0,.15788.95389,7.78658,7.78658,0,0,0,.51108,1.10825c.08295.15856.16768.32048.24617.4824.0669.13926.13736.27685.20693.41444.165.32635.33359.65941.47362,1.00086a2.321,2.321,0,0,1,.07492,1.60072c-.07135.23239-.2212.26678-.30415.26678a.39649.39649,0,0,1-.19979-.05956c-.14271-.08641-.27561-.182-.40851-.281-.06243-.04866-.12665-.09312-.19087-.13843-.07136-.052-.14182-.10319-.21139-.15772a3.818,3.818,0,0,0-.49681-.33138.41457.41457,0,0,0-.19088-.05118.3562.3562,0,0,0-.1882.05453l.24439.20554c.43616.36411.87143.72905,1.29956,1.099a.43829.43829,0,0,1,.14182.33558,2.777,2.777,0,0,1-3.24309,2.69806.47667.47667,0,0,1-.31307.46561,9.23519,9.23519,0,0,1-4.26793,1.08644l-.22476-.00168a6.32989,6.32989,0,0,0-3.00494.823,4.55557,4.55557,0,0,1-.99808.39934,13.563,13.563,0,0,1-2.68741.3532,8.78943,8.78943,0,0,0,1.14079.06963c.25777,0,.52357-.01006.81077-.02768l.16411-.01594c.12131-.01091.24439-.021.36213-.021a1.09125,1.09125,0,0,1,.3978.06124c.75012.2886,1.48329.6376,2.17009.96815a.735.735,0,0,0,.322.09228.44748.44748,0,0,0,.14895-.02685l.20068-.07047c.37551-.13339.7635-.271,1.13366-.42534a6.09438,6.09438,0,0,1,2.38861-.542,4.78532,4.78532,0,0,1,.60027.03944,4.35034,4.35034,0,0,1,1.65366.4891,1.13651,1.13651,0,0,1,.65557.89264.21432.21432,0,0,0,.06155.07383c.06511.05621.13289.1099.20247.1636s.14092.1099.20782.16946a1.52241,1.52241,0,0,1,.55211,1.36246c-.01606.15185-.05173.50756-.37551.50756a.8913.8913,0,0,1-.37283-.1099,1.06218,1.06218,0,0,0-.18463-.07383c.15787.09061.31129.18205.462.27853a1.10746,1.10746,0,0,1,.51554,1.042,2.33266,2.33266,0,0,1-2.31994,1.95978,2.0468,2.0468,0,0,1-.40226-.04194,1.45756,1.45756,0,0,1-1.02216-.6225.13758.13758,0,0,0-.04371-.03188l-.19622.00839a4.02955,4.02955,0,0,0-.69393.06543l-.06512.01427a5.48091,5.48091,0,0,1-1.164.16359,2.53386,2.53386,0,0,1-.45222-.03943c-.17749-.031-.3532-.07215-.53338-.1141l-.13022-.02936a5.319,5.319,0,0,1-.98916,1.75676,8.362,8.362,0,0,1-4.10916,2.59822,13.734,13.734,0,0,1-4.069.59146,17.706,17.706,0,0,1-2.33955-.16024,7.80286,7.80286,0,0,1-6.56377-4.80634,10.89257,10.89257,0,0,1-.46738-1.43124c-.06333-.22987-.12844-.46478-.19979-.69381a14.38541,14.38541,0,0,0-1.444-3.23751,9.88068,9.88068,0,0,0-4.102-3.88014,9.72589,9.72589,0,0,0-4.35623-1,12.18074,12.18074,0,0,0-2.01935.1745c-.14.02349-.27917.052-.421.08054.48789.021.9517.04614,1.42.08893a13.9399,13.9399,0,0,1,5.869,1.86162,9.00113,9.00113,0,0,1,4.40349,5.32314,18.34413,18.34413,0,0,0,1.45743,3.60664,8.85241,8.85241,0,0,0,1.47883,2.136,7.95985,7.95985,0,0,0,3.78271,2.016c.45043.12.89819.25,1.34326.38423a.79407.79407,0,0,1,.52357.49247,3.21685,3.21685,0,0,1,.19,1.90441A5.51866,5.51866,0,0,1,72.655,83.98a10.2166,10.2166,0,0,1-2.10676,1.61329,10.96,10.96,0,0,0-1.032.73409.96759.96759,0,0,0-.39513.80371c.02319.495.06243.51344.16055.51344a1.67735,1.67735,0,0,0,.4201-.09313c.10257-.03188.20425-.07047.305-.11242l.61187-.24833c.34964-.14178.69839-.2844,1.0507-.422a6.15569,6.15569,0,0,1,2.24323-.453,5.2615,5.2615,0,0,1,1.15149.12836,3.351,3.351,0,0,1,2.64549,2.25342.93355.93355,0,0,1-.04906.82133.65122.65122,0,0,1-.48165.27769.68919.68919,0,0,1-.43526-.25839.4098.4098,0,0,1-.09455-.23407c-.00535-.02517-.00981-.052-.01605-.07551a1.55014,1.55014,0,0,0-.53873-.88593,2.70156,2.70156,0,0,1,.61454,1.87086,1.22639,1.22639,0,0,1-1.312,1.14852c-.03033,0-.05976-.00084-.09187-.00251a.45776.45776,0,0,1-.48611-.39095,4.24452,4.24452,0,0,1-.02051-.4866c0-.06627,0-.13339-.00179-.19883-.00178-.08725-.00089-.172,0-.25923a3.73731,3.73731,0,0,0-.02408-.53441.89458.89458,0,0,0-.70017-.7475.34573.34573,0,0,0-.08741-.0193.747.747,0,0,1,.30683.29028,3.302,3.302,0,0,1,.35142.76428,1.29037,1.29037,0,0,1-.51822,1.55457,2.33845,2.33845,0,0,1-.92137.27182,2.71692,2.71692,0,0,1-.36748.02182A6.15653,6.15653,0,0,1,71.5044,91.429l-.21853-.04949a4.3205,4.3205,0,0,0-2.01756-.02769l-.13825.02349a37.01511,37.01511,0,0,1-6.207.568Z" />
    <path class="cls-3" d="M80.9768,67.15651s-3.33139,3.73835-8.989,1.59652c-5.18216-1.964-3.293-7.36933-3.293-7.36933s.9187,3.35244,3.59986,4.62261A17.38415,17.38415,0,0,0,80.9768,67.15651Z" />
    <path class="cls-3" d="M64.56246,68.75722a3.934,3.934,0,0,1,.96151,2.2551,10.75007,10.75007,0,0,0,2.04789,4.35246,8.81068,8.81068,0,0,0,3.94147,2.77105c1.41016.50841,3.22347.35823,2.95321,2.33312l-.47273,1.66279c-3.60342,0-6.97941-1.547-8.35478-4.9112-1.2059-2.95143.215-6.5178-3.4402-11.50787C62.49138,66.04993,64.18874,68.39815,64.56246,68.75722Z" />
    <path class="cls-4" d="M63.13536,67.29074c.0553.20974.10525.42283.15609.63508A.72.72,0,0,1,63.13536,67.29074Z" />
    <path class="cls-5" d="M21.14648,80.18707C7.55245,78.92361,5.95232,66.19591,5.95232,66.19591A32.223,32.223,0,0,1,6.937,54.50935C8.04391,65.03816,17.02394,72.32779,17.02394,72.32779S18.99691,78.32711,21.14648,80.18707Z" />
    <path class="cls-6" d="M17.75622,75.33962s-2.85063.255-6.65474-4.0882c3.66764,6.2594,8.42078,6.38692,8.42078,6.38692Z" />
    <path class="cls-7" d="M25.104,82.64854c-.71266-11.77045,6.63424-6.3089,10.42676-12.55068A19.80408,19.80408,0,0,1,39.796,61.18151S17.04624,57.16966,16.68858,72.77327c.792,3.37845,4.27416,6.64532,6.45406,8.413-.42635-.90438-5.85736-14.961,12.22936-13.815-6.24267-.5-15.2566,5.63438-10.96013,14.82423C24.84267,82.49082,25.104,82.64854,25.104,82.64854Z" />
    <path class="cls-8" d="M31.25393,65.67408c-4.7023,1.6628-12.68782,1.65525-10.41517,12.94163-.36391.25672-2.18168-2.39436-1.72768-2.1368C17.02038,66.388,26.4107,66.9711,31.25393,65.67408Z" />
    <path class="cls-9" d="M37.2085,61.63119c4.573-1.70139.85983,3.12257.2105,3.8944-1.50113,1.78528-5.299,1.20473-7.32281,1.80039-1.164.34229-5.82971.98576-7.37544,5.14108a11.96152,11.96152,0,0,0,.51822,8.512c-.363.2584-2.76858-2.21985-2.31369-1.96481C17.065,62.79733,35.273,68.618,37.2085,61.63119Z" />
    <path class="cls-10" d="M82.67237,55.00936A2.71179,2.71179,0,0,1,83.278,54.032c.06244.02768.12933.031.18017.06124a3.53939,3.53939,0,0,1,1.71074-.23574,3.72961,3.72961,0,0,1,1.14792.031c.47094.172.41743.63844.61455.99164.36926.65941,1.50737.6678,1.51183,1.59987a5.82046,5.82046,0,0,1,.00089,1.46313c-.08919.3188-.46827.22148-.79471.22148-.98916,0-1.97565.026-2.96659.026l-1.37-.9606c-.36569.1099-.652-.61159-.70195-.85657A2.6745,2.6745,0,0,1,82.67237,55.00936Z" />
    <path class="cls-11" d="M87.24356,56.28624a1.55554,1.55554,0,0,0,.51821-.46561c.07493-.10655.05352-.1745.21407-.17031.41832.01091.42189.542.40048.8163-.025.35068-.17571.67284-.23012,1.01764-.13557-.03188-.2105-.19212-.363-.23239a1.54067,1.54067,0,0,0-.42188-.01258c-.18553.00755-.4424.125-.61009.05789Z" />
    <path class="cls-12"
    d="M33.06188,39.03577c.06244-.06795.07849-.08809.09812-.10738a10.63166,10.63166,0,0,0,3.29482-5.855,5.51337,5.51337,0,0,0-.79829-4.04038.6844.6844,0,0,0-.05887-.07047c-.14092.41444-.26936.82133-.41921,1.22151a8.79283,8.79283,0,0,1-1.52253,2.75847C33.37317,33.268,21.514,39.44686,22.735,53.131c.008.08473.02319.16527.03568.26007.21942-.19212.41119-.391.63149-.55454A7.74977,7.74977,0,0,1,26.05393,51.636c1.74017-.45639,3.49193-.87586,5.24548-1.2794a51.54433,51.54433,0,0,0,5.92693-1.5789,15.07239,15.07239,0,0,0,3.0656-1.52689,16.42287,16.42287,0,0,0,3.75238-3.31888,5.80217,5.80217,0,0,0,1.1952-2.19637,5.08446,5.08446,0,0,1-.18285,2.516,6.12626,6.12626,0,0,1-1.35932,2.2207,2.38621,2.38621,0,0,0,.43884-.13759,12.33373,12.33373,0,0,0,4.309-3.56469,6.27771,6.27771,0,0,0,1.26031-3.40782.48412.48412,0,0,1,.01516-.06292,6.60272,6.60272,0,0,1-1.54037,6.01527c.65111-.21645,1.23979-.43374,1.84274-.60237a1.86451,1.86451,0,0,0,1.10333-.82552,18.97518,18.97518,0,0,0,2.7543-5.76946,8.93591,8.93591,0,0,0,.05352-4.83654A8.0325,8.0325,0,0,0,50.634,28.93315a15.63,15.63,0,0,0-3.61235-1.823c-.0776-.02852-.1552-.05453-.231-.08641-.01249-.0042-.01874-.01762-.06779-.068.44418.11494.84288.21226,1.23622.32216a17.05622,17.05622,0,0,1,5.15719,2.2551,7.40012,7.40012,0,0,1,2.98889,3.71822,7.502,7.502,0,0,1,.09276,4.2434,16.3923,16.3923,0,0,1-2.773,5.65955c-.03835.05454-.07581.10823-.11238.16192a.28581.28581,0,0,0-.0116.052.97219.97219,0,0,0,.13022-.0495,20.38477,20.38477,0,0,0,6.79033-5.027,16.69922,16.69922,0,0,0,3.7283-7.07906,9.567,9.567,0,0,0-2.37523-8.91886,17.37533,17.37533,0,0,0-5.23835-3.92712,25.3898,25.3898,0,0,0-8.18532-2.568,15.59746,15.59746,0,0,0-4.92974.02853,7.285,7.285,0,0,0-2.48851.92787c.12666-.10151.24707-.2089.38-.30034a7.49284,7.49284,0,0,1,3.021-1.1804,18.234,18.234,0,0,1,5.42477-.13927,25.475,25.475,0,0,1,8.01941,2.21986c.248.11745.49324.23742.76707.37,0-.21645-.01338-.40522.00357-.5923a.46469.46469,0,0,1,.41921-.48072c.23012-.02685.36569.05453.41029.26762.03657.18038.04638.36579.074.547a1.90321,1.90321,0,0,0,.56727,1.0663.55432.55432,0,0,0,.10258.08138c.01694.01258.041.01175.10524.02349,0-.14849.0009-.28524,0-.42115-.00446-.276-.016-.55287-.00981-.82888.00268-.068.05352-.177.10347-.19044a.288.288,0,0,1,.23636.06627,1.51427,1.51427,0,0,1,.29167.46646c.11506.35907.16679.73492.28631,1.09147a2.13129,2.13129,0,0,0,.35945.65019c.17125.20973.34429.16359.4094-.09313.06065-.23994.08295-.4891.1213-.73408a1.43709,1.43709,0,0,1,.04371-.25084.93965.93965,0,0,1,.11416-.18709c.05887.05118.14539.08893.17126.15269a1.36959,1.36959,0,0,1,.12576.44632c.01873.33223-.01427.667.0116.99751a1.2166,1.2166,0,0,0,.16768.5168c.10168.1703.2649.15017.3211-.04027.08116-.27182.1213-.55287.18017-.83057.04014-.18792.08206-.375.13111-.60488a.82348.82348,0,0,1,.31664.60405c.06065.5428.09009,1.08811.14093,1.63175a2.188,2.188,0,0,0,.44418,1.11413c.4647.6334.87588,1.30372,1.29153,1.96817.21406.34061.41207.37166.61187.021.22655-.3985.39513-.82384.5869-1.2408.08384-.18205.1543-.36746.2426-.547a1.89862,1.89862,0,0,1,.17393-.25168.50866.50866,0,0,1,.23815.55958c-.06511.30286-.18374.59733-.26758.89684a9.505,9.505,0,0,0-.24083.98744.78017.78017,0,0,0,.10882.42535c.09187.18876.23815.21141.39513.06376.15966-.14934.28364-.33139.43883-.48324a1.89866,1.89866,0,0,1,.31575-.2089c.05976.12249.18106.25.17036.36746a2.52245,2.52245,0,0,1-.18285.7366c-.198.474-.4647.92536-.63506,1.40608a4.8862,4.8862,0,0,0-.18641,1.1007.3252.3252,0,0,0,.14538.27685.3965.3965,0,0,0,.30683-.1208c.32377-.33391.62792-.6871.94545-1.03023a2.32681,2.32681,0,0,1,.272-.21981c.03121.0151.06065.02685.09187.04279a2.53677,2.53677,0,0,1-.09723.58391,5.34141,5.34141,0,0,1-.46737.86663c-.2881.43374-.61722.84063-.91245,1.26849a7.73413,7.73413,0,0,0-1.13366,2.57474c-.16322.66109-.39513,1.30792-.59849,1.9581a.98565.98565,0,0,0-.058.24833c.17749-.266.35053-.53777.53427-.80287a4.61084,4.61084,0,0,1,2.38058-1.90442,50.3037,50.3037,0,0,0,5.11081-1.92874,10.08468,10.08468,0,0,0,1.33969-.78526,1.2991,1.2991,0,0,0,.57619-1.50088c-.11238-.43122-.22477-.8616-.34161-1.31044-.27829.4178-.52357.8205-.80453,1.198A2.66054,2.66054,0,0,1,73.2,28.32323a1.5188,1.5188,0,0,1,.08295-.1485,9.16334,9.16334,0,0,0,1.46457-3.11082.88748.88748,0,0,0-.02587-.375,10.51155,10.51155,0,0,1-.03835-2.42037,2.39867,2.39867,0,0,0-.01517-.48659.27481.27481,0,0,0-.14092-.1938c-.04549-.01929-.16412.03944-.20426.09061a3.90285,3.90285,0,0,0-.46291.67787c-.44865.98073-.87856,1.96985-1.30669,2.95646a12.51676,12.51676,0,0,1-2.05057,3.45731,4.75952,4.75952,0,0,1-1.46456,1.15355,2.40935,2.40935,0,0,1-.35232.13256A4.24822,4.24822,0,0,0,69.824,26.95323c.05262-1.44467.02229-2.8927.03746-4.339a15.11354,15.11354,0,0,1,.64933-4.62093.29579.29579,0,0,0-.04727-.20638c-.14-.25672-.31753-.49666-.43349-.76177-.24349-.55622-.44686-1.1267-.685-1.68628-.13915-.32887-.18642-.3532-.561-.328a.967.967,0,0,1-.858-.45974c-.16322-.20387-.23012-.19884-.3425.04027-.1222.26007-.21853.5277-.35053.78358-.04549.08725-.16144.1443-.24529.21477-.06422-.08893-.17125-.17618-.182-.271-.03479-.30957-.02587-.62166-.04906-.93207a1.57354,1.57354,0,0,0-.0883-.45471.29829.29829,0,0,0-.21674-.14765c-.05708-.0042-.15609.08725-.18017.156-.08117.22065-.12933.45052-.20337.67284-.05975.1787-.14449.198-.25777.052a10.0939,10.0939,0,0,0-3.10216-2.47238c-.347-.19631-.68857-.40185-1.03375-.59985-.02408.00755-.04817.01594-.07047.02182.04371.35991.0892.719.1329,1.07805-.03121.01594-.06243.02936-.09276.04446a2.5299,2.5299,0,0,1-.32466-.26175c-.22923-.2542-.43616-.52434-.66807-.77771a3.14744,3.14744,0,0,0-1.5921-.98912c.17571.56629.34339,1.10238.50929,1.64015-.02586.01258-.05441.02265-.08027.03356a1.96873,1.96873,0,0,1-.17215-.20219c-.13468-.20554-.26758-.41024-.39067-.62166a3.15165,3.15165,0,0,0-2.41893-1.56716c-.72961-.099-1.46724-.16443-2.2022-.21141a4.389,4.389,0,0,1-1.55018-.33223c-.34608-.14681-.71712-.24748-1.081-.36158a.63747.63747,0,0,0-.21318.00839.59833.59833,0,0,0,.02052.21812c.17125.31545.35766.62334.52981.93878a3.39534,3.39534,0,0,1,.1543.35823c-.01694.01762-.033.03356-.04905.05118A2.77,2.77,0,0,1,51.789,10.556c-.47451-.21645-.95616-.42031-1.41462-.66361a3.675,3.675,0,0,0-1.48775-.30873,13.1544,13.1544,0,0,0-4.67643.41024,6.96871,6.96871,0,0,0-2.54648,1.27605c.09543-.00923.19355-.00923.28631-.02517a12.648,12.648,0,0,1,2.7989-.31712,4.05171,4.05171,0,0,1,1.84631.42534,1.072,1.072,0,0,1,.2212.22736.99677.99677,0,0,1-.38353.10738c-.29523-.03272-.58422-.13591-.88124-.15856a8.2087,8.2087,0,0,0-2.76054.35991,19.40307,19.40307,0,0,0-5.9974,2.75679c-.44775.2995-.91245.5772-1.37715.85573a7.02223,7.02223,0,0,0-2.22,2.09066,1.63691,1.63691,0,0,0-.17393.32048.52474.52474,0,0,0,.281.724,3.229,3.229,0,0,0,.71623.24581,7.65353,7.65353,0,0,1,6.07053,6.40873,20.5406,20.5406,0,0,1,.25331,3.54121,10.89445,10.89445,0,0,1-3.12357,7.147,15.99735,15.99735,0,0,1-4.00926,2.98162C33.1814,38.9804,33.14929,38.993,33.06188,39.03577Z" />
    <path class="cls-13" d="M74.88219,20.89686c-1.38608,10.18316-6.191,7.87857-9.33414,13.56329-.17214-.21478-.56816,1.52353.22388-1.70391.79293-3.23079,3.0647-1.77186,5.21516-5.46659C73.71018,22.61922,73.1661,22.20058,74.88219,20.89686Z" />
    <path class="cls-14" d="M60.52823,21.08814c-.51554,2.9145-4.89674,2.78279-8.64556,1.54618-4.07437-1.344-12.538-1.77522-13.21941-.172-.33983.36746-1.02217-1.14348-1.02217-1.14348s6.4282-6.59666,17.18943.36578c-.43794-.641,3.86745-2.51685,3.86745-2.51685S59.99306,18.7978,60.52823,21.08814Z" />
    <path class="cls-13" d="M38.23067,49.073c.23368.54532,2.13708.17786,2.31547-.67368C37.73832,45.40759,45.1307,39.91,38.31272,32.73443,42.77509,43.80436,33.276,44.25488,38.23067,49.073Z" />
    <path class="cls-9" d="M38.23067,49.073c.23368.54532.19176.38927.37015-.46226-2.80782-2.99253,4.67108-7.35591-.2881-15.87627C42.77509,43.80436,33.276,44.25488,38.23067,49.073Z" />
    <path class="cls-15" d="M48.463,46.88834c13.49324-13.35523-3.56508-11.1186-9.12453-20.18344.00981-.156.02141-.30706.02141-.4673a7.359,7.359,0,0,0-.89015-3.49841c5.20356,7.25942,18.39533.85824,15.83279,15.69841C54.07149,39.20105,52.23588,46.72139,48.463,46.88834Z" />
    <path class="cls-16" d="M48.463,46.88834c-5.55588,2.56466-10.41249,2.63933-10.18237,1.8784,11.03774-7.04465,2.12728-14.30408.04995-21.14235.14182-.552,1.0293-.75757,1.0293-1.38427,0-.06711-.008-.13087-.00981-.19715a2.27678,2.27678,0,0,0,.90442,1.25842C45.3849,32.169,61.6931,33.7957,48.463,46.88834Z" />
    <path class="cls-17" d="M46.72281,46.68951c8.54477-12.00369-7.40666-14.28395-7.2907-18.08942-1.271,7.82739,14.01859,11.17815-.347,20.5467C38.855,49.90688,41.16693,49.25417,46.72281,46.68951Z" />
    <path class="cls-18" d="M70.59821,25.83743c.67876,1.0663-.07493,2.32472-.86518,3.50345-.72961,1.089-2.49118.7324-3.68638,3.35747l.10257-2.04535c1.32453-2.17037-.916-5.15786-1.53948-7.17721-1.06141-3.43969-2.21558-6.61344-.809-10.10347.09544-.23406.1766-.49078.27293-.73156a8.39449,8.39449,0,0,1,1.83472,1.714c.39869.49162.25955-1.26849.784-.89851.38532.26762-.01873,1.51262.34875,1.80038.41207.32719.66-1.56716.95883-1.14768.69661.98492,1.09619.35991,1.39321.65522.26847.26762.8964,2.3306,1.14971,2.61.248.271.48432.55035.718.8314a18.27785,18.27785,0,0,1-.96508,4.54458A2.729,2.729,0,0,0,70.59821,25.83743Z" />
    <path class="cls-17" d="M51.60528,10.15747a.29594.29594,0,0,0,.09811.01929c.37372-.00587-1.007-1.6393-.61009-1.6393.66985,0,1.6162.651,2.27177.69884a12.57113,12.57113,0,0,1,4.04583.59817c1.17558.50673,1.69825,2.07976,1.96137,2.146.26491.0688-.63952-1.818-.38-1.73411a3.4027,3.4027,0,0,1,1.081.57049c1.15952,1.56128,1.53591,9.29891-.165,9.09924-1.78745-.20974,2.81941.594,2.83815.52938a9.05311,9.05311,0,0,0-1.73661-8.64537,1.55143,1.55143,0,0,0,.54052.51008c.36658.13256-.22745-1.31883.107-1.12671,1.06408.6116,1.81866,1.04282,2.43856,1.47739.01873.02517.02408.08558.05441.07383.45667-.17869,3.27519-.802,1.13008,8.72172,3.25736-6.20067.70731-8.63363.95705-8.37943,1.15685,1.17453,1.39321,4.04206,1.54216,5.74261.14093,1.59485-.92583,5.23085-2.30833,6.43306-.97311.84566-.95348-.20134-1.31918-1.01009A14.24889,14.24889,0,0,0,61.45227,20.75a31.36244,31.36244,0,0,0-2.46442-2.1368,33.74522,33.74522,0,0,1-2.15671-2.77357c-.71176-.77854-1.58765-1.39852-2.26463-2.21063-.759-.90942-1.26744-1.94971-2.10586-2.787A7.03281,7.03281,0,0,0,51.60528,10.15747Z" />
    <path class="cls-19" d="M57.85152,9.28832c1.99081-.00588,3.24041.891,4.88782,1.74836,1.36556.71395,3.04329.72066,4.19657,1.70391a6.67022,6.67022,0,0,1,2.48226,4.51858,22.23767,22.23767,0,0,1-.06957,7.13023,10.02024,10.02024,0,0,1-1.95423,4.21236l-1.065-.6376c-2.10051-5.10165-8.43149-7.19483-10.82723-12.20922a12.47981,12.47981,0,0,1-.98916-5.006C54.49426,9.061,56.40123,9.29251,57.85152,9.28832Z" />
    <path class="cls-20" d="M38.04247,22.037a8.28325,8.28325,0,0,0-5.14381-3.38852c-.54765-.11494-1.52878-.43542-.55746-1.53528A9.97361,9.97361,0,0,1,35.67705,14.442c3.23149-2.25677,1.89536-2.48749,3.78092-2.69219.73674-.08054.5423-.14094.916,0s-.2872-.099-.52356-.24581c-2.10319-1.3096-1.95157,1.30289-1.04714.73828,2.69187-1.95811,8.89262-3.33231,10.631-3.0521.25331.04027,2.00062.99,2.2682.98576.37372-.00587-1.007-1.6393-.61009-1.6393.66985,0,1.61619.651,2.27177.69884a6.56748,6.56748,0,0,1,5.45242,6.56226,17.53683,17.53683,0,0,1-.12041,3.36838C57.19238,26.01864,41.96432,16.40176,38.04247,22.037Z" />
    <path class="cls-11" d="M56.27011,17.81288c-.70552-.82888-5.29187-2.32305-5.29187-2.32305s-7.61715-2.469-14.64116,4.5622c3.59-2.68044,9.89873-1.55625,14.461-1.06127.60295.06628-1.30312-.50589-.80363-.67955,1.69468-.58978,3.2636,1.063,4.95293.74415C55.735,18.90687,56.20857,18.505,56.27011,17.81288Z" />
    <path class="cls-20" d="M50.42792,16.65261c-2.79712-.693-5.59334.32132-6.13208.35236.25331-.35823.66628-1.1846,2.73825-1.46984a19.02326,19.02326,0,0,1,1.931.005,4.8184,4.8184,0,0,1,2.24144.55958,6.01306,6.01306,0,0,0,2.10943.41444s4.28666.3037,2.86669,1.67119c-1.41818,1.36665-3.48926-1.76263-8.03279-.76177A3.01387,3.01387,0,0,1,50.42792,16.65261Z" />
    <path class="cls-21" d="M46.18764,10.98215c-1.76782-1.1007-4.85838-.15688-5.25975-.16191-.00892-.0386.01516-.08138.08741-.12417,2.69276-1.9581,6.6824-1.7836,8.42078-1.50339a.29764.29764,0,0,1,.05174.01426l.03121.0109c.3764.13591,1.60638.78778,2.05414.93124,2.62051,1.39685,6.76089,4.34659,7.12569,9.01954a16.90485,16.90485,0,0,1-3.38134-1.81968c-.2765-.19883-6.53969-6.35588-23.11636,1.042a.56693.56693,0,0,1-.198-.79532c3.74347-5.65787,10.57839-7.28292,21.46271-1.92455C51.92281,13.94113,51.17447,12.37313,46.18764,10.98215Z" />
    <path class="cls-22" d="M56.78387,42.78084c6.1401-5.90536,8.642-10.31739,5.67-15.06836-4.8129-7.69988-19.63512.33138-26.08116-7.43729a14.759,14.759,0,0,0,3.5401,2.90277c4.77811,2.93632,13.77152,1.99166,16.63732,4.26186C60.23656,30.35936,61.17845,36.24627,56.78387,42.78084Z" />
    <path class="cls-23" d="M36.78216,30.43822c-.00714.396.95616,2.68044.80542,3.20647-1.29331,4.49089-6.89825,6.694-6.89825,6.694s-6.27657,2.37591-7.27376,13.23526c-1.14525.77519-.98648-.875-.9508-1.60826C23.17743,37.72366,35.77427,39.316,36.78216,30.43822Z" />
    <path class="cls-24" d="M58.13694,53.97158a2.43093,2.43093,0,0,0-.31039-.13255c-.55033-.1443-1.10422-.27685-1.65544-.42451-.17393-.04614-.33983-.12081-.51019-.18205.00089-.03524.00268-.06963.00357-.104a3.9066,3.9066,0,0,1,.59135-.0948c.79115-.00839,1.58319.00168,2.37523.00335A11.93347,11.93347,0,0,0,61.95,52.72742a8.20164,8.20164,0,0,0,1.52164-.63005,23.03432,23.03432,0,0,0,10.86292-11.6572,20.18244,20.18244,0,0,0,1.04535-3.20478c.016-.06041.02319-.12333.04281-.2282-.08473.04866-.13914.07215-.19.1032a27.68908,27.68908,0,0,1-10.24034,4.03366,27.2292,27.2292,0,0,1-4.02175.39095.47871.47871,0,0,0-.297.104,25.13918,25.13918,0,0,1-6.98387,4.56305,26.63,26.63,0,0,1-6.455,1.93377c-2.86045.52267-5.728,1.01933-8.58936,1.537A82.72338,82.72338,0,0,0,28.24007,52.094a27.35549,27.35549,0,0,0-6.15081,2.68631,11.13018,11.13018,0,0,0-3.62037,3.33818c-.31753.4933-.5432,1.03946-.81613,1.55877a.98459.98459,0,0,1-.18017.26175,7.02828,7.02828,0,0,0-2.34936,6.32232,12.08572,12.08572,0,0,0,1.89715,5.05047c.11684.18373.21585.375.30683.53693.04727-.39682.08473-.84147.15073-1.28192a8.21563,8.21563,0,0,1,4.564-6.28456,17.93072,17.93072,0,0,1,4.85036-1.70391c1.8588-.38592,3.73365-.71059,5.60762-1.03023a57.636,57.636,0,0,0,6.77516-1.36581c.42991-.12668.85537-.2735,1.27725-.42451a6.30016,6.30016,0,0,0,1.52611-.77015,22.54069,22.54069,0,0,1,5.09743-2.5848c.04905-.01762.09722-.03776.14538-.05537.00267-.00671.00357-.01594.0107-.03524-.02943-.00251-.0553-.00587-.08206-.00587-2.02648.00168-4.05564.01174-6.08212.00168a42.01463,42.01463,0,0,0-5.41763.26427,33.88314,33.88314,0,0,0-7.24433,1.75676,52.2247,52.2247,0,0,0-7.92665,3.69053.67153.67153,0,0,1-.22923.09061c.04728-.03608.09187-.07635.13825-.1099a37.70448,37.70448,0,0,1,9.0059-4.86255,29.02522,29.02522,0,0,1,7.0472-1.60827,38.34818,38.34818,0,0,1,6.41393-.04614q2.77482.19,5.54964.37249a1.45282,1.45282,0,0,0,.48789-.052,39.00941,39.00941,0,0,1,5.59156-1.08392c1.11581-.15017,2.21736-.40186,3.32336-.60908a1.27529,1.27529,0,0,0,.21853-.07886Z" />
    <path class="cls-8" d="M24.07917,59.83835c7.24611-8.142,26.04638-3.87426,34.05777-5.86593a17.034,17.034,0,0,1-9.19856,2.26684S31.62675,54.4414,24.07917,59.83835Z" />
    <path class="cls-17" d="M79.48369,28.9407a4.96126,4.96126,0,0,0-.59224.10067,14.89832,14.89832,0,0,0-1.94532.6116,8.57006,8.57006,0,0,0-1.6269,1.02519c-.97845.74835-1.91231,1.54451-2.87739,2.30208a7.77088,7.77088,0,0,1-2.62854,1.46229,8.06536,8.06536,0,0,1-.99362.19715,7.20157,7.20157,0,0,0,2.78642-2.8432.86486.86486,0,0,0-.10436.01594A34.33628,34.33628,0,0,0,65.804,34.966a3.39509,3.39509,0,0,0-1.10957,1.24668c-.42456.83392-.9624,1.61833-1.45119,2.422-.0214.03607-.04459.07131-.10435.16779.42813-.08474.80274-.14095,1.17022-.229A21.95788,21.95788,0,0,0,68.73138,36.878a58.36411,58.36411,0,0,0,6.37825-3.66789.73958.73958,0,0,1,.20693-.10235.50943.50943,0,0,1-.05619.07131,25.96759,25.96759,0,0,1-8.3423,5.40115,15.96009,15.96009,0,0,1-4.2929,1.04533.27838.27838,0,0,0-.15876.05957c-.33091.37669-.65379.75757-1.01949,1.18292.90621-.18289,1.7598-.34313,2.608-.52854a38.3621,38.3621,0,0,0,6.92055-2.12674,16.30236,16.30236,0,0,0,4.52212-2.69889,13.10555,13.10555,0,0,0,3.7622-5.527A8.58037,8.58037,0,0,0,79.48369,28.9407Z" />
    <path class="cls-9" d="M38.43759,49.66442c.70374-.22232,1.5056-.4975,2.361-.80623,10.08426-2.95814,13.41654-5.42381,13.41654-5.42381L64.34483,36.3805a3.24747,3.24747,0,0,0,3.79787-.36662c-1.4601,1.64853-5.94031,2.93129-5.94031,2.93129a3.82857,3.82857,0,0,1-1.66792,2.30459c3.987-1.27436,10.68453-.90942,15.33152-4.84493-3.51423,9.34925-12.24185,2.22237-20.6769,8.03713-.974.54951-13.83932,3.64272-7.4459,3.43046,6.39252-.21141,10.60514,3.89189,15.94517,2.547-5.01269,1.70978-9.44205-1.03023-16.42415-1.49081a6.11535,6.11535,0,0,1,3.2092,1.537c-2.53132-1.69972-7.48515-1.77774-8.66161-1.3893A32.47835,32.47835,0,0,0,38.43759,49.66442Z" />
    <path class="cls-6" d="M62.62517,52.54789c-7.34689,2.745-33.31389-5.20652-44.97241,7.12939,0,0-.87321-.36746,3.76933-5.26273C39.67828,46.20627,53.26517,53.96823,62.62517,52.54789Z" />
    <path class="cls-25" d="M73.9849,41.613c2.17365-1.15019.40761,1.66112-1.76515,3.3214-8.55725,5.621-12.42737-.77519-20.91416,2.30292C64.29131,40.50477,65.56322,48.8951,73.9849,41.613Z" />
    <path class="cls-13" d="M73.3204,43.20871c2.17455-1.1502,1.07211.06543-1.10065,1.72655-8.55725,5.621-12.42737-.77519-20.91416,2.30292C59.66037,42.86558,64.89961,50.49,73.3204,43.20871Z" />
    <path class="cls-26" d="M31.07286,40.19436c-3.95842,3.40781-.85447,10.87026-.85447,10.87026l-2.81764.568S24.55725,44.41847,31.07286,40.19436Z" />
    <path class="cls-27" d="M37.90511,34.47776c2.98353,4.99427-4.92885,11.86442-.67966,14.29654-.06779.328-2.42964,1.44215-2.319,1.12-5.2437-7.56816,3.40453-9.37274,2.26909-14.10441-6.06429,7.78125-6.1294,9.32156-3.18333,14.24787-.03656.02685-.36034.42451-.68233.198C28.703,46.98649,27.4061,43.33623,37.90511,34.47776Z" />
    <path class="cls-13" d="M47.65488,44.62737c.18909,2.339,1.9257-1.46061,2.18882-4.08317.22655-9.814-10.35273-7.44064-10.83616-15.38045C37.97825,34.19588,49.42627,33.99788,47.65488,44.62737Z" />
    <path class="cls-14" d="M57.91217,40.73464c.18731,2.339,5.18038-3.6813,5.44439-6.303-1.67506-16.83855-20.10072-6.5975-24.91807-12.80068C42.41742,28.42558,68.17214,18.97147,57.91217,40.73464Z" />
    <path class="cls-28" d="M91.62565,73.52161c-.27026.22317-.49235.42619-.73674.60237a4.0191,4.0191,0,0,1-.63239.36746,1.80217,1.80217,0,0,1-1.626.005A4.76678,4.76678,0,0,0,85.944,74.1374a.66455.66455,0,0,0-.57084.38508,7.8,7.8,0,0,1-4.42223,3.688.47545.47545,0,0,0-.36569.40857,4.03945,4.03945,0,0,0,.00446,1.7081,3.44243,3.44243,0,0,0,1.65276,2.073,9.22952,9.22952,0,0,0,2.78463,1.07134,15.651,15.651,0,0,0,3.59362.45639,6.68629,6.68629,0,0,0,1.82847-.23826,3.24872,3.24872,0,0,0,2.4555-2.4791,19.99314,19.99314,0,0,0,.46916-2.48581A6.28855,6.28855,0,0,0,91.689,73.62061.954.954,0,0,1,91.62565,73.52161Z" />
    <path class="cls-29" d="M87.77783,73.6634c.10078.57468,1.24782.73072,1.7803.71394a2.97044,2.97044,0,0,0,2.15314-1.21144,2.151,2.151,0,0,0,.24172-.32635,3.21847,3.21847,0,0,1,1.49132,2.97407c-.289,1.938-2.82655,3.20227-5.66559,2.82726a5.73545,5.73545,0,0,1-4.25633-2.45644c.51911-.62418.72247-1.417,1.40659-1.95727A4.89774,4.89774,0,0,1,87.77783,73.6634Z" />
    <path class="cls-30" d="M18.74182,55.44058a1.87733,1.87733,0,0,0,1.42353.21813,26.28359,26.28359,0,0,1-.58957-6.34078,15.96157,15.96157,0,0,1,1.61976-6.79716,5.3783,5.3783,0,0,1,.48967-.78861.906.906,0,0,1-.03567.12332,13.04216,13.04216,0,0,0-.95438,4.35163,23.74614,23.74614,0,0,0,.68769,6.90036c.01248.05537.03032.10906.05441.1896.35053-.22148.69214-.4329,1.02483-.65522.04014-.02768.041-.1292.03211-.1938a17.46233,17.46233,0,0,1,0-4.13937,22.28154,22.28154,0,0,1,1.48151-5.72247,30.732,30.732,0,0,1,4.12254-7.22587c.03924-.052.07938-.104.11684-.15688a.32236.32236,0,0,0,.01873-.0688c-.248.08222-.47986.15688-.71176.23575a38.106,38.106,0,0,0-4.57743,1.86414,3.26543,3.26543,0,0,0-.64933.41612,11.27351,11.27351,0,0,0-3.85853,6.46075c-.083.37752-.14181.76176-.25331,1.141.025-.42115.03657-.844.07582-1.26514a22.30615,22.30615,0,0,1,1.30223-5.87012,2.45023,2.45023,0,0,0-.0223-1.37085,1.57537,1.57537,0,0,0-.1998-.40521,2.00646,2.00646,0,0,0-.33983.31712,10.91356,10.91356,0,0,0-1.2826,2.84824,30.59019,30.59019,0,0,0-.9963,4.65952,29.23919,29.23919,0,0,0-.34964,4.42881A12.73974,12.73974,0,0,0,17.032,53.016a5.90939,5.90939,0,0,0,1.08192,1.87757c.17482.19967.38978.37.58511.55455C18.71417,55.44478,18.72755,55.4431,18.74182,55.44058Z" />
    <path class="cls-6" d="M25.97544,35.18835s-3.96556.52435-5.63795,3.08985c-1.67327,2.56383-2.154,6.97335-2.154,6.97335s-.85626,6.57652,1.98189,10.40632C18.3672,41.61386,25.97544,35.18835,25.97544,35.18835Z" />
    <path class="cls-31" d="M18.74182,55.44058c-.01427.00252-.02765.0042-.04192.00588a4.51105,4.51105,0,0,1-1.97921-1.46816,7.46123,7.46123,0,0,1-1.40748-3.19137,17.15134,17.15134,0,0,1-.24172-5.16708c.08919-.98745.2435-1.97153.37016-2.95394.00446-.03524.00535-.06964.00892-.14095-.06422.052-.10971.08138-.14628.11746A28.51445,28.51445,0,0,0,8.49791,52.87a.54874.54874,0,0,0,.00713.34229,31.7303,31.7303,0,0,0,3.76042,7.56145c.66717,1.00171,1.403,1.96314,2.10854,2.9422.0553.07718.11951.14681.2212.271.025-.49247.30415-.891.08919-1.37336a4.18427,4.18427,0,0,1-.41653-1.943,1.20192,1.20192,0,0,1,.264-.71982,3.12022,3.12022,0,0,0,.73852,1.35071.64475.64475,0,0,0,.06868-.59481,6.19576,6.19576,0,0,1-.4308-2.47994,3.70932,3.70932,0,0,1,.15608-.78274,5.18978,5.18978,0,0,0,1.13544,1.67119.85238.85238,0,0,0,.06779-.094,14.63112,14.63112,0,0,1,2.41447-3.3751C18.72576,55.59747,18.72309,55.50938,18.74182,55.44058Z" />
    <path class="cls-6" d="M15.67355,58.72926s-4.45969-8.20911-2.37256-15.2588c.25956-.193-.41832.30454-1.22552,1.17788-.12309.13256-1.61887,9.44154,1.4164,13.54568-4.07973-4.55214-2.14779-12.68575-2.31993-12.44833a7.07076,7.07076,0,0,0-.908,1.651C8.1777,56.58827,15.38813,62.1203,15.38813,62.1203Z" />
    <path class="cls-2" d="M83.92109,88.2846c-.18464.26343-.39781.52854-.56728.82049a1.01317,1.01317,0,0,0-.08384.8658.652.652,0,0,0,.79828.45723,8.86075,8.86075,0,0,1,.9847-.104c.34964-.01091.37461.03355.41386.35319a.871.871,0,0,0,1.62333.45975,1.28089,1.28089,0,0,0-.95705-2.0462,6.8966,6.8966,0,0,0-1.00968.01762c-.06511.00252-.12933.01342-.19444.01846-.01605-.01762-.03211-.03775-.04905-.05538.091-.09983.16144-.23238.2756-.29531a1.34483,1.34483,0,0,1,.79918-.14933,7.42826,7.42826,0,0,0,5.09118-1.03107,6.15383,6.15383,0,0,0,1.97029-2.18462c.00268-.00588.00892-.01175.0116-.01762.06065-.15772.18463-.34984.01962-.46981a.6373.6373,0,0,0-.46113.005c-.67877.20974-1.33791.47569-2.0247.65186a10.20838,10.20838,0,0,1-3.07719.21394,14.3557,14.3557,0,0,1-4.086-.745,11.98644,11.98644,0,0,1-3.96823-2.27271,3.378,3.378,0,0,0-.41653-.32719c-.25242-.15772-.42457-.0797-.43438.20722a2.25135,2.25135,0,0,0,.06333.61159,6.50155,6.50155,0,0,0,3.73544,4.3961C82.88376,87.91379,83.42785,88.08913,83.92109,88.2846Z" />
    <path class="cls-32" d="M7.16446,50.54112a26.03388,26.03388,0,0,0,7.6332,19.05673c-.07313-.49666-.17036-.99332-.21495-1.48913-.074-.8465-.12131-1.69552-.165-2.54621a.76731.76731,0,0,0-.15877-.448,53.67218,53.67218,0,0,1-5.167-8.3207,19.73106,19.73106,0,0,1-1.675-4.63268C7.309,51.63931,7.251,51.10993,7.16446,50.54112Z" />
    <path class="cls-33" d="M70.78016,26.48258a14.648,14.648,0,0,0,2.237-4.699,3.497,3.497,0,0,0,.02052-.891,11.95051,11.95051,0,0,1,.6529-4.86,1.24052,1.24052,0,0,0,.10881-.43038.58472.58472,0,0,0-.15163-.34817c-.107-.11829-.25242-.07634-.38977-.00251a2.72662,2.72662,0,0,0-1.015.97821,7.60726,7.60726,0,0,0-.99183,2.60578,30.16182,30.16182,0,0,0-.50663,7.55641A.61061.61061,0,0,0,70.78016,26.48258Z" />
    <path class="cls-34" d="M71.3296,16.81453a6.04864,6.04864,0,0,1,1.147-1.2945l.6306-.37837a11.93076,11.93076,0,0,0-.86072,4.68637c0,1.36413.44686,2.631.51732,3.98837a3.867,3.867,0,0,1-1.07835,2.59067c-.27829.40941-.65825,1.29618-1.263,1.29953a5.696,5.696,0,0,1-.24171-2.14939c-.008-.828-.14895-1.636-.11417-2.47238A32.381,32.381,0,0,1,71.3296,16.81453Z" />
    <path class="cls-2" d="M93.04115,82.20642c-.02675.02013-.03567.02349-.03835.02852a3.85263,3.85263,0,0,1-3.37866,2.02187,14.4871,14.4871,0,0,1-6.98477-1.19215,4.14238,4.14238,0,0,1-2.18257-1.89435,9.95277,9.95277,0,0,1-.43437-1.25339,1.17077,1.17077,0,0,0-1.09708.93208.96458.96458,0,0,0,.13379.48155,4.43465,4.43465,0,0,0,1.33344,1.45306,11.99729,11.99729,0,0,0,4.66662,2.0957,13.34546,13.34546,0,0,0,6.7163-.10655,8.88175,8.88175,0,0,0,1.51361-.64683.86845.86845,0,0,0,.51465-.93962A1.1869,1.1869,0,0,0,93.04115,82.20642Z" />
    <path class="cls-35" d="M93.04115,82.20642c-.02675.02013-.03567.02349-.03835.02852a3.85263,3.85263,0,0,1-3.37866,2.02187,14.4871,14.4871,0,0,1-6.98477-1.19215,4.14238,4.14238,0,0,1-2.18257-1.89435,9.95277,9.95277,0,0,1-.43437-1.25339,1.17077,1.17077,0,0,0-1.09708.93208.96458.96458,0,0,0,.13379.48155,4.43465,4.43465,0,0,0,1.33344,1.45306,11.99729,11.99729,0,0,0,4.66662,2.0957,13.34546,13.34546,0,0,0,6.7163-.10655,8.88175,8.88175,0,0,0,1.51361-.64683.86845.86845,0,0,0,.51465-.93962A1.1869,1.1869,0,0,0,93.04115,82.20642Z" />
    <path class="cls-36" d="M68.60116,61.15634a4.78678,4.78678,0,0,0,.54051,2.32221,6.575,6.575,0,0,0,3.58292,3.05965,10.0399,10.0399,0,0,0,4.28665.66529.57857.57857,0,0,0,.10079-.02685,13.94129,13.94129,0,0,1-2.93091-.74247,9.89093,9.89093,0,0,1-4.14305-2.75511,7.29945,7.29945,0,0,1-1.345-2.29452C68.66627,61.30735,68.63238,61.23185,68.60116,61.15634Z" />
    <path class="cls-36" d="M80.69227,49.427a2.93972,2.93972,0,0,0,.91691-4.29458A6.12537,6.12537,0,0,1,80.69227,49.427Z" />
    <path class="cls-36" d="M83.32081,57.86515a4.15243,4.15243,0,0,0,2.69544.75086c.39067-.00923.77955-.06964,1.17022-.08725a2.64523,2.64523,0,0,1,.64041.04614c.39424.08473.56995.02768.70464-.328a5.29024,5.29024,0,0,0,.34607-2.50846,4.09346,4.09346,0,0,0-.314-1.20892,3.1552,3.1552,0,0,0-4.267-1.29366,3.97217,3.97217,0,0,0-.55746.36326c-.18552.14178-.35321.30622-.54586.47568.08562.09313.157.1829.23725.26092a.62555.62555,0,0,1,.198.625,1.35012,1.35012,0,0,0,.82594,1.60911,9.54992,9.54992,0,0,0,1.49934.57636,6.71453,6.71453,0,0,0,.81256.19715.26691.26691,0,0,0,.18641-.06544,2.12161,2.12161,0,0,0,.88748-1.00758,1.79606,1.79606,0,0,1-.008.98745,1.36613,1.36613,0,0,0,.08562.80371.24375.24375,0,0,0-.0214.02517c-.04906-.02181-.09722-.0453-.1436-.07131a4.37052,4.37052,0,0,0-1.72055-.47149,4.9132,4.9132,0,0,1-2.1032-.6527,2.44481,2.44481,0,0,1-1.2166-2.02942c-.00178-.02685-.00624-.052-.016-.12333A2.18588,2.18588,0,0,0,83.32081,57.86515Z" />
    <path class="cls-37" d="M84.33138,55.13269a1.52224,1.52224,0,1,0,1.51808-1.42957A1.47643,1.47643,0,0,0,84.33138,55.13269Z" />
    <g class="cls-38">
        <path class="cls-11" d="M84.83069,54.89451a.18822.18822,0,0,0,.09511-.02566l.35891-.211a.16691.16691,0,0,0,.08435-.14314v-.422a.16669.16669,0,0,0-.08435-.14314l-.35891-.211a.18918.18918,0,0,0-.19023,0l-.35891.211a.16671.16671,0,0,0-.08435.14314v.422a.16693.16693,0,0,0,.08435.14314l.35891.211A.18826.18826,0,0,0,84.83069,54.89451Z" />
    </g>
    <path class="cls-11" d="M91.12527,79.21976a.6396.6396,0,0,0,.84556-.18793,3.73007,3.73007,0,0,0-.04549-3.66285c-.36391-.66109-1.45386-.12752-1.09084.53106a2.636,2.636,0,0,1,.09009,2.52859A.56432.56432,0,0,0,91.12527,79.21976Z" />
    <path class="cls-3" d="M25.13523,82.55793c-.38353-10.335,6.39073-6.97334,9.4046-11.33672a3.19488,3.19488,0,0,0,.50216-.81378C31.65887,72.15916,22.17667,70.98883,25.13523,82.55793Z" />
    <path class="cls-6" d="M19.97626,62.40973c9.30381-7.53376,27.67238-6.71159,29.01653-6.605-7.70456,5.16876-30.81824.30957-31.66558,16.04238A8.165,8.165,0,0,1,19.97626,62.40973Z" />
    <path class="cls-3" d="M34.84754,70.81768s-.00089,2.28362,0,3.89692c.00089,1.61246-2.15492.73324-2.98621-1.48074A5.94242,5.94242,0,0,0,34.84754,70.81768Z" />
    <path class="cls-3" d="M33.69516,71.58364a4.06977,4.06977,0,0,0-.29166-4.9196c.88569-.04362,2.58662-1.60574,2.99156-2.12589a5.29287,5.29287,0,0,0,.72514-2.96485c1.25674-.05285,2.14065-.77687,3.28412-1.03358a12.16285,12.16285,0,0,0-2.88185,3.02441,27.36537,27.36537,0,0,0-2.0577,5.99932,8.97872,8.97872,0,0,0-.48433,2.27859s-.16055,6.0161,1.12206,8.98682a7.72868,7.72868,0,0,1-4.14483-3.36334c-.50038-.8163-1.44316-2.84572-.27561-4.13854A4.34707,4.34707,0,0,0,33.69516,71.58364Z" />
    <path class="cls-36"
    d="M10.94628,79.39845A32.7025,32.7025,0,0,0,30.50381,91.57664a37.8982,37.8982,0,0,0,8.23883.74163c6.79478-.02769,13.58868-.01175,20.38257-.01259q6.85544-.0025,13.71-.0109a10.27727,10.27727,0,0,0,3.21187-.41025A3.51515,3.51515,0,0,0,78.293,90.012a3.32169,3.32169,0,0,0-1.26388-4.037,5.32777,5.32777,0,0,0-3.34031-.83139c-.32288.0151-.64576.06208-.96775.09312a.74757.74757,0,0,1-.22387.00839,2.32386,2.32386,0,0,1-.30148-.10487,1.04793,1.04793,0,0,1,.173-.23239A7.08841,7.08841,0,0,0,74.876,81.20219a4.51679,4.51679,0,0,0,.13914-1.64518c-.00357-.04362-.00714-.08641-.00892-.12752-.0116-.28692.09187-.37585.39334-.38927.88838-.03859,1.77675-.07131,2.66244-.13675.42367-.03188.842-.1292,1.31918-.15772-.0562.06879-.09723.17031-.17126.20219a2.44582,2.44582,0,0,0-1.403,1.50591,6.78282,6.78282,0,0,0-.42367,2.485,5.738,5.738,0,0,0,1.5609,3.61671,9.05912,9.05912,0,0,0,3.029,2.18378c.14984.0688.18909.1292.13736.2886a1.99555,1.99555,0,0,0,.03835,1.3591,1.12675,1.12675,0,0,0,.55924.61663,2.35408,2.35408,0,0,0,1.98367.10319c.01873.08977.03479.19128.05887.27853.19266.68794.66449.96144,1.37715,1.36413h.4977c.02052,0,.03925-.04949.05976-.05285a1.943,1.943,0,0,0,1.63671-2.29956c-.03746-.26343-.11863-.52267-.173-.76009.56817-.14094,1.15417-.25,1.71342-.43373a7.16639,7.16639,0,0,0,5.00912-4.98168,2.3929,2.3929,0,0,0-.71444-2.636.31454.31454,0,0,1-.0437-.24581c.15965-.94382.40761-1.88092.47272-2.83062a7.257,7.257,0,0,0-2.26373-5.876.27414.27414,0,0,1-.0785-.297c.10971-.505.23548-1.00926.30148-1.52018a3.07144,3.07144,0,0,0-1.01235-2.62927.69919.69919,0,0,1-.16679-.2198,2.15209,2.15209,0,0,0-1.1836-1.22654,5.94558,5.94558,0,0,0-3.54367-.44884,9.05573,9.05573,0,0,0-2.26553.76932.78844.78844,0,0,1-.91156-.03021c-.04994-.0411-.12933-.05117-.1766-.08976-.08206-.073-.22031-.17451-.20425-.23575a.41607.41607,0,0,1,.2426-.2391,5.022,5.022,0,0,1,1.76247-.323,12.33524,12.33524,0,0,0,1.37626-.06293,10.648,10.648,0,0,0,4.03156-1.35909.80931.80931,0,0,1,.26937-.10152,3.74959,3.74959,0,0,0,3.19492-2.938,1.179,1.179,0,0,1,.10882-.44967,3.26947,3.26947,0,0,0,.34429-3.13851c-.25064-.6871-.59849-1.34568-.8741-2.02439a4.22321,4.22321,0,0,1-.33449-1.12,16.5909,16.5909,0,0,0-.55835-3.18213A11.05328,11.05328,0,0,0,88.94448,46.114a12.16135,12.16135,0,0,0-6.57269-2.57054.44649.44649,0,0,1-.42634-.28776,4.346,4.346,0,0,0-2.691-2.36752,1.35074,1.35074,0,0,0-.96954-.00084,8.26344,8.26344,0,0,0-1.28974.64683,9.19551,9.19551,0,0,0-2.542,2.56719c-.05263.0755-.11239.1745-.19177.19967a.47661.47661,0,0,1-.347-.00923c-.06333-.04027-.0776-.203-.05263-.29783a1.01759,1.01759,0,0,1,.19088-.30873A19.24829,19.24829,0,0,0,77.53838,35.576a.53884.53884,0,0,1,.16144-.26176c.44329-.42534.90264-.83559,1.34237-1.26429a4.99626,4.99626,0,0,0,1.36645-2.43044,4.35254,4.35254,0,0,0,.10614-.73408c.00535-.07467-.07225-.15353-.11149-.23071-.08474.04614-.19534.07383-.24707.14011-.12041.15436-.20514.33138-.31575.49078-.07314.10571-.16857.19548-.25509.297a.13722.13722,0,0,1-.00713-.12417,13.67783,13.67783,0,0,0,.96061-3.50932,9.70793,9.70793,0,0,0,.08385-1.01681c.00713-.24665-.1668-.40269-.34251-.33642a.81219.81219,0,0,0-.24706.17786,11.32437,11.32437,0,0,1-2.38059,1.59988c-.01873-.02433-.033-.03524-.03389-.04782-.02319-.11913-.04638-.23659-.06511-.35572a26.10057,26.10057,0,0,0-1.07122-4.10246,6.35786,6.35786,0,0,1-.35053-3.16367,2.38044,2.38044,0,0,1,.9401-1.64183.95144.95144,0,0,0,.12487-.13591.79082.79082,0,0,0-.157-.07382,1.80746,1.80746,0,0,0-2.18346.83643c-.05352.10151-.12487.193-.223.34565a2.47148,2.47148,0,0,1-.24528-.47317,6.67119,6.67119,0,0,1-.13736-2.17791,7.048,7.048,0,0,1,.84823-2.5395A4.16147,4.16147,0,0,0,75.379,14.197c.124-.40186-.11417-.69885-.561-.69214a2.13144,2.13144,0,0,0-.66092.10991,4.48958,4.48958,0,0,0-2.49386,2.05207c-.04549.0797-.08652.15856-.13647.2542a3.67846,3.67846,0,0,1-1.05338-1.33561,7.85782,7.85782,0,0,0-.49413-1c-.132-.23155-.23012-.22651-.39067-.01594-.0437.057-.08206.11913-.12933.17367-.12309.1401-.21853.14094-.31575-.01762a2.709,2.709,0,0,1-.21049-.443,4.1339,4.1339,0,0,0-1.40213-1.81968c-.04371-.031-.09365-.05537-.19623-.11493.03746.23071.06868.4094.09366.58894.02676.18373.04905.36746.074.56125a.34817.34817,0,0,1-.08741-.01174c-.06333-.03775-.12666-.07718-.1882-.11829A25.86921,25.86921,0,0,0,58.6846,8.80676a9.10939,9.10939,0,0,1-2.77215-.78526.52509.52509,0,0,0-.06332-.02684.365.365,0,0,0-.421.0948.53611.53611,0,0,1-.34875.1099c-.37729-.00839-.75279-.08641-1.1283-.11578A6.95447,6.95447,0,0,1,52.92,7.90489c-.56727-.13507-1.11938-.65438-1.67773-.65438h-.40762c-.13022,0-.28453.35235-.38978.47568a1.12887,1.12887,0,0,1-.70106.48911,33.38985,33.38985,0,0,0-5.68967.81294,23.447,23.447,0,0,0-7.91774,3.31637,14.03448,14.03448,0,0,0-4.31787,4.37763,10.68882,10.68882,0,0,0-.56192,1.1351,1.21519,1.21519,0,0,0-.05352.917.498.498,0,0,0,.57.35488,5.63232,5.63232,0,0,1,4.11184,1.141,7.053,7.053,0,0,1,2.66868,3.22911A4.69752,4.69752,0,0,1,37.444,28.78885c-.14807.15772-.31575.30034-.49592.47149-.06779-.2391-.124-.45639-.19088-.67368a7.00143,7.00143,0,0,0-1.61173-2.89018c-.46827-.48407-.65379.08893-.53605.96563a5.42113,5.42113,0,0,1-1.73482,4.81473.85193.85193,0,0,1-.32913.17366c-1.45386.48492-2.91753.94466-4.36336,1.45055a45.57017,45.57017,0,0,0-7.4352,3.32643c-.03211.01762-.066.0344-.10078.052a.6001.6001,0,0,1-.30594-.56546c.01249-.302.06512-.604.10258-.90522.00357-.03608.016-.06964.01962-.10487.0767-.53273-.14449-.7064-.66628-.46814a2.18544,2.18544,0,0,0-.68947.52938A8.54342,8.54342,0,0,0,17.775,37.248c-.18909.42451-.33894.86412-.52981,1.28779a1.14731,1.14731,0,0,1-.31486.41947,34.81094,34.81094,0,0,0-5.56569,5.423,29.78315,29.78315,0,0,0-3.52316,5.558c-.02408.052-.05173.10235-.07849.15269-.00713.01174-.0214.01762-.05173.04362a18.15819,18.15819,0,0,1-.19177-5.19477c-.14717.51679-.31039,1.03107-.43883,1.55206A20.1438,20.1438,0,0,0,6.549,52.8692a.87593.87593,0,0,1-.05708.33223,27.82712,27.82712,0,0,0,4.45433,26.197ZM9.09194,56.79381a53.67218,53.67218,0,0,0,5.167,8.3207.77767.77767,0,0,1,.15876.448c.04371.85069.091,1.69887.165,2.54621.0446.49833.14182.995.215,1.48913a26.03384,26.03384,0,0,1-7.6332-19.05673c.08741.568.14449,1.09819.25242,1.61833A19.74342,19.74342,0,0,0,9.09194,56.79381ZM28.23382,35.133a.32236.32236,0,0,1-.01873.0688c-.03746.052-.0776.104-.11684.15688a30.749,30.749,0,0,0-4.12254,7.22587A22.29925,22.29925,0,0,0,22.4942,48.307a17.46242,17.46242,0,0,0,0,4.13938c.00892.06459.008.16611-.03211.19379-.33269.224-.67519.43542-1.02483.65522-.0232-.0797-.04193-.13255-.05441-.1896a23.67922,23.67922,0,0,1-.68769-6.90036,13.07756,13.07756,0,0,1,.95438-4.35162,1.06993,1.06993,0,0,0,.03567-.12333,5.51468,5.51468,0,0,0-.48967.78861,15.95148,15.95148,0,0,0-1.61976,6.79717,26.28748,26.28748,0,0,0,.58957,6.34077,1.88163,1.88163,0,0,1-1.42353-.21812c-.01873.06963-.017.15772-.05977.2047a14.70369,14.70369,0,0,0-2.41447,3.37509.894.894,0,0,1-.06779.094,5.2355,5.2355,0,0,1-1.13544-1.67119,3.67812,3.67812,0,0,0-.15608.78274,6.19063,6.19063,0,0,0,.4308,2.47993.64477.64477,0,0,1-.06868.59482,3.1156,3.1156,0,0,1-.73852-1.35071,1.20571,1.20571,0,0,0-.264.71982,4.18425,4.18425,0,0,0,.41653,1.943c.215.48072-.06333.8809-.08919,1.37336-.10168-.12416-.1668-.19295-.2212-.271-.70553-.97905-1.44138-1.93965-2.10854-2.94219A31.71506,31.71506,0,0,1,8.505,53.20982a.54874.54874,0,0,1-.00713-.34229A28.51741,28.51741,0,0,1,15.30429,42.6399c.03657-.03607.08206-.06544.14628-.11745-.00357.07047-.00446.10571-.00892.14094-.12665.98409-.281,1.96818-.37015,2.95394a17.15014,17.15014,0,0,0,.24171,5.16709,7.47664,7.47664,0,0,0,1.40748,3.19136,4.51487,4.51487,0,0,0,1.9801,1.46816c-.19712-.18457-.41118-.354-.586-.55454a5.91813,5.91813,0,0,1-1.08192-1.87757,12.70984,12.70984,0,0,1-.66093-4.42126,29.00183,29.00183,0,0,1,.34964-4.42882,30.65635,30.65635,0,0,1,.99629-4.65952A10.88467,10.88467,0,0,1,19.00048,36.654a2.07546,2.07546,0,0,1,.33983-.31712,1.63449,1.63449,0,0,1,.19979.40521,2.44241,2.44241,0,0,1,.0223,1.37084,22.30662,22.30662,0,0,0-1.30223,5.87013c-.03924.42115-.05084.844-.07581,1.26513.11149-.3792.17036-.76344.25331-1.141a11.27347,11.27347,0,0,1,3.85852-6.46075,3.26612,3.26612,0,0,1,.64933-.41611A38.38537,38.38537,0,0,1,27.523,35.36621C27.754,35.28986,27.985,35.21436,28.23382,35.133ZM73.80027,15.60309a1.24076,1.24076,0,0,1-.10882.43038,11.92206,11.92206,0,0,0-.6529,4.86,3.4961,3.4961,0,0,1-.02052.891,14.65637,14.65637,0,0,1-2.237,4.699.639.639,0,0,1-.03478-.08725,30.25357,30.25357,0,0,1,.50662-7.55642,7.61216,7.61216,0,0,1,.99184-2.60577,2.73962,2.73962,0,0,1,1.015-.97822c.13647-.073.28185-.11577.38978.00252A.57658.57658,0,0,1,73.80027,15.60309Zm1.114,13.43828a10.16542,10.16542,0,0,1-1.3397.78358,50.66276,50.66276,0,0,1-5.1108,1.92874,4.60476,4.60476,0,0,0-2.38058,1.9061c-.18374.26343-.35589.53525-.53428.80287a1.04891,1.04891,0,0,1,.058-.25c.20336-.651.43527-1.297.59849-1.9581a7.71827,7.71827,0,0,1,1.13365-2.5739c.29524-.427.62436-.83559.91246-1.26933a5.26545,5.26545,0,0,0,.46737-.8658,2.52076,2.52076,0,0,0,.09722-.58474c-.03032-.01427-.05976-.02853-.09187-.04195a2.32127,2.32127,0,0,0-.272.219c-.31664.34145-.62079.69464-.94545,1.03023a.3878.3878,0,0,1-.30683.1208.323.323,0,0,1-.14538-.27685,4.8862,4.8862,0,0,1,.18641-1.1007c.16947-.48072.437-.93124.63506-1.40692a2.51588,2.51588,0,0,0,.18285-.7366c.0107-.11745-.1106-.245-.17036-.36662a1.86213,1.86213,0,0,0-.31575.2089c-.1552.15353-.27918.33306-.43883.48407-.15788.14682-.30415.12249-.39513-.06459A.775.775,0,0,1,66.63,24.605a9.69376,9.69376,0,0,1,.24083-.98912c.08384-.29867.20246-.594.26758-.89516a.50519.50519,0,0,0-.23815-.55958,1.648,1.648,0,0,0-.17393.25c-.08919.17953-.15966.36746-.24261.547-.19176.41444-.36034.84314-.58689,1.24081-.1998.34984-.39691.3188-.61187-.021-.41564-.66444-.82683-1.33392-1.29153-1.96817a2.18794,2.18794,0,0,1-.44418-1.11412c-.05173-.542-.08028-1.089-.14093-1.63176a.83216.83216,0,0,0-.31664-.604c-.04994.229-.09187.41695-.13111.60572-.05887.27685-.099.55874-.18017.82972-.05619.19128-.21942.21057-.3211.04027a1.217,1.217,0,0,1-.16768-.51512c-.025-.33222.00713-.66612-.0116-.99919a1.348,1.348,0,0,0-.12576-.44632c-.02587-.06124-.11239-.10235-.17125-.15269a.91675.91675,0,0,0-.11417.18709,1.451,1.451,0,0,0-.04371.25084c-.03835.245-.05976.49582-.1213.73408-.06511.25924-.23815.30286-.4094.09313a2.128,2.128,0,0,1-.35945-.64935c-.12041-.35739-.17125-.73156-.28631-1.09231a1.55156,1.55156,0,0,0-.29167-.46645.27961.27961,0,0,0-.23636-.06628c-.05084.01258-.10079.12249-.10347.19128-.00624.27518.00536.552.00982.828.00089.13675,0,.2735,0,.42116a.60474.60474,0,0,1-.10525-.02182.56272.56272,0,0,1-.10258-.08305,1.89254,1.89254,0,0,1-.56727-1.06631c-.02765-.18373-.03746-.36746-.074-.54783-.0446-.2131-.18017-.29447-.41029-.26763a.46534.46534,0,0,0-.41921.48072c-.01695.18793-.00357.37585-.00357.5923-.27472-.13255-.51911-.2542-.76707-.36913a25.45378,25.45378,0,0,0-8.01941-2.2207,18.20637,18.20637,0,0,0-5.42477.13926,7.51724,7.51724,0,0,0-3.021,1.18041c-.132.09228-.25331.19967-.38.30034a7.26735,7.26735,0,0,1,2.48851-.92787,15.64743,15.64743,0,0,1,4.92974-.02853,25.30927,25.30927,0,0,1,8.18532,2.56886,17.373,17.373,0,0,1,5.23835,3.92629c.10971.12248.21317.25084.31574.37668-2.97461-1.33644-6.33454,1.17789-9.69536.06209,4.606,2.23328,7.33351-.64347,9.93084,1.21815.66092.47317.77866,1.69384-.73228,1.48914-1.44138-.1938,2.171.47736,2.81852,4.00849A10.7215,10.7215,0,0,1,63.9497,31.226a16.69422,16.69422,0,0,1-3.7283,7.079,20.43033,20.43033,0,0,1-6.79033,5.02362.89405.89405,0,0,0-.13022.0411.28584.28584,0,0,1,.0116-.052c.03657-.05453.074-.10823.11149-.16108a16.36908,16.36908,0,0,0,2.773-5.65955,7.4865,7.4865,0,0,0-.09276-4.2434,7.40356,7.40356,0,0,0-2.98888-3.71823,17.066,17.066,0,0,0-5.15719-2.25509c-.39245-.1099-.792-.20722-1.23622-.32216.04994.05034.0553.06376.06778.068.07582.0302.15342.05788.231.08641a15.56965,15.56965,0,0,1,3.61234,1.82471,8.0156,8.0156,0,0,1,3.30018,4.34576,8.93582,8.93582,0,0,1-.05352,4.83654,18.953,18.953,0,0,1-2.75431,5.76778,1.86978,1.86978,0,0,1-1.10332.82552c-.60206.16695-1.19074.38424-1.84186.60069a6.60161,6.60161,0,0,0,1.54038-6.01443.42728.42728,0,0,0-.01516.06292,6.28256,6.28256,0,0,1-1.26031,3.40782,12.3428,12.3428,0,0,1-4.309,3.56469,2.38621,2.38621,0,0,1-.43884.13759,6.102,6.102,0,0,0,1.35932-2.2207,5.08432,5.08432,0,0,0,.18284-2.516,5.79642,5.79642,0,0,1-1.19519,2.19805A16.35185,16.35185,0,0,1,40.291,47.24825a15.02913,15.02913,0,0,1-3.06559,1.52688,51.27738,51.27738,0,0,1-5.92693,1.5789c-1.75355.40354-3.50532.82218-5.24549,1.2794A7.726,7.726,0,0,0,23.4013,52.834a6.92611,6.92611,0,0,1-.41564-2.16785C22.8706,40.89572,31.13619,35.67327,33.655,32.94a8.12021,8.12021,0,0,0,1.52254-2.75847c.14985-.40017.27829-.80623.41921-1.2215a.65989.65989,0,0,1,.05887.07047,5.52411,5.52411,0,0,1,.79828,4.04038,10.62578,10.62578,0,0,1-3.29482,5.855c-.01962.01762-.03567.04027-.09811.10739.0883-.04279.11952-.0537.149-.07215a15.93672,15.93672,0,0,0,4.00927-2.98163,10.89265,10.89265,0,0,0,3.12356-7.147,20.55154,20.55154,0,0,0-.25331-3.5412,7.65338,7.65338,0,0,0-6.07053-6.40873,3.2887,3.2887,0,0,1-.71622-.24581.5248.5248,0,0,1-.281-.724,1.63731,1.63731,0,0,1,.17392-.32047,7.05053,7.05053,0,0,1,2.22-2.09067c.4647-.27769.9294-.55454,1.37715-.85572a19.374,19.374,0,0,1,5.99739-2.75679,8.29439,8.29439,0,0,1,2.76055-.35991c.297.02265.586.12584.88123.15856a1.10347,1.10347,0,0,0,.38532-.10319c-.07314-.07467-.13111-.177-.2212-.22484a4.06727,4.06727,0,0,0-1.84631-.42451,12.70418,12.70418,0,0,0-2.7989.31629,2.68691,2.68691,0,0,1-.28631.02516,6.9497,6.9497,0,0,1,2.54648-1.276,13.11581,13.11581,0,0,1,4.67643-.41024,3.661,3.661,0,0,1,1.48775.30873c.45846.2433.94011.44716,1.41462.66361a2.77,2.77,0,0,0,.32645.10487c.016-.01762.03211-.03272.04905-.05034a3.408,3.408,0,0,0-.1543-.35907c-.17125-.31545-.35767-.62334-.52981-.93878a.578.578,0,0,1-.02052-.21813.6606.6606,0,0,1,.21318-.00839,10.28695,10.28695,0,0,1,1.081.36746,4.39254,4.39254,0,0,0,1.55018.33139c.735.04782,1.4717.11325,2.2022.21141a3.15165,3.15165,0,0,1,2.41893,1.56716c.124.21057.256.417.39067.6225a1.9818,1.9818,0,0,0,.17215.20135c.02586-.01091.05441-.02014.08027-.03356-.16679-.53693-.33358-1.073-.5093-1.63931a3.13423,3.13423,0,0,1,1.59211.98829c.23191.25336.43884.52434.66807.7777a2.75226,2.75226,0,0,0,.32466.26175c.03033-.01594.06155-.02852.09276-.0453-.04459-.35907-.09008-.7173-.1329-1.07805.0223-.00755.04638-.01594.07047-.02181.34518.198.68768.40185,1.03375.59985a10.10664,10.10664,0,0,1,3.10216,2.47322c.11328.146.198.125.25777-.052.074-.22232.1222-.45219.20337-.67283.02408-.06712.12308-.15856.18017-.15521a.29828.29828,0,0,1,.21674.14766,1.55724,1.55724,0,0,1,.0883.45471c.0223.31041.01427.6225.04906.93123.0107.0948.11773.18289.182.271.08474-.07047.20069-.12584.24529-.21477.13111-.2542.22833-.5235.35053-.78274.11238-.23994.17928-.24413.3425-.04027a.967.967,0,0,0,.858.45975c.37461-.02685.42188-.00084.561.32719.23814.55958.44061,1.13006.685,1.68628.116.26511.29345.50673.43349.76177a.30142.30142,0,0,1,.04727.20638,15.10993,15.10993,0,0,0-.64933,4.62093c-.01517,1.44719.01516,2.89438-.03746,4.33905a4.24447,4.24447,0,0,1-1.13812,3.10327,2.3169,2.3169,0,0,0,.35232-.13256,4.74515,4.74515,0,0,0,1.46456-1.15355,12.53864,12.53864,0,0,0,2.05057-3.45731c.42724-.98828.858-1.97573,1.30669-2.95562a3.90859,3.90859,0,0,1,.46291-.67871c.04014-.052.15877-.11158.20426-.08976a.27841.27841,0,0,1,.14092.193,2.53829,2.53829,0,0,1,.01517.48659,10.51156,10.51156,0,0,0,.03835,2.42037.88816.88816,0,0,1,.02586.375,9.14635,9.14635,0,0,1-1.46456,3.11082c-.0223.02936-.03657.06544-.08295.14849a2.67268,2.67268,0,0,0,1.14436-.91361c.281-.37837.52713-.78023.80453-1.198.11684.448.22922.87922.34161,1.31044A1.30844,1.30844,0,0,1,74.9143,29.04137Zm.58332,6.47417a16.356,16.356,0,0,1-4.52212,2.6989A38.36235,38.36235,0,0,1,64.055,40.34118c-.84823.18541-1.70182.34564-2.608.52854.36481-.42535.68769-.80623,1.01949-1.18292a.27587.27587,0,0,1,.15876-.05957,16.01559,16.01559,0,0,0,4.2929-1.04533,25.97724,25.97724,0,0,0,8.3423-5.40115.54427.54427,0,0,0,.05619-.07131.7277.7277,0,0,0-.20693.10235,58.72315,58.72315,0,0,1-6.37825,3.66788,21.95768,21.95768,0,0,1-4.42223,1.69552c-.36659.08809-.7412.14682-1.17022.229.05976-.09564.08295-.13087.10435-.16779.48879-.80371,1.02663-1.58813,1.45119-2.422A3.395,3.395,0,0,1,65.804,34.96771a34.29988,34.29988,0,0,1,5.6977-3.15361.89815.89815,0,0,1,.10436-.01594,7.21246,7.21246,0,0,1-2.78642,2.8432,8.06538,8.06538,0,0,0,.99362-.19716,7.74822,7.74822,0,0,0,2.62854-1.46228c.96508-.75757,1.89894-1.55542,2.87739-2.30208a8.69732,8.69732,0,0,1,1.6269-1.0252,14.48541,14.48541,0,0,1,1.94532-.61159,4.82645,4.82645,0,0,1,.59224-.10067,8.715,8.715,0,0,1-.22387,1.04784A13.10024,13.10024,0,0,1,75.49762,35.51554Zm-12.026,16.58183a8.20164,8.20164,0,0,1-1.52164.63005,11.93347,11.93347,0,0,1-3.31891.30957c-.792-.00167-1.58408-.01174-2.37523-.00335a3.88883,3.88883,0,0,0-.59135.0948c-.00089.0344-.00268.06879-.00357.104.17036.06124.33626.13591.51019.18289.55122.14766,1.10511.28021,1.65544.42451a2.42006,2.42006,0,0,1,.31039.13255l-.0107.06041a1.53839,1.53839,0,0,1-.21853.08054c-1.106.20554-2.20755.45722-3.32336.60656a39.15044,39.15044,0,0,0-5.59156,1.08476,1.49915,1.49915,0,0,1-.48789.05453q-2.77482-.18-5.54964-.37249a38.257,38.257,0,0,0-6.41393.04614,28.92874,28.92874,0,0,0-7.0472,1.60826,37.72238,37.72238,0,0,0-9.0059,4.86255c-.04727.03356-.09187.07383-.13825.1099a.70692.70692,0,0,0,.22923-.0906,52.06279,52.06279,0,0,1,7.92666-3.69054,33.883,33.883,0,0,1,7.24432-1.75676,41.727,41.727,0,0,1,5.41763-.26427c2.02648.01007,4.05564,0,6.08213-.00084.02675,0,.05262.00336.08205.00588l-.01159.02684c-.04817.01846-.09633.03859-.14539.05621a22.54151,22.54151,0,0,0-5.09743,2.5848,6.3,6.3,0,0,1-1.5261.77016c-.42189.15017-.84645.297-1.27726.42451a57.43007,57.43007,0,0,1-6.77516,1.36581c-1.87485.318-3.74882.64431-5.60761,1.03023a17.95182,17.95182,0,0,0-4.85036,1.7039A8.21563,8.21563,0,0,0,17.477,70.56348c-.066.44045-.10347.88677-.15074,1.28192-.091-.15941-.19-.35236-.30683-.53693A12.07718,12.07718,0,0,1,15.12233,66.258a7.02909,7.02909,0,0,1,2.34937-6.32232.95859.95859,0,0,0,.18017-.26175c.27293-.52015.49859-1.0663.81612-1.55877A11.13937,11.13937,0,0,1,22.08837,54.777a27.37257,27.37257,0,0,1,6.1508-2.68632,82.72728,82.72728,0,0,1,10.40535-2.42121c2.86134-.51763,5.72892-1.01429,8.58937-1.53695a26.47683,26.47683,0,0,0,6.45585-1.93378,25.1836,25.1836,0,0,0,6.983-4.563.4837.4837,0,0,1,.297-.104,27.11879,27.11879,0,0,0,4.02174-.39095A27.70336,27.70336,0,0,0,75.23182,37.107c.05084-.031.10525-.05453.19-.10319-.01873.10487-.02676.16779-.04282.2282a20.09955,20.09955,0,0,1-1.04535,3.20478A23.02624,23.02624,0,0,1,63.47162,52.09737ZM93.37385,78.7231a20.32953,20.32953,0,0,1-.46916,2.48581A3.24872,3.24872,0,0,1,90.44918,83.688a6.71388,6.71388,0,0,1-1.82847.23826,15.69679,15.69679,0,0,1-3.59362-.45639,9.22072,9.22072,0,0,1-2.78463-1.07134,3.44558,3.44558,0,0,1-1.65276-2.073,4.03965,4.03965,0,0,1-.00446-1.7081.47271.47271,0,0,1,.36569-.40857,7.78416,7.78416,0,0,0,4.42223-3.688.66147.66147,0,0,1,.57084-.38507,4.75231,4.75231,0,0,1,2.68652.35907,1.79961,1.79961,0,0,0,1.626-.005,3.89167,3.89167,0,0,0,.63238-.36746c.24439-.17534.46648-.3792.73674-.60236a.71854.71854,0,0,0,.06333.09731A6.297,6.297,0,0,1,93.37385,78.7231ZM79.01364,82.45475a3.27162,3.27162,0,0,1,.41654.32551A11.98626,11.98626,0,0,0,83.39841,85.053a14.36134,14.36134,0,0,0,4.086.745,10.2628,10.2628,0,0,0,3.07719-.21394c.68679-.17617,1.34593-.44212,2.0247-.65186a.63747.63747,0,0,1,.46113-.005c.165.12.041.31041-.01962.46981a.16132.16132,0,0,1-.0116.01762,6.15383,6.15383,0,0,1-1.97029,2.18462,7.42827,7.42827,0,0,1-5.09118,1.03107,1.33362,1.33362,0,0,0-.79918.14933c-.11417.06125-.18463.1938-.27561.29531.017.01762.033.03776.04906.05538.06511-.00671.12933-.01762.19444-.01846a6.67008,6.67008,0,0,1,1.00967-.01762,1.28112,1.28112,0,0,1,.95705,2.0462.85213.85213,0,0,1-1.56892-.21058.93131.93131,0,0,1-.0544-.24917c-.03925-.31964-.06422-.3641-.41386-.35319a8.66929,8.66929,0,0,0-.9847.104.65178.65178,0,0,1-.79829-.45723,1.01317,1.01317,0,0,1,.08384-.8658c.16858-.29027.38265-.55454.56728-.82049-.49414-.1938-1.03732-.36914-1.54216-.61579a6.49932,6.49932,0,0,1-3.73544-4.39609,2.207,2.207,0,0,1-.06333-.6116C78.59,82.37421,78.76122,82.29618,79.01364,82.45475Zm1.00789-2.53783a10.09744,10.09744,0,0,0,.43438,1.25339,4.14948,4.14948,0,0,0,2.18257,1.89435,14.48888,14.48888,0,0,0,6.98477,1.19215,3.85487,3.85487,0,0,0,3.37866-2.02187c.00267-.005.01159-.00839.03835-.02852a1.18712,1.18712,0,0,1,.76261.98324.86792.86792,0,0,1-.51465.93879,8.81689,8.81689,0,0,1-1.51362.64683,13.3457,13.3457,0,0,1-6.71629.10654,11.99117,11.99117,0,0,1-4.66662-2.09569,4.417,4.417,0,0,1-1.33345-1.45306.96941.96941,0,0,1-.13379-.48156A1.17126,1.17126,0,0,1,80.02153,79.91692ZM9.42731,69.27234a21.5758,21.5758,0,0,1-2.74449-6.56646,27.62683,27.62683,0,0,1,.35766-4.49173c.0553-.34565.12844-.68878.19177-1.03359a.39388.39388,0,0,1,.1106.19212c.26669.83308.49859,1.6779.80364,2.49839a39.1034,39.1034,0,0,0,7.06415,11.69915,1.41293,1.41293,0,0,1,.25866.43877,18.099,18.099,0,0,0,2.806,5.19142c-1.354-.5428-2.897-.73828-4.73441-2.72743,2.25749,4.09491,7.60556,5.71744,7.60556,5.71744a25.65709,25.65709,0,0,0,10.27512,5.15031c.30951.0797.62258.14346.93565.21393a.63061.63061,0,0,0-.2221-.11577,28.20465,28.20465,0,0,1-7.86689-4.06555,19.01075,19.01075,0,0,1-6.54415-8.24519,1.35781,1.35781,0,0,1-.06422-1.06463c.0999-.25168.15163-.51931.23458-.77687a11.21412,11.21412,0,0,1,3.20028-5.07983,13.07578,13.07578,0,0,1,5.315-2.70729,50.2194,50.2194,0,0,1,7.247-1.19383c1.41194-.17282,2.81674-.38256,4.22422-.58474.37818-.05286.7519-.14095,1.15417-.219a.89228.89228,0,0,1-.05441.08473A16.8832,16.8832,0,0,0,36.23808,65.419a.4334.4334,0,0,1-.24082.20051,20.02223,20.02223,0,0,1-1.96316.54783c-.98916.18541-2.00062.25672-2.98977.43961-5.30436.9908-6.93928,3.6637-6.9152,3.63936,1.61084-1.6091,4.18854-2.063,4.86909-2.28613a15.16979,15.16979,0,0,1,4.89942-.64515c.487.00671.9731.03356,1.47437.052a17.81706,17.81706,0,0,0,.72782,13.45423.8515.8515,0,0,0-.03924-.24078,20.15422,20.15422,0,0,1-.66093-8.61349,15.01711,15.01711,0,0,1,4.91725-9.04387,24.10459,24.10459,0,0,1,7.04275-4.28367,46.04633,46.04633,0,0,1,7.63945-2.25258c1.95869-.44381,3.92542-.87922,5.85914-1.41531a17.53449,17.53449,0,0,0,6.933-3.62006,7.12436,7.12436,0,0,0,.87678-.85657,15.85874,15.85874,0,0,1,6.26051-4.69812,5.0747,5.0747,0,0,1,.87321-1.58645,10.278,10.278,0,0,1,2.20309-1.99166A2.187,2.187,0,0,1,78.837,41.91a.49753.49753,0,0,1,.61366.37,1.85526,1.85526,0,0,1,.06511.24581,1.77048,1.77048,0,0,1,.50127.26091,3.42388,3.42388,0,0,1,.322.26427,4.932,4.932,0,0,1,1.05427,1.52437.29474.29474,0,0,0,.26669.18541c.31307.03859.627.0797.93653.13591a11.02974,11.02974,0,0,1,9.319,9.68819,6.937,6.937,0,0,0,.20158,1.38426,14.3477,14.3477,0,0,0,.7635,1.60491c.22923.469.48075.92872.67876,1.41027a2.2046,2.2046,0,0,1,.07047,1.52354c-.05441.17785-.165.22483-.31218.13842-.20693-.12248-.39335-.276-.59046-.41444a6.38365,6.38365,0,0,0-.72336-.495.50979.50979,0,0,0-.64041.11662,1.33063,1.33063,0,0,1,.11238.08389c.51732.43374,1.03643.86328,1.54573,1.30541a.32262.32262,0,0,1,.099.2391,2.63814,2.63814,0,0,1-.80542,1.80038,2.55135,2.55135,0,0,1-2.42428.75925c-.025.34145-.04995.40018-.25867.50589A9.09777,9.09777,0,0,1,85.28844,65.617a6.47042,6.47042,0,0,0-3.15568.83894,4.41746,4.41746,0,0,1-.96865.38844,14.83869,14.83869,0,0,1-3.24665.3683c-.09008.00167-.17839.00671-.26758.0109a.30066.30066,0,0,0,.16858.09061,9.253,9.253,0,0,0,2.65262.15772,2.182,2.182,0,0,1,.86607.01762c.73674.28189,1.45118.61914,2.16028.96227a.70589.70589,0,0,0,.5753.07215c.45043-.15856.90264-.31544,1.34147-.49917a5.584,5.584,0,0,1,2.91842-.49163,4.23388,4.23388,0,0,1,1.6046.47149,1.00612,1.00612,0,0,1,.59492.802.27586.27586,0,0,0,.10258.15353c.132.11493.27828.21812.41118.33222a1.4087,1.4087,0,0,1,.51019,1.26262c-.04193.41947-.17393.48911-.56193.3037a.5293.5293,0,0,0-.57886-.021c.24885.14934.49235.28357.72514.43458a.992.992,0,0,1,.46024.93878,2.21133,2.21133,0,0,1-2.5661,1.80374,1.33025,1.33025,0,0,1-.94011-.56629.215.215,0,0,0-.16054-.08976,5.94637,5.94637,0,0,0-.91067.07634,4.19607,4.19607,0,0,1-1.62957.13759c-.256-.04615-.50841-.11242-.77331-.16947a5.20646,5.20646,0,0,1-1.00254,1.82639,8.2944,8.2944,0,0,1-4.0494,2.558,14.66258,14.66258,0,0,1-6.3515.42367,7.68611,7.68611,0,0,1-6.463-4.73084,21.02042,21.02042,0,0,1-.6636-2.115,14.61863,14.61863,0,0,0-1.45475-3.26519A10.06124,10.06124,0,0,0,60.48185,64.174a10.33752,10.33752,0,0,0-6.45674-.83811c-.42634.07131-.84555.1745-1.31739.27434.82148.04614,1.57695.06208,2.32528.13339a13.7437,13.7437,0,0,1,5.81276,1.84317,8.91139,8.91139,0,0,1,4.35,5.25266,18.31093,18.31093,0,0,0,1.46545,3.62762,8.84833,8.84833,0,0,0,1.50113,2.16449A8.16474,8.16474,0,0,0,72.00391,78.682c.44954.11829.89551.24917,1.3388.3834a.679.679,0,0,1,.44329.422,3.0746,3.0746,0,0,1,.18285,1.83562,5.41167,5.41167,0,0,1-1.40926,2.57725,10.01025,10.01025,0,0,1-2.08179,1.59149,10.6396,10.6396,0,0,0-1.04356.74247,1.0785,1.0785,0,0,0-.44151.90019c.03121.64011.07135.74163.74922.52937.10614-.03356.21139-.073.31486-.11577.55389-.224,1.10511-.4522,1.66168-.67116a5.554,5.554,0,0,1,3.31533-.318,3.2302,3.2302,0,0,1,2.55273,2.172.82632.82632,0,0,1-.03746.72233.52344.52344,0,0,1-.36659.21813c-.11506.00335-.25063-.12-.34518-.21645-.058-.0604-.05619-.17283-.08205-.26175a1.55236,1.55236,0,0,0-.82326-1.089,1.87061,1.87061,0,0,0-.29256-.08138,2.74724,2.74724,0,0,1,.93921,2.18211A1.11651,1.11651,0,0,1,75.31211,91.236c-.20158-.01091-.3434-.09984-.36569-.28441a6.57135,6.57135,0,0,1-.02141-.67619,6.71584,6.71584,0,0,0-.02676-.80539,1.01733,1.01733,0,0,0-.78758-.8465.83381.83381,0,0,0-.61633.06544.912.912,0,0,1,.68412.37753,3.162,3.162,0,0,1,.33983.73575,1.17673,1.17673,0,0,1-.4647,1.4237,2.22023,2.22023,0,0,1-.86875.25336,5.44192,5.44192,0,0,1-1.87129-.22064,5.392,5.392,0,0,0-1.13365-.13591,6.45948,6.45948,0,0,0-1.073.13,36.3365,36.3365,0,0,1-6.52007.18625c-2.37523-.02768-4.75046-.01426-7.12569-.01594q-6.37781,0-12.75918-.00168c-1.75622,0-3.51334.01678-5.26957.00588a30.54765,30.54765,0,0,1-7.15959-.849c-8.922-2.19469-15.5991-6.7376-19.99993-14.35274A26.68538,26.68538,0,0,1,6.83534,65.50041C6.78806,65.06417,9.45317,69.7304,9.42731,69.27234Z" />
    <path class="cls-2" d="M79.1849,49.48908a2.968,2.968,0,0,1,.07046-3.55547c.62436-1.07217,2.28336-.11829,2.05859-1.31547a5.20932,5.20932,0,0,0-1.46813-2.43127c-.264-.29447-.41118-.58391-.801-.50925a2.60856,2.60856,0,0,0-.982.43122,12.71177,12.71177,0,0,0-2.71595,2.45645c-1.37626,1.72739-.809,2.77524.80274,4.15279A5.97436,5.97436,0,0,0,79.1849,49.48908Z" />
    <path class="cls-6" d="M77.69268,43.79178a9.43041,9.43041,0,0,1,1.6599-1.20641c.3425-.2131-.677,2.40526-.974,3.10411-.974,2.28949.30237,3.70815-.049,3.53281a4.35947,4.35947,0,0,1-1.95245-2.56718A4.44637,4.44637,0,0,1,77.69268,43.79178Z" />
    <path class="cls-36" d="M78.87628,49.349a2.96412,2.96412,0,0,1,.07136-3.55462,4.71138,4.71138,0,0,0,.68769-3.34993,2.58463,2.58463,0,0,0-.099-.3985.61278.61278,0,0,0-.75725-.46058,2.73315,2.73315,0,0,0-1.02573.38172,12.71147,12.71147,0,0,0-2.71595,2.45644c-1.05606,1.3247-.94011,2.22909-.14,3.23331a.811.811,0,0,0,.66539.33055c.38175.06795.45935-.43206.338-.63425a3.34352,3.34352,0,0,1-.4977-1.29953,3.50531,3.50531,0,0,1,1.10868-2.55795,7.84287,7.84287,0,0,1,2.6776-1.83311,6.17774,6.17774,0,0,1-.50306,2.89689c-.33358.865-1.34326,2.443-1.08994,3.47158a3.23648,3.23648,0,0,0,.73317,1.193C78.70682,49.46391,78.87628,49.349,78.87628,49.349Z" />
    <path class="cls-39" d="M33.4035,66.66321a.547.547,0,0,1-.27472-.04447A.66717.66717,0,0,1,33.4035,66.66321Z" />
    <path class="cls-3" d="M79.51224,79.23989c.875-1.25,1.8588-1.67286,2.97015-2.657,1.057-.93375,1.86861-2.06046,2.9211-2.97743a18.42661,18.42661,0,0,0,2.59643.07131c.60474,1.4044,3.541.06795,3.80947-.83811l.38977.54951c.84645,1.568-2.1897,1.67287-3.91828,1.51011-1.213-.11326-6.44871,1.18124-6.27657,7.53292-.58957.85153-1.97832.02013-1.9801,1.13007-.00089,1.13593.01873,3.13934,1.06229,3.86252-.29879.9908-1.33612-.05705-1.62243-.45387a11.279,11.279,0,0,1-1.76336-3.51436C77.34929,81.6569,78.55519,80.60654,79.51224,79.23989Z" />
</svg>