<?xml version="1.0" encoding="utf-8"?>
<svg version="1.1" width="100" height="100" xmlns="http://www.w3.org/2000/svg">
  <defs>
    <style>
      .c {
        fill: #fca326;
      }

      .c, .d, .e {
        stroke-width: 0px;
      }

      .d {
        fill: #fc6d26;
      }

      .e {
        fill: #e24329;
      }
    </style>
  </defs>
  <path class="e" d="M93.5,40.97l-.13-.32-12.25-31.97c-.25-.63-.69-1.16-1.26-1.52-1.17-.73-2.66-.64-3.75.2-.52.43-.9,1-1.09,1.65l-8.27,25.3h-33.49l-8.27-25.3c-.18-.65-.56-1.23-1.09-1.65-1.08-.85-2.58-.93-3.75-.2-.57.36-1.01.89-1.26,1.52l-12.27,31.95-.12.32c-3.62,9.47-.55,20.19,7.54,26.29l.04.03.11.08,18.66,13.97,9.23,6.99,5.62,4.25c1.35,1.03,3.22,1.03,4.57,0l5.62-4.25,9.23-6.99,18.77-14.06.05-.04c8.07-6.1,11.14-16.81,7.54-26.26Z"/>
  <path class="d" d="M93.5,40.97l-.13-.32c-5.97,1.23-11.59,3.75-16.47,7.4l-26.9,20.34c9.16,6.93,17.14,12.95,17.14,12.95l18.77-14.06.05-.04c8.08-6.1,11.16-16.82,7.54-26.28Z"/>
  <path class="c" d="M32.86,81.34l9.23,6.99,5.62,4.25c1.35,1.03,3.22,1.03,4.57,0l5.62-4.25,9.23-6.99s-7.98-6.04-17.15-12.95c-9.16,6.91-17.14,12.95-17.14,12.95Z"/>
  <path class="d" d="M23.09,48.05c-4.87-3.66-10.5-6.19-16.47-7.42l-.12.32c-3.62,9.47-.55,20.19,7.54,26.29l.04.03.11.08,18.66,13.97s7.97-6.02,17.14-12.95l-26.91-20.32Z"/>
</svg>