<?xml version="1.0" encoding="utf-8"?>
<svg version="1.1" width="100" height="100" xmlns="http://www.w3.org/2000/svg">
<style type="text/css">
	.st0{fill:#00F9E5;}
	.st1{fill:#FFFFFF;}
	.st2{fill:#0C6066;}
	.st3{fill:#1E1E1E;}
	.st4{fill:url(#SVGID_1_);}
	.st5{fill:url(#SVGID_00000091013474512210227740000000683336018043730826_);}
</style>
<g id="iconfont">
	<g>
		<path class="st0" d="M87.1,54c0.6,0.8,0.9,1.8,0.8,2.8C87.1,76.9,70.5,93,50.1,93S13,76.9,12.2,56.7c-0.1-1,0.2-2,0.8-2.8L46.9,9
			c1.7-2.3,5.1-2.3,6.9,0C53.8,9,87.1,54,87.1,54z"/>
		<path class="st1" d="M37.9,68.9c-7.7,6.9-19.4,6.3-26.4-1.3c-6.9-7.7-6.3-19.4,1.3-26.4c7.7-6.9,19.4-6.3,26.4,1.3
			S45.6,61.9,37.9,68.9z"/>
		<g>
			<path class="st2" d="M25.4,75.4c-5.6,0-11.1-2.3-15.1-6.7c-7.5-8.4-6.9-21.3,1.4-28.8c4.1-3.7,9.3-5.6,14.7-5.3
				c5.4,0.3,10.5,2.6,14.2,6.7c7.5,8.4,6.9,21.3-1.4,28.8C35.2,73.7,30.3,75.4,25.4,75.4z M25.4,38.1c-4.2,0-8.2,1.5-11.4,4.4
				c-6.9,6.3-7.5,17-1.2,23.9c3,3.4,7.2,5.3,11.7,5.6s8.9-1.4,12.2-4.4c6.9-6.3,7.5-17,1.2-23.9c-3-3.4-7.2-5.3-11.7-5.6
				C26.2,38.1,25.4,38.1,25.4,38.1z"/>
		</g>
		<path class="st3" d="M18.7,47.6c-4.1,3.7-4.4,9.9-0.7,13.9c3.7,4.1,9.9,4.4,13.9,0.7c1.4-1.2,2.3-2.7,2.8-4.3L18.7,47.6z"/>
		<g>
			<path class="st2" d="M24.8,35.8L45.4,7.4C46.5,5.9,48.3,5,50.2,5c1.9,0,3.6,0.9,4.7,2.4l20.3,28.5l-4.1,0.3L52.3,9.5
				c-0.5-0.6-1.2-1-2-1c-0.8,0-1.5,0.4-2,1L28.5,36.6L24.8,35.8z M18.3,72.5c1.7,3.3,4.1,6.3,6.9,9c6.7,6.4,15.5,10,24.8,10
				S68,88,74.7,81.5c3-2.9,5.4-6.2,7.2-9.8l4.9-2.6c-2,5.6-5.3,10.7-9.7,14.9c-7.4,7.1-17,11-27.2,11C39.8,95,30,91.1,22.7,84.1
				c-4.3-4.1-7.5-9-9.6-14.5C13.2,69.6,18.3,72.5,18.3,72.5z"/>
		</g>
		
			<linearGradient id="SVGID_1_" gradientUnits="userSpaceOnUse" x1="-247.6252" y1="1432.0598" x2="-246.8717" y2="1432.0598" gradientTransform="matrix(33.9116 33.9116 -33.9116 33.9116 56979.2812 -40130.1406)">
			<stop  offset="0" style="stop-color:#00F9E5"/>
			<stop  offset="0.568" style="stop-color:#299DF4"/>
			<stop  offset="1" style="stop-color:#4A54FF"/>
		</linearGradient>
		<path class="st4" d="M42.5,62.5c2.9-6.8,1.7-15-3.8-20.6c-6.9-7-18.3-7.4-25.7-0.9c-0.5,0.5-1.1,1-1.6,1.6
			c-0.2,0.2-0.1,0.4,0.1,0.5L42,62.7C42.2,62.8,42.5,62.7,42.5,62.5z"/>
		<g>
			<path class="st2" d="M42.5,62.5l1.6,0.7c1.1-2.6,1.7-5.4,1.7-8.2c0-5.2-2-10.4-5.9-14.4c-4-4-9.3-6-14.5-6
				c-4.8,0-9.7,1.7-13.6,5.1c-0.6,0.5-1.2,1.1-1.7,1.7c-0.4,0.5-0.5,0.9-0.5,1.4c0,0.7,0.3,1.4,1,1.7L41,64.1
				c0.4,0.2,0.8,0.3,1.1,0.3s0.8-0.1,1.1-0.3c0.3-0.2,0.6-0.5,0.8-0.9L42.5,62.5L41,61.9l1.3,0.6l-0.8-1.2c-0.2,0.2-0.5,0.4-0.5,0.6
				l1.3,0.6l-0.8-1.2l0.8,1.2V61c-0.3,0-0.5,0.1-0.8,0.2l0.8,1.2V61v1.4l0.8-1.2c-0.2-0.2-0.5-0.2-0.8-0.2v1.4l0.8-1.2L12.5,41.6
				l-0.8,1.2h1.4c0-0.5-0.2-0.9-0.7-1.2l-0.8,1.2h1.4h-1.4l1.1,1c0.2-0.3,0.4-0.6,0.4-1h-1.4l1.1,1c0.5-0.5,0.9-1,1.4-1.4
				c3.2-2.8,7.2-4.2,11.2-4.2c4.4,0,8.8,1.7,12.1,5c3.3,3.3,4.9,7.6,4.9,11.9c0,2.3-0.5,4.7-1.4,6.8L42.5,62.5L42.5,62.5z"/>
		</g>
		<path class="st1" d="M62.1,68.9c7.7,6.9,19.4,6.3,26.4-1.3c6.9-7.7,6.3-19.4-1.3-26.4c-7.7-6.9-19.4-6.3-26.4,1.3
			S54.4,61.9,62.1,68.9z"/>
		<g>
			<path class="st2" d="M60.8,70.1c-8.4-7.5-9-20.5-1.4-28.8c3.7-4.1,8.7-6.4,14.2-6.7c5.4-0.3,10.7,1.6,14.7,5.3
				c8.4,7.5,9,20.5,1.4,28.8c-4,4.4-9.6,6.7-15.1,6.7C69.7,75.4,64.8,73.7,60.8,70.1z M73.7,38.1c-4.5,0.2-8.7,2.2-11.7,5.6
				c-6.3,6.9-5.7,17.7,1.2,23.9c3.4,3,7.7,4.6,12.2,4.4s8.7-2.2,11.7-5.6c6.3-6.9,5.7-17.7-1.2-23.9c-3.2-2.9-7.2-4.4-11.4-4.4
				C74.6,38.1,73.7,38.1,73.7,38.1z"/>
		</g>
		<path class="st3" d="M81.3,47.5c4.1,3.7,4.4,9.9,0.7,13.9c-3.7,4.1-9.9,4.4-13.9,0.7c-1.4-1.2-2.3-2.7-2.8-4.3
			C65.3,57.8,81.3,47.5,81.3,47.5z"/>
		
			<linearGradient id="SVGID_00000140014693355448825290000003691846375539075480_" gradientUnits="userSpaceOnUse" x1="-312.6441" y1="1497.0791" x2="-311.891" y2="1497.0791" gradientTransform="matrix(-33.9116 33.9116 33.9116 33.9116 -61289.0938 -40130.207)">
			<stop  offset="0" style="stop-color:#00F9E5"/>
			<stop  offset="0.568" style="stop-color:#299DF4"/>
			<stop  offset="1" style="stop-color:#4A54FF"/>
		</linearGradient>
		<path style="fill:url(#SVGID_00000140014693355448825290000003691846375539075480_);" d="M57.5,62.5c-2.9-6.8-1.7-15,3.8-20.6
			c6.9-7,18.3-7.4,25.7-0.9c0.5,0.5,1.1,1,1.6,1.6c0.2,0.2,0.1,0.4-0.1,0.5L58,62.6C57.8,62.8,57.5,62.7,57.5,62.5z"/>
		<g>
			<path class="st2" d="M57.5,62.5l1.6-0.7c-1-2.2-1.4-4.4-1.4-6.8c0-4.3,1.6-8.6,4.9-11.9c3.2-3.3,7.7-5,12.1-5c4,0,8,1.4,11.2,4.2
				c0.5,0.5,1,0.9,1.4,1.4l1.1-1h-1.4c0,0.3,0.2,0.7,0.4,1l1.1-1h-1.4h1.4l-0.8-1.2c-0.4,0.3-0.7,0.8-0.7,1.2h1.4l-0.8-1.2L57,61.2
				l0.8,1.2V61c-0.2,0-0.5,0.1-0.8,0.2l0.8,1.2V61v1.4l0.8-1.2C58.3,61,58.1,61,57.8,61v1.4l0.8-1.2l-0.8,1.2l1.3-0.6
				c-0.2-0.3-0.3-0.5-0.5-0.6l-0.8,1.2l1.3-0.6L57.5,62.5l-1.6,0.7c0.2,0.4,0.5,0.8,0.8,0.9c0.3,0.2,0.8,0.3,1.1,0.3
				s0.8-0.1,1.1-0.3l30.5-19.7c0.6-0.4,0.9-1.1,0.9-1.7c0-0.5-0.2-1-0.5-1.4c-0.5-0.6-1.1-1.1-1.7-1.7c-3.8-3.4-8.7-5.1-13.6-5.1
				c-5.3,0-10.6,2-14.5,6s-5.9,9.2-5.9,14.4c0,2.8,0.6,5.6,1.7,8.2C55.9,63.1,57.5,62.5,57.5,62.5z"/>
		</g>
	</g>
</g>
</svg>
