<?xml version="1.0" encoding="utf-8"?>
<svg version="1.1" width="100" height="100" xmlns="http://www.w3.org/2000/svg">
  <defs>
    <style>
      .c {
        fill: #000;
      }

      .c, .d {
        stroke-width: 0px;
      }

      .d {
        fill: #0179fb;
      }
    </style>
  </defs>
  <path class="c" d="M63.05,43.59h-6.01c-.17,0-.22-.23-.08-.3.5-.26,1.31-.74,2.56-1.62,2.51-1.75,4.26-5.09,5.7-8.07,2.48-5.13,7.38-15.76,8.16-17.44.05-.11-.03-.23-.15-.23h-14.82c-.06,0-.12.04-.15.1l-12.27,27.47c-.03.06-.08.1-.15.1h-17.04c-.09,0-.16-.07-.16-.16v-27.34c0-.09-.07-.16-.16-.16h-13.33c-.09,0-.16.07-.16.16v71.1c0,.09.07.16.16.16h13.33c.09,0,.16-.07.16-.16v-29.79c0-.09.07-.16.16-.16h22.03c1.49-.01,3-.14,4.45-.44,3.18-.65,6.14-2.33,7.57-6.33.07-.19.35-.14.35.06v36.65c0,.09.07.16.16.16h13.33c.09,0,.16-.07.16-.16v-29.79c0-7.63-6.18-13.81-13.81-13.81Z"/>
  <path class="d" d="M79.75,29.78c.47-.6,1.6-1.56,1.64-2.36.05-.87-.97-1.86-1.3-2.67-.86-2.12-.96-4.67-.32-6.86,1.43-4.89,7.07-6.45,11.38-4.29,3.82,1.91,4.5,6.92,3.3,10.67-.74,2.3-2.43,3.72-4.43,4.54-1.08.44-10.03.99-10.28.97Z"/>
</svg>