<?xml version="1.0" encoding="utf-8"?>
<svg version="1.1" width="100" height="100" xmlns="http://www.w3.org/2000/svg">
<style type="text/css">
	.st0{fill:#326DE6;}
	.st1{fill:#FFFFFF;}
</style>
<g id="kubernetes">
	<path class="st0" d="M87.1,25.8c-0.5-1.6-1.7-3-3.3-3.8L52.4,7c-0.8-0.4-1.7-0.5-2.6-0.5c-0.8,0-1.7,0-2.6,0.2L15.9,21.8
		c-1.5,0.7-2.7,2.1-3.1,3.8L5.1,59.5c-0.3,1.7,0.1,3.5,1.1,4.9l21.7,26.9c1.2,1.2,3,2.1,4.7,2.2h34.6c1.9,0.2,3.6-0.6,4.7-2.2
		l21.7-26.9c1-1.4,1.4-3.2,1.2-4.9L87.1,25.8z"/>
	<path class="st1" d="M82.3,58.2L82.3,58.2c-0.1,0-0.2,0-0.2-0.1S81.9,58,81.7,58c-0.4-0.1-0.8-0.1-1.2-0.1c-0.2,0-0.4,0-0.6-0.1
		h-0.1c-1.1-0.1-2.4-0.3-3.5-0.6c-0.3-0.1-0.6-0.4-0.7-0.7c0.1,0,0,0,0,0l0,0l-0.8-0.2c0.4-3,0.2-6.1-0.4-9.1c-0.7-3-2-5.9-3.6-8.4
		l0.6-0.6l0,0V38c0-0.3,0.1-0.7,0.3-0.9c0.9-0.8,1.9-1.4,2.9-2.1l0,0c0.2-0.1,0.4-0.2,0.6-0.3c0.4-0.2,0.7-0.4,1.1-0.6
		c0.1-0.1,0.2-0.1,0.3-0.2c0.1-0.1,0-0.1,0-0.2l0,0c0.9-0.7,1.1-2,0.4-2.9c-0.3-0.4-0.9-0.7-1.4-0.7s-1,0.2-1.4,0.5l0,0L74,30.7
		c-0.1,0.1-0.2,0.2-0.3,0.2c-0.3,0.3-0.6,0.6-0.8,0.9c-0.1,0.2-0.3,0.3-0.4,0.4l0,0c-0.7,0.8-1.6,1.6-2.6,2.3
		c-0.2,0.1-0.4,0.2-0.6,0.2c-0.1,0-0.3,0-0.4-0.1h-0.1l-0.8,0.5c-0.8-0.8-1.7-1.6-2.6-2.5c-3.8-3-8.5-4.8-13.4-5.4l-0.1-0.8l0,0
		l0,0.1c-0.3-0.2-0.4-0.5-0.5-0.8c0-1.1,0-2.3,0.2-3.5v-0.1c0-0.2,0.1-0.4,0.1-0.6c0.1-0.4,0.1-0.8,0.2-1.2v-0.6l0,0
		c0.1-1-0.7-2.1-1.7-2.2c-0.6-0.1-1.2,0.2-1.7,0.7c-0.4,0.4-0.6,0.9-0.6,1.4l0,0v0.5c0,0.4,0.1,0.8,0.2,1.2C48,21.6,48,21.8,48,22
		v0.1c0.2,1.1,0.2,2.3,0.2,3.5c-0.1,0.3-0.2,0.6-0.5,0.8v0.2l0,0l-0.1,0.8c-1.1,0.1-2.3,0.3-3.5,0.5c-4.8,1-9.3,3.6-12.7,7.2
		l-0.6-0.4h-0.1c-0.1,0-0.2,0.1-0.4,0.1c-0.2,0-0.4-0.1-0.6-0.2c-0.9-0.7-1.9-1.5-2.6-2.4l0,0c-0.1-0.2-0.3-0.3-0.4-0.4
		c-0.3-0.3-0.5-0.6-0.8-0.9c-0.1-0.1-0.2-0.1-0.3-0.2c-0.1-0.1-0.1-0.1-0.1-0.1l0,0c-0.4-0.3-0.9-0.5-1.4-0.5
		c-0.6,0-1.1,0.2-1.4,0.7c-0.6,0.9-0.4,2.2,0.4,2.9l0,0c0.1,0,0.1,0.1,0.1,0.1s0.2,0.2,0.3,0.2c0.3,0.2,0.7,0.4,1.1,0.6
		c0.2,0.1,0.4,0.2,0.6,0.3l0,0c1,0.6,2.1,1.2,2.9,2.1c0.2,0.2,0.4,0.6,0.3,0.9v-0.1l0,0l0.6,0.6c-0.1,0.2-0.2,0.3-0.3,0.5
		c-3.2,5-4.5,11-3.6,16.9l-0.8,0.2l0,0c0,0.1-0.1,0.1-0.1,0.1c-0.1,0.3-0.4,0.5-0.7,0.7c-1.1,0.3-2.3,0.5-3.5,0.6l0,0
		c-0.2,0-0.4,0-0.6,0.1c-0.4,0-0.8,0.1-1.2,0.1c-0.1,0-0.2,0.1-0.4,0.1c-0.1,0-0.1,0-0.2,0.1l0,0c-1.1,0.2-1.9,1.2-1.6,2.4l0,0
		c0.2,0.9,1.1,1.5,2.1,1.4c0.2,0,0.3,0,0.5-0.1l0,0c0.1,0,0.1,0,0.1-0.1s0.3,0,0.4,0c0.4-0.1,0.8-0.3,1.1-0.4
		c0.2-0.1,0.4-0.2,0.6-0.2h0.1c1.1-0.4,2.2-0.7,3.4-0.9h0.1c0.3,0,0.6,0.1,0.8,0.3c0.1,0,0.1,0.1,0.1,0.1l0,0l0.9-0.1
		c1.5,4.7,4.4,9,8.4,12c0.9,0.7,1.7,1.3,2.8,1.9l-0.5,0.7l0,0c0,0.1,0.1,0.1,0.1,0.1c0.2,0.3,0.2,0.7,0.1,1c-0.4,1-1,2.1-1.6,3v0.1
		c-0.1,0.2-0.2,0.3-0.4,0.5s-0.4,0.6-0.7,1c-0.1,0.1-0.1,0.2-0.2,0.3c0,0,0,0.1-0.1,0.1l0,0c-0.5,1-0.1,2.3,0.8,2.8
		c0.2,0.1,0.5,0.2,0.7,0.2c0.8,0,1.5-0.5,2-1.2l0,0c0,0,0-0.1,0.1-0.1c0-0.1,0.1-0.2,0.2-0.3c0.1-0.4,0.3-0.7,0.4-1.1l0.2-0.6l0,0
		c0.3-1.1,0.8-2.2,1.3-3.2c0.2-0.3,0.5-0.5,0.8-0.6c0.1,0,0.1,0,0.1-0.1l0,0L41,76c2.9,1.1,5.9,1.6,9,1.6c1.9,0,3.7-0.2,5.6-0.7
		c1.1-0.2,2.3-0.6,3.3-0.9l0.4,0.7l0,0c0.1,0,0.1,0,0.1,0.1c0.3,0.1,0.6,0.3,0.8,0.6c0.5,1,1,2.1,1.3,3.2v0.1l0.2,0.6
		c0.1,0.4,0.2,0.8,0.4,1.1c0.1,0.1,0.1,0.2,0.2,0.3c0,0,0,0.1,0.1,0.1l0,0c0.4,0.7,1.1,1.2,2,1.2c0.3,0,0.5-0.1,0.8-0.2
		c0.4-0.2,0.8-0.6,0.9-1.1s0.1-1-0.1-1.5l0,0c0-0.1-0.1-0.1-0.1-0.1c0-0.1-0.1-0.2-0.2-0.3c-0.2-0.4-0.4-0.7-0.7-1
		c-0.1-0.2-0.2-0.3-0.4-0.5v-0.2c-0.7-0.9-1.2-2-1.6-3c-0.1-0.3-0.1-0.7,0.1-1c0-0.1,0.1-0.1,0.1-0.1l0,0l-0.3-0.8
		c5.2-3.2,9.3-8.1,11.1-14l0.8,0.1l0,0c0.1,0,0.1-0.1,0.1-0.1c0.2-0.2,0.5-0.3,0.8-0.3h0.1c1.1,0.2,2.3,0.5,3.3,0.9h0.1
		c0.2,0.1,0.4,0.2,0.6,0.2c0.4,0.2,0.7,0.4,1.1,0.5c0.1,0,0.2,0.1,0.4,0.1c0.1,0,0.1,0,0.2,0.1l0,0c0.2,0.1,0.3,0.1,0.5,0.1
		c0.9,0,1.7-0.6,2.1-1.4C84,59.2,83.2,58.4,82.3,58.2z M52.5,55l-2.8,1.3L47,55l-0.7-3l2-2.5h3.1l2,2.5L52.5,55z M69.3,48.3
		c0.5,2.2,0.6,4.3,0.4,6.5L60,52l0,0c-0.9-0.2-1.4-1.1-1.2-2.1c0.1-0.3,0.2-0.5,0.4-0.7l7.7-7C68,44.1,68.8,46.1,69.3,48.3z
		 M63.8,38.4l-8.4,6c-0.7,0.4-1.7,0.3-2.3-0.4c-0.2-0.2-0.3-0.4-0.3-0.7l-0.6-10.4C56.7,33.4,60.7,35.3,63.8,38.4L63.8,38.4z
		 M45.1,33.2l2.1-0.4L46.7,43l0,0c0,0.9-0.8,1.6-1.7,1.6c-0.3,0-0.5-0.1-0.8-0.2l-8.5-6.1C38.2,35.8,41.5,34,45.1,33.2z M32.6,42.2
		l7.6,6.8l0,0c0.7,0.6,0.8,1.6,0.2,2.4c-0.2,0.3-0.4,0.4-0.8,0.5l-10,2.9C29.3,50.4,30.3,46,32.6,42.2z M30.8,59.6L41,57.9
		c0.8,0,1.6,0.5,1.7,1.3c0.1,0.3,0.1,0.7-0.1,1l0,0l-3.9,9.5C35.2,67.3,32.3,63.7,30.8,59.6z M54.2,72.4c-1.4,0.3-2.9,0.5-4.4,0.5
		c-2.2,0-4.4-0.4-6.5-1l5-9.2c0.5-0.6,1.3-0.8,2.1-0.4c0.3,0.2,0.5,0.4,0.8,0.7l0,0l4.9,9C55.5,72.1,54.9,72.2,54.2,72.4z
		 M66.7,63.4c-1.5,2.5-3.7,4.6-6.2,6.2l-4-9.7c-0.2-0.8,0.2-1.6,0.9-2c0.3-0.1,0.6-0.2,0.9-0.2l10.3,1.7
		C68.2,60.9,67.6,62.3,66.7,63.4z"/>
</g>
</svg>
