<?xml version="1.0" encoding="utf-8"?>
<svg version="1.1" width="100" height="100" xmlns="http://www.w3.org/2000/svg" xmlns:xlink="http://www.w3.org/1999/xlink">
  <defs>
    <style>
      .f {
        fill: url(#c);
      }

      .f, .g, .h {
        stroke-width: 0px;
      }

      .g {
        fill: url(#b);
      }

      .h {
        fill: url(#d);
      }
    </style>
    <linearGradient id="b" data-name="b5" x1="-4649.46" y1="-2405.97" x2="-4477.95" y2="-2507.31" gradientTransform="translate(199.13 177.53) scale(.04)" gradientUnits="userSpaceOnUse">
      <stop offset="0" stop-color="#909ca9"/>
      <stop offset="1" stop-color="#ededee"/>
    </linearGradient>
    <linearGradient id="c" data-name="c4" x1="-4645.61" y1="-4315.98" x2="-4507.61" y2="-4315.98" gradientTransform="translate(199.13 177.53) scale(.04)" gradientUnits="userSpaceOnUse">
      <stop offset="0" stop-color="#939fab"/>
      <stop offset="1" stop-color="#dcdee1"/>
    </linearGradient>
    <radialGradient id="d" data-name="d2" cx="-10611.97" cy="-7986.34" fx="-10611.97" fy="-7986.34" r="183.22" gradientTransform="translate(-249.65 -603.48) rotate(-171.46) scale(.04 .07) skewX(-.19)" gradientUnits="userSpaceOnUse">
      <stop offset="0" stop-color="#ee352c"/>
      <stop offset="1" stop-color="#a91d22"/>
    </radialGradient>
  </defs>
  <path class="g" d="M60.8,47.01l-18.02,5.89-15.68,6.92-4.39,1.16c-1.12,1.06-2.29,2.14-3.56,3.23-1.39,1.2-2.68,2.29-3.68,3.08-1.1.87-2.74,2.51-3.57,3.54-1.24,1.55-2.22,3.2-2.64,4.47-.75,2.29-.38,4.6,1.06,6.74,1.85,2.72,5.54,5.5,9.85,7.4,2.19.97,5.89,2.21,8.66,2.9,4.62,1.17,13.56,2.44,18.47,2.63.99.04,2.33.04,2.38,0,.11-.07.87-1.53,1.76-3.34,3.02-6.17,5.2-11.96,6.39-16.91.71-3,1.27-6.99,1.63-11.72.1-1.32.14-5.75.05-7.25-.12-2.45-.34-4.44-.68-6.39-.05-.29-.07-.55-.04-.56.05-.04.22-.1,2.44-.74l-.45-1.06h0s0,0,0,0h0ZM56.69,49.43c.16,0,.6,4.18.71,6.83.03.56.01.93-.01.93-.11,0-2.3-1.29-3.87-2.27-1.36-.86-3.95-2.57-4.36-2.9-.14-.1-.12-.11.99-.49,1.89-.64,6.39-2.08,6.54-2.08ZM47.51,52.45c.12,0,.44.18,1.19.64,2.81,1.76,6.62,3.88,8.26,4.59.5.22.56.14-.6.93-2.48,1.69-5.57,3.35-9.36,5.03-.67.3-1.23.53-1.24.53-.03,0,.05-.34.16-.75.91-3.39,1.43-6.83,1.46-9.58q.01-1.36.14-1.4s-.01.01,0,.01h0ZM45.61,53.17c.08.08.03,3.13-.08,3.96-.25,1.99-.63,3.84-1.25,5.93-.15.5-.29.93-.31.95-.05.07-1.92-1.76-2.53-2.47-1.06-1.23-1.89-2.45-2.51-3.65-.31-.61-.8-1.81-.76-1.85.22-.15,7.4-2.93,7.45-2.87h0ZM36.7,56.67s.03,0,.04.01c.03.03.12.25.2.49.44,1.19,1.42,2.93,2.26,4.05.93,1.23,2.14,2.53,3.15,3.39.33.27.63.53.67.57.08.08.11.07-2.11.91-2.57.98-5.38,1.96-8.6,3-.77.25-1.54.5-2.3.75-.12.04-.08-.03.27-.59,1.59-2.49,4.02-7.38,5.38-10.84.23-.6.46-1.2.5-1.34.05-.19.12-.26.3-.35.1-.03.19-.05.23-.05h0ZM33.98,57.8s-.65,1.48-1.34,2.82c-1.32,2.57-2.77,5.11-4.7,8.19-.33.53-.64,1.02-.68,1.08-.07.1-.1.07-.31-.35-.46-.91-.84-2.08-1.05-3.16-.2-1.06-.16-2.92.07-4.06.18-.84.16-.83.57-1.04,1.74-.89,7.38-3.53,7.44-3.47h0ZM57.48,58.76v.57c0,3.04-.33,7.21-.8,10.24-.08.53-.15.97-.16.98,0,0-.4-.11-.86-.25-2.04-.64-4.26-1.58-6.27-2.68-1.32-.72-3.24-1.91-3.19-1.96.01-.01.59-.31,1.25-.67,2.67-1.39,5.23-2.89,7.45-4.37.83-.56,2.08-1.46,2.36-1.7l.22-.16h0ZM23.69,62.79c.05,0,.04.11-.04.6-.05.35-.12,1.01-.15,1.46-.11,1.99.22,3.46,1.2,5.48.27.56.49,1.02.48,1.04-.1.08-9.11,2.72-11.95,3.5-.84.23-1.58.44-1.63.45-.1.03-.11.01-.07-.22.31-2,1.84-4.62,3.96-6.83,1.42-1.47,2.55-2.33,4.48-3.43,1.39-.79,3.53-1.98,3.69-2.03,0-.01.01-.01.03-.01h0ZM44.94,66.59s.34.16.74.4c2.92,1.69,6.98,3.26,10.44,4.06l.31.07-.44.24c-1.81,1.01-7.77,3.49-13.85,5.76-.89.33-1.76.65-1.92.72-.16.07-.31.11-.31.1s.25-.49.56-1.08c1.7-3.19,3.42-7.07,4.29-9.77.11-.26.18-.49.19-.5h0ZM42.78,67.3s-.1.3-.23.63c-1.19,2.87-2.74,6.01-4.73,9.52-.5.9-.93,1.62-.94,1.62s-.42-.25-.91-.55c-2.89-1.77-5.45-3.95-7.12-6.06l-.25-.3,1.24-.34c4.44-1.21,8.21-2.52,11.96-4.13.53-.22.97-.4.98-.4ZM56.24,72s.01.01,0,0c.01.31-.68,3.12-1.25,5.15-.48,1.7-.89,3.04-1.63,5.39-.33,1.04-.61,1.89-.63,1.89s-.1-.01-.18-.04c-4.05-.74-7.67-1.76-11.08-3.12-.95-.38-2.32-.99-2.4-1.06-.03-.03.79-.41,1.83-.86,6.2-2.71,12.63-5.79,14.84-7.11.26-.16.46-.25.5-.25h0ZM25.16,73.06s-1.7,2.52-4.13,5.91c-.84,1.19-1.83,2.57-2.19,3.09-.37.52-.93,1.34-1.24,1.83l-.57.89-.61-.52c-.72-.6-1.98-1.88-2.53-2.59-1.17-1.46-1.96-3-2.28-4.4-.15-.65-.15-.98-.01-1.02.2-.05,3.84-.91,7.25-1.7,1.89-.44,4.09-.95,4.88-1.14.79-.19,1.43-.34,1.44-.34h0ZM26.91,73.73l.44.49c1.96,2.19,3.96,3.81,6.39,5.23.44.25.76.46.74.48-.1.07-8.42,3.02-12.27,4.36-2.17.76-3.95,1.38-3.96,1.38s-.14-.08-.27-.18l-.25-.18.4-.57c1.28-1.85,2.89-3.88,6.39-8.11l2.41-2.9h0ZM37.78,81.51s.61.2,1.35.48c1.77.67,3.17,1.09,5.05,1.57,2.32.59,5.67,1.16,7.64,1.32.3.03.46.05.41.1-.1.05-2.1.72-3.57,1.19-2.34.74-9.5,2.85-15.33,4.52-1.08.31-2,.57-2.06.59-.14.03-.59-.1-.59-.15,0-.03.33-.45.72-.91,1.96-2.34,3.91-4.96,5.53-7.44.45-.68.83-1.24.83-1.25h0ZM35.38,81.58s-.95,1.57-2.64,4.24c-.72,1.13-1.53,2.41-1.81,2.86-.27.44-.68,1.12-.91,1.5l-.4.69-.2-.05c-.49-.14-3.94-1.35-4.85-1.72-1.13-.45-2.3-.99-3.17-1.46-1.09-.59-2.45-1.46-2.34-1.48.03-.01,1.89-.52,4.14-1.13,5.97-1.62,9.28-2.56,11.44-3.24.4-.12.74-.22.75-.2h0ZM52.34,85.56h.01c.05.14-2.15,6.27-2.96,8.2-.18.44-.24.55-.34.53-.23-.01-3.43-.46-5.38-.75-3.39-.52-9.09-1.51-10.52-1.84l-.33-.07,2.03-.46c4.36-.98,6.46-1.51,8.58-2.17,2.68-.82,5.34-1.84,8.02-3.09.42-.19.78-.34.87-.35h0Z"/>
  <path class="f" d="M42.22,5c-.3-.04-5.14,1.7-8.26,2.97-4.21,1.72-7.48,3.35-9.5,4.77-.75.53-1.69,1.47-1.84,1.84-.05.14-.08.3-.08.46l1.83,1.73,4.35,1.39,10.34,1.85,11.82,2.03.12-1.02s-.07-.01-.11-.01l-1.55-.25-.31-.56c-1.61-2.83-3.38-6.35-4.41-8.72-.8-1.84-1.57-3.96-1.99-5.49-.23-.93-.26-.98-.41-.99h0s0,0,0,0h0ZM42,5.7h.01s.07.4.12.84c.23,1.91.65,3.75,1.32,5.74.5,1.5.5,1.42-.08,1.24-1.39-.38-7.62-1.46-12.12-2.08-.72-.1-1.34-.19-1.34-.2-.05-.05,3.26-1.78,4.71-2.47,1.87-.86,6.99-3,7.37-3.07ZM28.87,11.8l.53.18c2.89.98,10.15,2.37,14.15,2.7.45.04.83.08.84.08.01.01-.37.22-.86.45-1.93.97-4.06,2.15-5.53,3.07-.44.27-.83.49-.89.49s-.34-.05-.64-.1l-.54-.08-1.36-1.34c-2.4-2.33-4.28-4.13-5-4.81l-.71-.64ZM28.32,12.22l1.92,2.4c1.05,1.32,2.11,2.62,2.34,2.9.23.29.42.52.41.53-.05.04-2.78-.49-4.22-.82-1.48-.34-2.1-.5-3.01-.79l-.75-.25v-.19c.01-.91,1.17-2.28,3.13-3.66l.18-.12ZM44.64,15.49c.05,0,.12.12.29.49.46,1.02,1.91,3.77,2.26,4.3.11.18.3.19-1.62-.12-4.62-.75-6.1-.99-6.1-1.02,0-.01.14-.11.31-.2,1.43-.79,2.87-1.8,4.16-2.87.31-.26.6-.5.65-.55.01-.03.04-.04.05-.03Z"/>
  <path class="h" d="M22.72,14.39s-.3.48-.01,1.19c.18.44.69.97,1.28,1.51,0,0,6.06,5.91,6.8,6.76,3.35,3.87,4.81,7.68,4.95,12.94.08,3.38-.56,6.35-2.15,9.8-2.83,6.19-8.81,13.01-18.04,20.58l1.35-.45c.87-.65,2.06-1.35,4.84-2.87,6.42-3.52,13.64-6.74,22.49-10.07,12.75-4.8,33.72-10.41,45.65-12.23l1.24-.19-.19-.3c-1.09-1.69-1.84-2.74-2.74-3.86-2.62-3.24-5.79-5.87-9.67-8.05-5.34-2.98-12.25-5.31-20.99-7.04-1.65-.33-5.27-.95-8.21-1.4-6.24-.97-10.27-1.63-14.71-2.4-1.59-.27-3.98-.68-5.56-1.02-.82-.18-2.38-.55-3.61-.97-.98-.38-2.4-.76-2.7-1.92h0ZM26.24,17.79s.23.07.52.16c.52.18,1.19.38,1.98.6.6.16,1.2.32,1.8.48.82.2,1.5.4,1.51.4.1.1,1.47,4.5,1.93,6.18.18.64.31,1.19.3,1.19-.01.01-.16-.22-.34-.53-1.59-2.81-4.11-5.65-7.03-7.94-.38-.27-.67-.52-.67-.53ZM32.94,19.65c.07,0,.37.04.74.12,2.32.52,6.47,1.31,9.13,1.76.45.07.8.15.8.18s-.16.12-.37.23c-.45.23-2.26,1.31-2.86,1.72-1.51,1.01-2.87,2.1-3.86,3.08-.4.4-.74.72-.74.72,0,0-.08-.23-.15-.52-.49-1.89-1.51-4.7-2.44-6.68-.15-.31-.27-.6-.27-.63,0,.03,0,.01.01.01h0ZM44.74,21.89c.08.03.22.49.49,1.51.5,1.98.74,4.18.65,6.24-.03.57-.05,1.1-.08,1.17l-.04.14-.71-.23c-1.46-.46-3.83-1.16-5.86-1.73-1.16-.31-2.1-.6-2.1-.63,0-.08,1.69-1.77,2.41-2.41,1.38-1.21,5.11-4.1,5.23-4.06h0ZM45.68,22.03s5.64.93,8.19,1.42c1.89.37,4.65.94,4.81,1.01.08.03-.2.19-1.12.6-3.6,1.62-6.27,3.08-8.92,4.85-.69.46-1.28.84-1.29.84s-.03-.39-.03-.87c0-2.59-.52-5.2-1.47-7.41-.1-.22-.18-.42-.16-.44ZM60.16,24.89s-.14,1.14-.3,1.8c-.49,2.03-1.81,5.04-3.43,7.87-.29.5-.55.91-.57.93-.03.01-.39-.19-.82-.44-1.58-.93-3.38-1.8-5.34-2.62-.54-.23-1.02-.42-1.04-.45-.1-.08,4.29-2.98,6.61-4.37,1.84-1.12,4.84-2.78,4.89-2.72ZM61.2,25.05c.12,0,2.6.68,3.9,1.06,3.2.95,6.88,2.3,9.28,3.39l.99.45-.69.16c-5.86,1.35-10.87,2.9-15.71,4.86-.4.16-.75.3-.78.3s.11-.31.29-.69c1.46-3.09,2.4-6.32,2.63-9.07.01-.26.05-.46.1-.46h0ZM36.51,30.72s1.93.41,2.96.69c1.55.44,4.85,1.54,4.85,1.62,0,.01-.37.33-.8.71-1.78,1.48-3.5,3.05-5.56,5.04-.61.59-1.13,1.06-1.16,1.06s-.04-.08-.03-.19c.31-2.29.25-5.23-.19-8.21-.04-.38-.08-.71-.07-.72ZM76.31,30.76s-.87,1.44-1.44,2.25c-.82,1.17-2.02,2.72-4.73,6.13-1.43,1.8-3.04,3.83-3.57,4.51-.55.68-.99,1.25-1.01,1.25s-.19-.25-.38-.54c-1.53-2.29-3.35-4.29-5.52-6.09-.41-.34-.86-.71-1.01-.82-.15-.11-.27-.22-.27-.23,0-.04,2.32-1.04,4.07-1.74,3.08-1.25,7.27-2.75,10.42-3.72,1.65-.52,3.41-1.02,3.43-.99h0ZM77.35,31.03c.05-.01.38.15.78.38,3.31,1.89,6.55,4.33,9.11,6.84.72.71,2.51,2.56,2.48,2.57,0,0-.63.05-1.36.11-5.74.44-13.08,1.65-20.14,3.35-.48.11-.9.2-.93.2s.5-.53,1.17-1.17c4.14-3.99,6.04-6.51,8.27-11.01.31-.67.59-1.24.61-1.28t0,0h0ZM47.02,34.14c.19.04,1.96.87,3.3,1.54,1.23.61,3.07,1.59,3.16,1.68.01.01-.64.35-1.44.75-2.56,1.28-4.75,2.49-7.04,3.88-.65.4-1.2.72-1.21.72-.05,0-.04-.05.33-.72,1.23-2.23,2.21-4.9,2.77-7.51.05-.2.11-.34.15-.34h0ZM45.24,34.47s-.42,1.72-.71,2.63c-.56,1.73-1.5,3.9-2.41,5.53-.22.38-.55.94-.72,1.25l-.34.54-.76-.74c-.89-.86-1.61-1.39-2.53-1.87-.37-.19-.65-.35-.65-.38,0-.11,2.33-2.22,4.11-3.75,1.28-1.1,3.98-3.27,4.02-3.23h0ZM56.07,38.92l.67.44c1.53.99,3.32,2.32,4.7,3.47.78.64,2.27,1.99,2.57,2.32l.16.18-1.1.31c-6.24,1.73-11.06,3.27-16.69,5.34-.63.23-1.16.42-1.2.42-.08,0-.15.07,1.25-1.23,3.6-3.31,6.78-6.96,9.15-10.52l.48-.74h0ZM53.23,39.63s-1.84,2.66-2.96,4.14c-1.34,1.77-3.71,4.74-5.34,6.68-.68.8-1.27,1.47-1.29,1.49-.04.01-.05-.19-.05-.5,0-1.65-.42-3.41-1.16-4.9-.31-.63-.37-.78-.3-.84.26-.23,4.22-2.49,6.73-3.84,1.69-.9,4.33-2.23,4.37-2.21h0ZM36.01,43.85s.35.16.71.35c.87.48,1.65,1.01,2.34,1.58.03.03-.33.31-.79.65-1.29.93-3.26,2.41-4.4,3.32-1.2.95-1.24.98-1.1.78.9-1.38,1.35-2.15,1.83-3.15.42-.89.84-1.93,1.14-2.85.11-.4.25-.69.27-.69h0ZM40.6,47.45c.07-.01.15.11.52.65.78,1.16,1.38,2.71,1.53,3.96l.03.27-1.87.72c-3.34,1.29-6.42,2.57-8.5,3.53-.59.27-1.61.76-2.27,1.09-.67.34-1.21.6-1.21.59s.42-.33.94-.71c4.07-2.96,7.6-6.2,10.24-9.44.29-.34.55-.65.57-.67h.03s0,0,0,0ZM38.49,47.97c.05.05-1.5,1.81-2.56,2.89-2.63,2.68-5.23,4.78-8.46,6.83-.41.26-.78.49-.82.52-.1.05.03-.08,1.44-1.62.9-.97,1.58-1.78,2.36-2.79.52-.67.61-.76,1.36-1.29,2-1.44,6.62-4.58,6.68-4.52Z"/>
</svg>