<?xml version="1.0" encoding="utf-8"?>
<svg version="1.1" width="100" height="100" xmlns="http://www.w3.org/2000/svg" xmlns:xlink="http://www.w3.org/1999/xlink">
  <defs>
    <style>
      .e {
        fill: url(#c);
      }

      .e, .f {
        stroke-width: 0px;
      }

      .f {
        fill: url(#b);
      }
    </style>
    <linearGradient id="b" data-name="2" x1="13.05" y1="720" x2="86.05" y2="720" gradientTransform="translate(0 770) scale(1 -1)" gradientUnits="userSpaceOnUse">
      <stop offset="0" stop-color="#4190ff"/>
      <stop offset="1" stop-color="#1be1f6"/>
    </linearGradient>
    <linearGradient id="c" data-name="2" x1="13.05" y1="720" x2="86.05" y2="720" xlink:href="#b"/>
  </defs>
  <path class="f" d="M26.09,71.09c-11.63,0-21.09-9.46-21.09-21.09s9.46-21.09,21.09-21.09c5.55-.01,10.89,2.18,14.82,6.09l.02.02,5.69,5.69-5.89,5.89-5.68-5.68c-5.01-4.95-13.09-4.89-18.03.12-4.95,5.01-4.89,13.09.12,18.03,4.99,4.92,13.02,4.9,17.97-.06l5.83-5.83,5.89,5.89-5.83,5.83c-3.95,3.97-9.32,6.19-14.91,6.18Z"/>
  <path class="e" d="M73.91,71.09c-5.54.01-10.87-2.17-14.81-6.07l-.04-.04-14.83-15.04,14.76-14.85c3.95-3.97,9.31-6.19,14.91-6.18,11.63,0,21.09,9.46,21.09,21.09s-9.46,21.09-21.09,21.09ZM64.98,59.1c5.03,4.93,13.1,4.86,18.03-.17,4.93-5.03,4.86-13.1-.17-18.03-4.99-4.9-13-4.86-17.95.08l-8.93,8.98,9.01,9.14Z"/>
</svg>