<?xml version="1.0" encoding="utf-8"?>
<svg version="1.1" width="100" height="100" xmlns="http://www.w3.org/2000/svg">
<style type="text/css">
	.st0{fill:#3266CC;}
	.st1{fill:#CCCCCC;}
</style>
<g id="qiuwenbaike_on_dark">
	<polygon class="st0" points="20,14.1 20,10 5,10 5,12 5,14.1 5,85.9 5,88.8 5,90 20,90 20,85.9 9.1,85.9 9.1,14.1 	"/>
	<polygon class="st0" points="95,14.1 95,10 80,10 80,14.1 90.9,14.1 90.9,85.9 80,85.9 80,90 95,90 95,85.9 95,85.9 95,14.1 	"/>
	<path class="st1" d="M27.6,71.9L27.6,71.9c0.6-0.1,1.4-0.1,1.9-0.5c1.7-1.3,3.4-2.7,5.1-4.1c3.3-2.9,6.2-6.1,9-9.4
		c1-1.2,1.9-2.5,2.4-4.1c0.3-1,1-1.9,1.6-2.7c0.9-1,1.1-2,0.4-3.2c-1-1.7-0.9-3.5-0.7-5.4c0.1-1.1,0-1.4-1-1.8
		c-3.6-1.5-7.2-3.2-11-4c-0.4-0.1-1.1-0.2-1.1-0.2s1.3-0.6,1.9-0.8c4.3-1.2,8.3-3.1,11.9-5.8c0.2-0.1,0.4-0.4,0.4-0.5
		c-0.2-1.7-0.3-3.4-1.2-4.9c-0.5-1-1.3-1.7-2.5-1.8c-0.4,0-0.7-0.3-0.6-0.7c0.3-2.3,0.9-4.5,3.2-5.7c1-0.5,2-1.1,3-1.6
		c0.1-0.1,0.4,0,0.5,0.1c1.7,1.8,3.3,3.7,5,5.5c0.7,0.9,1.3,1.8,0.9,3.1c-0.2,0.5,0.4,0.5,0.8,0.6c0.9,0.1,1.8,0.1,2.7,0.3
		c1.2,0.2,2.3,0.7,3.2,1.5c1.1,0.9,1.1,1.7,0.2,2.7c-0.8,0.8-1.6,1.6-2.5,2.3c-3,2.3-4.7,5.3-5.3,8.9c-0.6,3.8-1,7.6-1.5,11.4
		c-0.1,0.8-0.1,1.7-0.1,2.5c0,0.4,0.1,0.5,0.4,0.3c0.6-0.3,1.2-0.6,1.7-1.1c2.6-2.3,5-4.9,7.2-7.6c0.9-1.1,1.5-2.4,1.4-4
		c0-0.7-0.3-1.2-0.9-1.6c-0.3-0.2-0.6-0.6-0.9-0.9c0.4-0.2,0.8-0.3,1.2-0.5c0.2-0.1,0.4-0.1,0.6-0.1c1.1-0.2,1.2-0.2,1.4-1.3
		c0.1-0.6,0.2-0.5,0.6-0.2c1.7,1.4,2,3.4,2.4,5.4c0.5,2.6-0.4,4.5-2.2,6.3c-1.2,1.2-2.5,2.2-4,3c-3.3,1.7-6.3,3.9-9.1,6.3
		c-0.3,0.2-0.4,0.6-0.6,0.8c0.3,0.2,0.6,0.5,1,0.6c1.5,0.3,3.1,0.4,4.5-0.3c2.1-1.1,4.3-1,6.5-0.6c0.6,0.1,1.4-0.2,2.1-0.2
		c0.4,0,0.9,0,1.2,0.2c2.2,1.5,3.7,3.5,4.4,6.1c0.1,0.3,0.1,0.7,0.1,1.1c0,1-0.5,1.5-1.6,1.7c-0.9,0.1-1.8,0.3-2.6,0.6
		c-1.4,0.5-2.6,0.2-3.7-0.5c-0.8-0.5-1.5-1.2-2.2-1.9c-2.4-2.3-5.4-3.4-8.6-3.8c-0.6-0.1-0.9,0.2-1,0.7c-0.3,1.7-0.6,3.5-0.8,5.2
		c-0.5,5.1-0.6,10.1-0.5,15.2c0,0.1,0,0.2,0,0.2c0,1.7-0.4,2.2-2,2.5c-2.5,0.6-4.7,0.1-6.6-1.6c-1.4-1.3-2.7-2.5-4-3.9
		c-0.7-0.7-1.3-1.6-1-2.7c0.1-0.6,0.4-0.8,1-0.5c1,0.5,2,1,3,1.5c0.3,0.1,0.6,0.2,0.9,0.3c1.1,0.2,1.4,0,1.8-1.1
		c0.8-1.9,0.7-3.8,0.4-5.8c-0.3-2.2-0.2-4.5-0.2-6.8c0-1.9,0.1-3.8,0.2-5.7c0-0.1-0.1-0.3-0.1-0.4c-0.1,0.1-0.2,0.2-0.3,0.3
		c-1,1.6-2,3.1-3,4.7c-3.2,5.2-6.8,10.1-10.9,14.6c-0.8,0.8-1.7,1.5-2.6,2.1c-0.9,0.7-1.9,0.6-2.9,0c-1.8-1-2.7-2.5-2.4-4.6
		c0.1-0.7,0.1-1.4,0.2-2.1c0.2-1.7,0.7-3.2,2-4.5c2.1-2.2,3.4-4.9,4.8-7.6c0.6-1.3,1.1-2.6,1.6-3.9c0.4-1,0-1.6-1-1.8
		c-2-0.5-3.7-1.5-5.2-2.8c-1.1-0.9-1.1-1.1,0.1-1.7c1.8-0.9,3.7-1.8,5.6-2.7c1.1-0.5,2.3-0.4,3.4,0c1.2,0.4,2.3,0.9,3.4,1.4
		c1.7,0.8,2.1,2.4,1.3,4c-0.3,0.5-0.7,1-1.1,1.5c-2.4,2.9-4.9,5.6-7.1,8.6c-1.5,2-2.9,4.1-3.6,6.6C27.4,71.2,27.5,71.6,27.6,71.9"/>
	<path class="st1" d="M81,24.2c0,0.7-0.5,1.4-1,1.9c-0.7,0.8-1.6,1.5-2.4,2.1c-0.8,0.6-1.5,0.5-2.2-0.2c-0.7-0.8-1.3-1.7-1.9-2.6
		c-0.6-0.9-1-1.8-1.6-2.7c-0.6-1-1.4-1.7-2.6-2c-0.1,0-0.3-0.2-0.4-0.3c0.1-0.1,0.2-0.2,0.3-0.3c0.8-0.6,1.6-1.2,2.4-1.9
		c0.7-0.6,1.5-0.6,2.3-0.4c2.8,0.6,4.9,2.1,6.4,4.4C80.7,22.8,81.1,23.5,81,24.2z"/>
</g>
</svg>
