<?xml version="1.0" encoding="utf-8"?>
<svg version="1.1" width="100" height="100" xmlns="http://www.w3.org/2000/svg">
  <defs>
    <style>
      .cls-1 {
        fill: #f60;
        stroke-width: 0px;
      }
    </style>
  </defs>
  <path class="cls-1" d="M86.9,41.5h-26.7c-1.3,0-2.4-1.1-2.4-2.4V11.2c0-2.1-1.7-3.7-3.7-3.7h-9.5c-2.1,0-3.7,1.7-3.7,3.7v27.7c0,1.4-1.2,2.6-2.6,2.6h-8.8c-1.4,0-2.6-1.1-2.6-2.6V11.2c0-2.1-1.6-3.7-3.7-3.7h-9.5c-2.1,0-3.7,1.7-3.7,3.7v78c0,1.8,1.5,3.3,3.3,3.3h73.7c1.8,0,3.3-1.5,3.3-3.3v-44.4c0-1.8-1.5-3.3-3.3-3.3ZM74.3,70.8c0,2.4-1.9,4.3-4.3,4.3h-7.5c-2.4,0-4.3-1.9-4.3-4.3v-7.5c0-2.4,1.9-4.3,4.3-4.3h7.5c2.4,0,4.3,1.9,4.3,4.3v7.5h0Z"/>
</svg>