<?xml version="1.0" encoding="utf-8"?>
<svg version="1.1" width="100" height="100" xmlns="http://www.w3.org/2000/svg">
<style type="text/css">
	.st0{fill:#2453FF;}
</style>
<g id="rancher">
	<path class="st0" d="M95,38.1l-1-5.8c-0.3-1.9-1-3.4-1.6-3.4c-0.6,0-1.1,1.6-1.1,3.5v1.5c0,1.9-1.6,3.5-3.5,3.5h-1.5
		c-0.1,0-0.2,0-0.3,0v4.2c0.1,0,0.2,0,0.3,0H92C94,41.5,95.3,40,95,38.1"/>
	<path class="st0" d="M81.1,33.2h-9.4c-0.1,0-0.1,0-0.2,0H62c-0.1,0-0.2,0-0.3,0v-0.9c0-1.9-0.5-3.5-1.1-3.5s-1.3,1.5-1.6,3.4
		l-1,5.8c-0.3,1.9,1,3.4,2.9,3.4h5.8c0.6,0,1.2-0.1,1.6-0.3c-0.2,1-1,1.7-2.1,1.7h-8.1c-1.3,0-2.3-1.2-2.1-2.5l0.8-4.9
		c0.2-1.3-0.8-2.5-2.1-2.5H14.6c-0.9,0-1.6,0.5-1.9,1.3L5.1,46c-0.1,0.2-0.1,0.4,0,0.6l1.5,1.8c0.2,0.2,0.5,0.3,0.7,0.1l5.1-4V69
		c0,1.2,0.9,2.1,2.1,2.1H26c1.2,0,2.1-0.9,2.1-2.1v-8.5c0-1.2,0.9-2.1,2.1-2.1h28.5c1.2,0,2.1,0.9,2.1,2.1V69c0,1.2,0.9,2.1,2.1,2.1
		h11.4c1.2,0,2.1-0.9,2.1-2.1v-9.3h-6.1c-1.9,0-3.5-1.6-3.5-3.5v-5.9c0-1.1,0.5-2.1,1.4-2.7v7.1c0,1.9,1.6,3.5,3.5,3.5h9.3
		c1.9,0,3.5-1.6,3.5-3.5v-18C84.6,34.7,83,33.2,81.1,33.2"/>
</g>
</svg>
