<?xml version="1.0" encoding="utf-8"?>
<svg version="1.1" width="100" height="100" xmlns="http://www.w3.org/2000/svg">
  <defs>
    <style>
      .cls-1 {
        fill: #ff4438;
        stroke-width: 0px;
      }
    </style>
  </defs>
  <path class="cls-1" d="M78.59,42.55c.85-1.51,2.25-3.14,2.75-3.65,2.33.97,4.5,2.95,4.19,3.45-.89,1.47-2.25,3.14-2.75,3.65-2.33-.97-4.5-2.91-4.19-3.45ZM95,49.22c-.27,1.32-1.9,2.79-2.6,3.03-.58-1.24-1.24-1.98-1.86-1.98-.78,0-.81.54-.81,1.24,0,1.24.89,3.96.89,6.79,0,3.1-2.17,5.39-5.51,5.39-3.05,0-4.74-2-5.5-5.2-2,3.58-4.91,5.2-7.15,5.2-3.5,0-4.32-2.58-4.24-5.21-1.41,2.48-4.11,5.21-6.7,5.21s-3.58-2.3-3.37-4.99c-1.59,2.95-4.46,4.99-7.22,4.99-3,0-4.49-2.38-4.01-5.34-2.02,2.48-5.78,5.34-9.69,5.34-4.46,0-6.4-2.4-6.63-5.41-2.15,3.45-5.05,5.53-8.5,5.53-4.98,0-6.77-4.43-7.03-8.06-1.85,2.47-3.92,5.04-6.47,7.9-.27.27-.5.43-.78.43-.89,0-2.72-3.96-2.83-5.43,1.03-1.61,9.49-10.73,13.01-14.65-2.38.72-4.83,2.15-7.93,4.37-.54.39-2.06-3.14-2.02-5.86,3.57-2.64,9-4.31,13.38-4.31,6.13,0,9.66,3.41,9.66,8.15,0,3.96-3.3,8.3-8.11,8.46-2.5.06-4.1-1.34-4.92-3.07.1,2.68,1.49,5.98,5.23,5.98,4.34,0,6.28-2.79,9.54-6.87,2.48-3.06,5.35-5.78,9.54-5.78,2.56,0,4.31,1.59,4.31,4,0,2.91-3.41,6.94-8.19,6.94-.81,0-1.56-.11-2.18-.32-.02.12-.03.24-.03.36,0,1.36.5,2.17,2.72,2.17,3.26,0,6.32-1.94,10.05-6.48,3.65-4.46,6.4-6.4,9.31-6.4,1.96,0,3.45,1.06,4.11,2.86,3.9-5.63,7.21-9.62,10.01-12.28,2.75,1.16,4.73,3.45,4.19,3.92-2.06,1.86-8.92,9.35-11.64,13.81-.7,1.16-1.36,2.44-1.36,3.06,0,.58.35.78.74.78,2.56,0,8.65-8.3,12.1-11.95,2.17.89,4.38,2.79,3.84,3.45-2.87,3.41-5.04,6.21-5.04,7.8,0,.43.16.7.74.7,1.09,0,2.09-.97,3.76-3.03.35-.43.78-.43,1.05.23.74,1.78,1.82,2.75,2.68,2.75,1.01,0,1.51-.89,1.51-2.25,0-1.63-.35-3.72-.35-4.66,0-3.14,2.33-4.97,5.24-4.97,2.17,0,4.11,1.05,5.04,3.65ZM23.29,43.57c-1.31,2.04-2.52,3.95-3.75,5.81.67.37,1.51.66,2.61.66,2.06,0,4.31-1.12,4.31-3.41,0-1.39-.86-2.67-3.17-3.06ZM36.92,53.98c.41.16.89.25,1.4.25,2.75,0,4.62-2.09,4.62-3.49,0-.62-.39-1.05-1.01-1.05-1.56,0-3.9,2.18-5.01,4.29ZM60.01,51.09c0-.78-.43-1.24-1.13-1.24-2.29,0-5.74,4.34-5.74,6.52,0,.7.39,1.16,1.2,1.16,2.52,0,5.66-4.58,5.66-6.44Z"/>
</svg>