<?xml version="1.0" encoding="utf-8"?>
<svg version="1.1" width="100" height="100" xmlns="http://www.w3.org/2000/svg">
  <defs>
    <style>
      .cls-1 {
        fill: #091a23;
      }

      .cls-1, .cls-2, .cls-3, .cls-4, .cls-5 {
        stroke-width: 0px;
      }

      .cls-2 {
        fill-rule: evenodd;
      }

      .cls-2, .cls-5 {
        fill: #fff;
      }

      .cls-3 {
        fill: #ff4438;
      }

      .cls-4 {
        fill: #6b2b2b;
      }
    </style>
  </defs>
  <g>
    <polygon class="cls-3" points="11.2 27.6 50 50 50 94.8 11.2 72.4 11.2 27.6"/>
    <path class="cls-1" d="M49.9,95l-38.8-22.4v-.2c-.1,0-.1-44.8-.1-44.8l.4-.2,38.8,22.4v.2c.1,0,.1,44.8.1,44.8l-.4.2ZM11.5,72.2l38.2,22.1v-44.2L11.5,28.1v44.2Z"/>
  </g>
  <g>
    <polygon class="cls-4" points="50 50 88.8 27.6 88.8 72.4 50 94.8 50 50"/>
    <path class="cls-1" d="M50.1,95l-.4-.2v-45c.1,0,38.9-22.4,38.9-22.4l.4.2v45c-.1,0-38.9,22.4-38.9,22.4ZM50.3,50.2v44.2l38.2-22.1V28.1l-38.2,22.1Z"/>
  </g>
  <g>
    <polygon class="cls-3" points="50 5.2 88.8 27.6 50 50 11.2 27.6 50 5.2"/>
    <path class="cls-1" d="M50.1,50.2h-.3L11.1,27.8v-.5L49.9,5h.3l38.8,22.4v.5l-38.8,22.4ZM11.8,27.6l38.2,22.1,38.2-22.1L50,5.5,11.8,27.6Z"/>
  </g>
  <path class="cls-2" d="M64.1,33.5l-9.8-5.7,9.8-5.7,9.8,5.7-9.8,5.7Z"/>
  <path class="cls-2" d="M49.9,42.5l-11.1-6.4,15.9-2.8-4.8,9.2h0s0,0,0,0Z"/>
  <path class="cls-2" d="M39.3,30.9c-2.7,1.6-7.1,1.6-9.8,0-2.7-1.6-2.7-4.1,0-5.7,2.7-1.6,7.1-1.6,9.8,0,2.7,1.6,2.7,4.1,0,5.7Z"/>
  <path class="cls-5" d="M56,16.3c.2,1.1.5,2.3-1.3,3.4-1.6.9-3.7.5-4.9-.2,1.1.2,2.4.2,3.5-.5,2-1.3,1.6-3.2-.1-4.2-2.1-1.2-5.1-1.2-7.8.4-1.9,1.1-3.6,2.9-4,4.5,1.2.7,3.4,1.2,3.4,1,.4-1.3.8-2.3,1.6-3.1.2,1.9.4,6.3.7,7,.7.3,3.2.9,3.6.7.1,0,.2-.2.2-.3-.1-1.4-.3-2.5-.6-3.6,1.7.8,4.4,1.5,6.6.3,1.9-1.1,2.5-3.1.2-5.4-.3-.3-1.1-.2-1,.2h0ZM51.2,16.1c1,.6.5,1.4-.4,1.9-.5.3-1,.4-1.4.5-.3-.8-.6-1.6-.9-2.4,1.2-.5,2.1-.4,2.7,0h0Z"/>
  <path class="cls-1" d="M50.1,80.1h-.3L11.1,57.7v-.2c-.1,0-.1-14.9-.1-14.9l.4-.2,38.6,22.3,38.6-22.3.4.2v14.9s-.1.2-.1.2l-38.8,22.4ZM11.5,57.3l38.5,22.2,38.5-22.2v-14.3s-38.4,22.2-38.4,22.2h-.3L11.5,43v14.3Z"/>
</svg>