<?xml version="1.0" encoding="utf-8"?>
<svg version="1.1" width="100" height="100" xmlns="http://www.w3.org/2000/svg">
  <defs>
    <style>
      .cls-1 {
        fill: #ff4438;
        stroke-width: 0px;
      }
    </style>
  </defs>
  <path class="cls-1" d="M90.17,54.3c-6.23,7.84-12.95,16.81-26.4,16.81-12.01,0-16.49-10.59-16.8-19.2,2.63,5.56,7.78,10.07,15.8,9.86,15.44-.5,26.02-14.44,26.02-27.14,0-15.19-11.33-26.15-31-26.15-14.07,0-31.5,5.35-42.96,13.82-.12,8.72,4.73,20.05,6.47,18.8,9.93-7.14,17.81-11.74,25.44-14.04-11.31,12.61-38.43,41.88-41.75,47.04.37,4.73,6.23,17.43,9.09,17.43.87,0,1.62-.5,2.49-1.37,8.18-9.19,14.84-17.43,20.77-25.37.83,11.64,6.56,25.87,22.56,25.87,14.32,0,28.51-10.33,34.99-33.62.75-2.86-2.74-5.1-4.73-2.74ZM73.85,35.49c0,7.35-7.22,10.96-13.82,10.96-3.53,0-6.24-.93-8.38-2.13,3.94-5.97,7.85-12.09,12.04-18.65,7.39,1.25,10.16,5.36,10.16,9.82Z"/>
</svg>