<?xml version="1.0" encoding="utf-8"?>
<svg version="1.1" width="100" height="100" xmlns="http://www.w3.org/2000/svg">
<style type="text/css">
	.st0{fill:#FD6500;}
	.st1{fill:none;stroke:#FD6500;stroke-width:2.8346;stroke-linecap:round;stroke-linejoin:round;stroke-miterlimit:11.3386;}
</style>
<g id="rocketmq">
	<path id="path1452" class="st0" d="M47.9,93c-1.9-2.4-4.1-7.1-4.6-9.7L43,81.4h6.9c5.4,0,6.9,0.1,6.9,0.6c0,1.3-1.5,5.8-2.7,7.7
		c-1.2,2.2-3.8,5.3-4.3,5.2C49.6,95,48.8,94.1,47.9,93z M30.9,77.3c-4.7-11.3-4.6-25.4,0.2-39.9c2.9-8.8,9.9-21.3,16.5-29.6L49.9,5
		l1.6,1.9c2.9,3.3,9.8,14,12.3,18.9c4.9,9.7,7.7,18.7,8.5,27.9c0.7,8.6-0.7,18.1-3.6,24.5l-1.3,2.7l-2.7-1.6l-2.7-1.6H49.8
		c-9.2,0-12.3,0.1-13,0.6c-0.5,0.3-1.7,1.1-2.6,1.7l-1.7,1L30.9,77.3z M65.9,70.6c2.9-9.8,2-23.5-2.4-35c-2.6-6.8-7.8-16.2-12-21.6
		c-1.3-1.7-1.5-1.7-2.3-1c-1.7,1.5-7,9.8-9.5,15c-7.2,14.5-9.3,30-5.7,42.4l0.7,2.5H50h15.3L65.9,70.6z M17.4,79.4
		c0.1-0.6,0.4-2.1,0.6-3.4c0.3-2.1,0.7-2.7,3.3-5.4l3-3.1l0,1.9c0,2.4,1.1,6.7,2.4,9.2l1,1.9h-5.2C17.2,80.4,17.2,80.4,17.4,79.4
		L17.4,79.4z M73.5,78c1-2.3,2-6.1,2.3-8.8c0.1-1.1,0.2-1.1,2.9,1.4c2.6,2.5,2.8,2.8,3.4,6.1c0.4,1.9,0.7,3.6,0.7,3.6
		c0,0.1-2.3,0.1-5.1,0.1h-5.1L73.5,78z"/>
	<circle id="path1454" class="st1" cx="49.2" cy="52.9" r="7.2"/>
	<circle id="path1456" class="st0" cx="40.5" cy="42.9" r="2.5"/>
	<circle id="path1456-3" class="st0" cx="39.1" cy="61" r="3"/>
	<circle id="path1456-3-6" class="st0" cx="58.7" cy="42.5" r="4"/>
	<circle id="path1456-3-7" class="st0" cx="58.7" cy="65.4" r="5.3"/>
	
		<rect id="rect1494" x="41.4" y="43.6" transform="matrix(0.7071 -0.7071 0.7071 0.7071 -19.6586 43.5288)" class="st0" width="2.6" height="3.9"/>
	
		<rect id="rect1494-5" x="53.4" y="44.7" transform="matrix(0.7071 -0.7071 0.7071 0.7071 -16.4431 52.6358)" class="st0" width="3.9" height="2.9">
	</rect>
	
		<rect id="rect1494-5-3" x="39.9" y="57.4" transform="matrix(0.7071 -0.7071 0.7071 0.7071 -29.2429 46.768)" class="st0" width="3.9" height="2.6">
	</rect>
	<polygon id="rect1494-5-5" class="st0" points="52.5,60.4 54.8,58.2 57.7,61 55.4,63.2 	">
	</polygon>
	<circle id="path1543" class="st0" cx="46" cy="53.3" r="1"/>
	<circle id="path1543-6" class="st0" cx="49" cy="53.3" r="1"/>
	<circle id="path1543-2" class="st0" cx="52" cy="53.3" r="1"/>
</g>
</svg>
