<?xml version="1.0" encoding="utf-8"?>
<svg version="1.1" width="100" height="100" xmlns="http://www.w3.org/2000/svg">
  <defs>
    <style>
      .cls-1 {
        fill: #ea6d29;
      }

      .cls-2 {
        fill: #1f63a6;
      }
    </style>
  </defs>
  <g>
    <path class="cls-2" d="M80.64,49.37c-4.67,0-8.46,3.79-8.46,8.46h0c0,3.43,0,5.8,0,8.45h4.85c0-.64,0-2.08,0-3.4,2.46,0,5.74,0,7.25,0,0,1.32-.02,2.46-.02,3.4h4.85v-8.45c0-4.67-3.79-8.46-8.46-8.46ZM77.03,57.83c0-1.99,1.62-3.61,3.61-3.61s3.61,1.62,3.61,3.61h-7.22Z"/>
    <path class="cls-2" d="M65.94,49.37h4.85c0,5.59,0,16.29,0,16.91h-4.85c0-5.43,0-16.27,0-16.91Z"/>
    <polygon class="cls-2" points="52.77 57.36 52.77 66.28 47.93 66.28 47.93 45.33 59.71 57.83 59.71 49.37 64.56 49.37 64.56 69.86 52.77 57.36"/>
    <path class="cls-2" d="M38.09,49.37c-4.67,0-8.46,3.79-8.46,8.46h0c0,3.43,0,5.8,0,8.45h4.85c0-.64,0-2.08,0-3.4,2.46,0,5.74,0,7.25,0,0,1.32-.02,2.46-.02,3.4h4.85v-8.45c0-4.67-3.79-8.46-8.46-8.46ZM34.47,57.83c0-1.99,1.62-3.61,3.61-3.61s3.61,1.62,3.61,3.61h-7.22Z"/>
    <path class="cls-2" d="M23.4,66.28c0-1.37,0-4.85,0-4.85l-3.55,3.58-3.55-3.58v4.85h-4.85v-16.91s8.4,8.46,8.4,8.46l8.39-8.46v16.91s-2.91,0-4.85,0Z"/>
  </g>
  <g>
    <g>
      <path class="cls-1" d="M78.01,34.99v-4.85h16.99v4.85h-16.99Z"/>
      <path class="cls-1" d="M78.01,41.03v-4.85h16.99v4.85h-16.99Z"/>
      <path class="cls-1" d="M78.01,47.06v-4.85h16.99v4.85h-16.99Z"/>
    </g>
    <path class="cls-1" d="M76.62,35.59c0-3-2.15-5.44-4.8-5.44-.01,0-.03,0-.04,0h0c-3.26-.03-8.65,0-12.07,0,0,5.76,0,11.35,0,16.91h4.85v-6.03h3.68l3.54,6.03h4.85c-1.06-1.97-2.59-4.35-3.63-6.2,2.09-.59,3.63-2.72,3.63-5.27ZM64.56,34.99h7.22v1.18h-7.22c0-.19,0-1,0-1.18Z"/>
    <path class="cls-1" d="M49.87,30.15c-4.67,0-8.46,3.79-8.46,8.46h0c0,3.43,0,5.8,0,8.45h4.85c0-.64,0-2.08,0-3.4,2.46,0,5.74,0,7.25,0,0,1.32-.02,2.46-.02,3.4h4.85v-8.45c0-4.67-3.79-8.46-8.46-8.46ZM46.26,38.61c0-1.99,1.62-3.61,3.61-3.61s3.61,1.62,3.61,3.61h-7.22Z"/>
    <path class="cls-1" d="M35.18,36.18v-6.03h4.85c0,5.49,0,11.22,0,16.91h-4.85c0-1.52,0-3.62,0-6.03h-6.92v6.03h-4.85c0-1.78,0-15.66,0-16.91h4.85c0,1.07-.01,4.14-.01,6.03h6.93Z"/>
    <path class="cls-1" d="M22.03,34.99v-4.85h-12.23c-2.65,0-4.81,2.44-4.81,5.44s2.15,5.44,4.81,5.44h7.42v1.18H5v4.85h12.23c2.65,0,4.81-2.44,4.81-5.44s-2.15-5.44-4.81-5.44h0c-.87,0-6.78,0-7.42,0v-1.18h12.23Z"/>
  </g>
</svg>