<?xml version="1.0" encoding="utf-8"?>
<svg version="1.1" width="100" height="100" xmlns="http://www.w3.org/2000/svg">
  <defs>
    <style>
      .c {
        fill: #0068af;
      }

      .c, .d {
        stroke-width: 0px;
      }

      .d {
        fill: #d8d8d8;
      }
    </style>
  </defs>
  <path class="c" d="M32.56,61.9c0,5.8-3.62,12-15.1,12-4.31,0-7.41-.4-10.16-1.03-.57-.11-1.09-.52-1.09-1.15v-4.13c0-.63.52-1.09,1.09-1.09h.11c2.3.29,8.04.57,10.16.57,5.11,0,6.66-1.84,6.66-5.17,0-2.24-1.09-3.39-4.88-5.63l-7.58-4.54c-5.34-3.16-6.78-6.49-6.78-10.51,0-6.32,3.68-10.91,14.36-10.91,3.79,0,9.07.57,11.03,1.03.57.11,1.03.52,1.03,1.09v4.25c0,.57-.4,1.03-.98,1.03h-.11c-3.79-.34-7.58-.57-11.31-.57-4.25,0-6.03,1.49-6.03,4.08,0,1.89.98,3.04,4.71,5.11l6.89,3.85c6.32,3.5,7.98,7.18,7.98,11.71h0Z"/>
  <path class="c" d="M79.49,42.49c0-.64-.53-1.17-1.17-1.17h-5.52c-.58,0-.98.52-1.04,1.04l-3.63,24.37c-.06.52-.17.81-.29.81s-.29-.23-.4-.81l-4.78-19.36c-.58-2.25-1.27-2.48-3.23-2.48h-3.98c-1.96,0-2.65.23-3.23,2.48l-4.78,19.36c-.12.58-.29.81-.4.81s-.23-.29-.29-.81l-3.63-24.37c-.06-.52-.46-1.04-1.04-1.04h-5.53c-.64,0-1.17.53-1.17,1.17h0v.16l5.22,26.43c.69,3.45,1.61,4.83,5.11,4.83h1.55c3.1,0,4.71-1.49,5.45-4.48l4.54-17.58c.06-.23.06-.29.17-.29,0,0,0,0,0,0,0,0,0,0,0,0,.11,0,.11.06.17.29l4.54,17.58c.75,2.99,2.35,4.48,5.45,4.48h1.55c3.5,0,4.42-1.38,5.11-4.83l5.22-26.43v-.16h0Z"/>
  <path class="d" d="M67.45,32.32c.85-.19,1.73-.31,2.61-.35,8.84-.46,16.39,6.37,16.86,15.26.16,3.04-.57,6.06-2.03,8.68,6.24-2.22,10.46-8.31,10.1-15.26-.44-8.46-7.64-14.98-16.05-14.54-4.6.24-8.8,2.58-11.48,6.2Z"/>
</svg>