<?xml version="1.0" encoding="utf-8"?>
<svg version="1.1" width="100" height="100" xmlns="http://www.w3.org/2000/svg">
  <defs>
    <style>
      .c {
        fill: #126ed3;
        stroke-width: 0px;
      }
    </style>
  </defs>
  <path class="c" d="M92.09,52.91c-1.61,0-2.91-1.3-2.91-2.91,0-21.61-17.57-39.18-39.18-39.18-1.61,0-2.91-1.3-2.91-2.91s1.3-2.91,2.91-2.91c24.81,0,45,20.19,45,45,0,1.61-1.3,2.91-2.91,2.91Z"/>
  <path class="c" d="M50,95c-24.81,0-45-20.19-45-45,0-1.61,1.3-2.91,2.91-2.91s2.91,1.3,2.91,2.91c0,21.61,17.57,39.18,39.18,39.18,1.61,0,2.91,1.3,2.91,2.91s-1.3,2.91-2.91,2.91Z"/>
  <path class="c" d="M62.63,52.91c-1.61,0-2.91-1.3-2.91-2.91,0-5.35-4.36-9.72-9.72-9.72-1.61,0-2.91-1.3-2.91-2.91s1.3-2.91,2.91-2.91c8.57,0,15.54,6.96,15.54,15.54,0,1.61-1.3,2.91-2.91,2.91Z"/>
  <path class="c" d="M50,65.54c-8.57,0-15.54-6.96-15.54-15.54,0-1.61,1.3-2.91,2.91-2.91s2.91,1.3,2.91,2.91c0,5.35,4.36,9.72,9.72,9.72,1.61,0,2.91,1.3,2.91,2.91s-1.3,2.91-2.91,2.91Z"/>
  <path class="c" d="M77.35,52.91c-1.61,0-2.91-1.3-2.91-2.91,0-13.48-10.96-24.44-24.44-24.44-1.61,0-2.91-1.3-2.91-2.91s1.3-2.91,2.91-2.91c16.68,0,30.26,13.58,30.26,30.26,0,1.61-1.3,2.91-2.91,2.91Z"/>
  <path class="c" d="M50,80.26c-16.68,0-30.26-13.58-30.26-30.26,0-1.61,1.3-2.91,2.91-2.91s2.91,1.3,2.91,2.91c0,13.48,10.96,24.44,24.44,24.44,1.61,0,2.91,1.3,2.91,2.91s-1.3,2.91-2.91,2.91Z"/>
</svg>