<?xml version="1.0" encoding="utf-8"?>
<svg version="1.1" width="100" height="100" xmlns="http://www.w3.org/2000/svg">
<style type="text/css">
	.st0{fill:#FE3E3E;}
</style>
<g id="tingfm">
	<path class="st0" d="M92.5,35.7C87.6,22,76.1,10.5,62,6.6h0c-2.7-0.7-5.4,1.3-5.4,4.1l0,28.1c-0.7,0-2,0-3.7,0
		c-2.2,0-4.4,0.1-6.5,0.5c-3.7,0.8-6.5,2.9-8.8,5.9c-3.3,4.4-3.5,12.2,2.4,15.5c4,2.2,7.9,2.6,13,1.4c7.1-1.8,12.1-10,12.1-15.9
		v-9.1V24.4c0-3.5,4.1-5.5,6.8-3.3C80.7,28,86.5,39,86.5,50c0,21-17.9,38-39.2,36.5c-18-1.3-32.5-15.9-33.8-33.9
		c-1.2-17.5,10-33,26.3-37.7c2.1-0.6,3.4-2.7,3-4.8v0c-0.4-2.5-2.9-4-5.4-3.3C17.4,12.5,3.6,31.6,5.1,53.2
		c1.5,22.1,19.4,40,41.5,41.7C72.9,96.8,95,75.9,95,50C95,44.8,94.1,40,92.5,35.7z"/>
</g>
</svg>
